<svg width="1924" height="800" viewBox="0 29 1920 955" fill="none" xmlns="http://www.w3.org/2000/svg">
<rect width="1924" height="955" fill="url(#paint0_radial_1714_6710)" fill-opacity="0.5" class="hidden"/>
<path d="M1488.43 314.711C1515.2 303.972 1544.86 300.499 1573.39 304.797C1584.79 306.509 1599.65 307.79 1604.64 297.37C1606.13 294.255 1606.27 290.646 1607.58 287.444C1612.01 276.606 1631.08 275.448 1634.74 288.343C1635.93 292.481 1639.69 295.572 1643.96 295.018C1648.95 294.378 1649.29 288.946 1650.97 284.981C1654.93 275.695 1668.35 274.007 1677.08 279.081C1685.82 284.143 1685.8 293.146 1694.66 290.818C1703.52 288.491 1703.45 271.593 1711.73 258.046C1717.03 249.363 1725.43 240.324 1736.78 245.533C1739.37 246.728 1741.62 248.551 1743.56 250.644C1754.68 262.751 1764.52 279.303 1761.42 295.449C1757.51 315.82 1730.44 329.367 1698.29 329.367C1651.48 335.907 1507.17 320.241 1409 326.953" stroke="#D1D2DC" stroke-linejoin="round"/>
<path d="M330.75 88.9118C386.094 95.3688 415.417 84.7996 457.655 84.6977C470.727 84.6637 483.812 84.641 496.885 84.6071C517.788 84.5617 538.725 84.5051 559.571 82.8059C561.84 77.459 554.646 72.7465 548.836 72.9051C543.026 73.0637 536.773 75.2727 531.678 72.486C528.784 70.9 526.911 68 524.517 65.7231C517.583 59.1188 505.691 58.609 498.212 64.5903C496.158 66.2442 494.048 68.4305 491.415 68.2039C489.667 68.0454 488.226 66.8219 486.989 65.5985C478.512 57.193 471.658 44.8454 459.765 43.7126C446.136 42.4211 436.933 62.6078 433.778 63.095C430.624 63.5821 424.586 53.8286 414.759 50.4868C406.611 47.7227 396.966 50.77 391.269 57.2043C390.44 58.1332 389.623 59.1868 388.432 59.5266C386.003 60.2289 383.938 57.7254 382.622 55.5618C376.88 46.1141 370.218 36.4286 360.13 31.8973C350.041 27.3661 337.298 31.1836 331.964 40.8692C327.663 48.6743 329.377 64.4657 322.16 65.4965C314.942 66.5274 305.319 55.5504 295.685 59.3227C286.062 63.095 280.898 79.2262 273 79.2262" stroke="#D1D2DC" stroke-width="2" stroke-linejoin="round"/>
<g opacity="0.8" clip-path="url(#clip0_1714_6710)">
<path d="M1328.27 884.601C1323.87 884.601 1319.99 886.813 1317.67 890.178C1314.72 882.242 1307.06 876.578 1298.08 876.578C1286.54 876.578 1277.19 885.913 1277.19 897.427H1341.13C1341.13 890.344 1335.37 884.601 1328.27 884.601H1328.27Z" fill="#20996B"/>
<path d="M1376.18 763.35C1374.27 756.62 1378.01 747.752 1383.62 746.252C1390.81 744.333 1399.35 751.87 1405.04 746.113C1406.79 744.347 1407.82 741.588 1409.74 740.122C1414.14 736.757 1419.44 741.915 1424.51 743.154C1433.8 745.426 1441.66 734.192 1450.97 732.066C1458.23 730.414 1466.14 735.098 1469.66 743.147C1471.54 747.432 1472.86 753.155 1476.69 754.242C1479.97 755.168 1482.96 751.976 1486.12 750.537C1493.07 747.358 1501.67 753.802 1501.74 762.99L1376.18 763.364L1376.18 763.35Z" fill="#20996B"/>
<path d="M814.85 584.35C797.609 593.232 777.665 590.586 759.383 586.895" stroke="#D1D2DC" stroke-width="2" stroke-linejoin="round"/>
<path d="M809.167 587.342C801.909 589.834 794.277 590.354 786.752 591.6C779.521 592.799 772.383 594.531 765.406 596.777C751.838 601.148 738.944 607.425 727.105 615.347" stroke="#D1D2DC" stroke-width="2" stroke-linejoin="round"/>
<path d="M478.296 813.957V825.071H461.536V841.789H444.783V858.514H428.03V875.232H411.271V884.894" stroke="#D1D2DC" stroke-width="2" stroke-miterlimit="10"/>
<path d="M428.037 875.219H455.5" stroke="#D1D2DC" stroke-width="2" stroke-miterlimit="10"/>
<path d="M444.897 858.487H473.328" stroke="#D1D2DC" stroke-width="2" stroke-miterlimit="10"/>
<path d="M461.543 841.789H491.957" stroke="#D1D2DC" stroke-width="2" stroke-miterlimit="10"/>
<path d="M478.296 825.071H505.912" stroke="#D1D2DC" stroke-width="2" stroke-miterlimit="10"/>
<path d="M495.049 808.354H478.296V825.072" stroke="#D1D2DC" stroke-width="2" stroke-miterlimit="10"/>
<path d="M479.992 862.785L523.58 819.414" stroke="#D1D2DC" stroke-width="2" stroke-miterlimit="10"/>
<path d="M1376.4 839.491H1403.86" stroke="#D1D2DC" stroke-width="2" stroke-miterlimit="10"/>
<path d="M1393.26 822.76H1406.34" stroke="#D1D2DC" stroke-width="2" stroke-miterlimit="10"/>
<path d="M1409.9 806.062H1442.05" stroke="#D1D2DC" stroke-width="2" stroke-miterlimit="10"/>
<path d="M1426.65 789.344H1454.27" stroke="#D1D2DC" stroke-width="2" stroke-miterlimit="10"/>
<path d="M1426.65 778.229V789.343H1409.89V806.067H1393.14V822.785H1376.39V839.503H1359.63V853.563H1342.88V867.329" stroke="#D1D2DC" stroke-width="2" stroke-miterlimit="10"/>
<path d="M1467.66 772.625H1426.65V789.343" stroke="#D1D2DC" stroke-width="2" stroke-miterlimit="10"/>
<path d="M1432.44 822.986L1486.49 769.207" stroke="#D1D2DC" stroke-width="2" stroke-miterlimit="10"/>
<path d="M1359.63 853.563H1384.76" stroke="#D1D2DC" stroke-width="2" stroke-miterlimit="10"/>
<path d="M1012.03 929.971V903.605C1012.03 895.082 1008.55 890.931 1005.69 883.262C1003.91 878.491 1000.18 875.466 996.1 875.466H945.821C941.742 875.466 938.016 878.491 936.233 883.262C933.369 890.931 929.896 895.082 929.896 903.605V925.473" stroke="#16161E" stroke-width="2" stroke-miterlimit="10"/>
<path d="M1274.04 763.15H621.36" stroke="#16161E" stroke-width="2" stroke-miterlimit="10"/>
<path d="M666.103 875.459H706.867C725.603 828.257 771.755 794.874 825.72 794.874C879.684 794.874 925.837 828.257 944.573 875.459H995.566C1014.3 828.257 1060.45 794.874 1114.42 794.874C1168.38 794.874 1214.54 828.257 1233.27 875.459H1274.04V892.67" stroke="#16161E" stroke-width="2" stroke-miterlimit="10"/>
<path d="M1260.6 862.046H1242.09C1218.79 812.798 1169.64 781.461 1114.43 781.461C1059.21 781.461 1010.06 812.798 986.759 862.046H953.4C930.097 812.798 880.946 781.461 825.733 781.461C770.52 781.461 721.363 812.798 698.067 862.046H679.558" stroke="#CECFD8" stroke-width="2" stroke-miterlimit="10"/>
<path d="M1241.17 732.713H1305.71V739.929L1311.25 739.896V763.35" stroke="#1D1D1B" stroke-width="2" stroke-miterlimit="10"/>
<path d="M1165.97 732.713H1226.88" stroke="#1D1D1B" stroke-width="2" stroke-miterlimit="10"/>
<path d="M1090.33 732.713H1151.5" stroke="#1D1D1B" stroke-width="2" stroke-miterlimit="10"/>
<path d="M1014.7 732.713H1076.04" stroke="#1D1D1B" stroke-width="2" stroke-miterlimit="10"/>
<path d="M939.438 732.713H1000.7" stroke="#1D1D1B" stroke-width="2" stroke-miterlimit="10"/>
<path d="M863.906 732.713H925.236" stroke="#1D1D1B" stroke-width="2" stroke-miterlimit="10"/>
<path d="M788.722 732.713H849.571" stroke="#1D1D1B" stroke-width="2" stroke-miterlimit="10"/>
<path d="M713.17 732.713H773.912" stroke="#1D1D1B" stroke-width="2" stroke-miterlimit="10"/>
<path d="M723.727 924.74V903.598C723.727 895.075 720.255 890.924 717.39 883.255C715.608 878.484 711.882 875.459 707.802 875.459H666.097V888.206" stroke="#16161E" stroke-width="2" stroke-miterlimit="10"/>
<path d="M1274.04 875.459H1230.05C1225.97 875.459 1222.25 878.484 1220.47 883.255C1217.6 890.924 1214.13 895.075 1214.13 903.598V929.964" stroke="#16161E" stroke-width="2" stroke-miterlimit="10"/>
<path d="M705.939 728.096V717.354" stroke="#16161E" stroke-width="2" stroke-miterlimit="10"/>
<path d="M711.809 711.919L705.936 706.058L700.063 711.919L705.936 717.78L711.809 711.919Z" stroke="#16161E" stroke-width="2" stroke-miterlimit="10"/>
<path d="M699.295 728.049V741.302H702.347V763.151H709.531V741.302H712.576V728.049H699.295Z" stroke="#1D1D1B" stroke-width="2" stroke-miterlimit="10"/>
<path d="M781.404 728.096V717.354" stroke="#16161E" stroke-width="2" stroke-miterlimit="10"/>
<path d="M787.279 711.917L781.406 706.056L775.532 711.917L781.406 717.778L787.279 711.917Z" stroke="#16161E" stroke-width="2" stroke-miterlimit="10"/>
<path d="M774.767 728.049V741.302H777.812V763.151H784.996V741.302H788.041V728.049H774.767Z" stroke="#1D1D1B" stroke-width="2" stroke-miterlimit="10"/>
<path d="M856.869 728.096V717.354" stroke="#16161E" stroke-width="2" stroke-miterlimit="10"/>
<path d="M862.742 711.915L856.869 706.054L850.995 711.915L856.869 717.776L862.742 711.915Z" stroke="#16161E" stroke-width="2" stroke-miterlimit="10"/>
<path d="M850.232 728.049V741.302H853.276V763.151H860.461V741.302H863.512V728.049H850.232Z" stroke="#1D1D1B" stroke-width="2" stroke-miterlimit="10"/>
<path d="M932.334 728.096V717.354" stroke="#16161E" stroke-width="2" stroke-miterlimit="10"/>
<path d="M938.205 711.913L932.332 706.052L926.458 711.913L932.332 717.774L938.205 711.913Z" stroke="#16161E" stroke-width="2" stroke-miterlimit="10"/>
<path d="M925.697 728.049V741.302H928.741V763.151H935.933V741.302H938.977V728.049H925.697Z" stroke="#1D1D1B" stroke-width="2" stroke-miterlimit="10"/>
<path d="M1007.81 728.096V717.354" stroke="#16161E" stroke-width="2" stroke-miterlimit="10"/>
<path d="M1013.67 711.911L1007.8 706.05L1001.93 711.911L1007.8 717.772L1013.67 711.911Z" stroke="#16161E" stroke-width="2" stroke-miterlimit="10"/>
<path d="M1001.16 728.049V741.302H1004.21V763.151H1011.4V741.302H1014.44V728.049H1001.16Z" stroke="#1D1D1B" stroke-width="2" stroke-miterlimit="10"/>
<path d="M1083.27 728.096V717.354" stroke="#16161E" stroke-width="2" stroke-miterlimit="10"/>
<path d="M1089.14 711.921L1083.27 706.06L1077.4 711.921L1083.27 717.782L1089.14 711.921Z" stroke="#16161E" stroke-width="2" stroke-miterlimit="10"/>
<path d="M1076.63 728.049V741.302H1079.68V763.151H1086.86V741.302H1089.91V728.049H1076.63Z" stroke="#1D1D1B" stroke-width="2" stroke-miterlimit="10"/>
<path d="M1158.73 728.096V717.354" stroke="#16161E" stroke-width="2" stroke-miterlimit="10"/>
<path d="M1164.61 711.919L1158.73 706.058L1152.86 711.919L1158.73 717.78L1164.61 711.919Z" stroke="#16161E" stroke-width="2" stroke-miterlimit="10"/>
<path d="M1152.1 728.049V741.302H1155.14V763.151H1162.33V741.302H1165.37V728.049H1152.1Z" stroke="#1D1D1B" stroke-width="2" stroke-miterlimit="10"/>
<path d="M1234.2 728.096V717.354" stroke="#16161E" stroke-width="2" stroke-miterlimit="10"/>
<path d="M1240.08 711.917L1234.2 706.056L1228.33 711.917L1234.2 717.778L1240.08 711.917Z" stroke="#16161E" stroke-width="2" stroke-miterlimit="10"/>
<path d="M1227.56 728.049V741.302H1230.61V763.151H1237.79V741.302H1240.84V728.049H1227.56Z" stroke="#1D1D1B" stroke-width="2" stroke-miterlimit="10"/>
<path d="M766.961 746.272V739.936H721.263V746.272H717.03V750.65C717.03 753.862 719.641 756.467 722.859 756.467H765.372C768.591 756.467 771.201 753.862 771.201 750.65V746.272H766.968H766.961Z" stroke="#D1D2DC" stroke-width="2" stroke-miterlimit="10"/>
<path d="M841.765 746.272V739.936H796.067V746.272H791.833V750.65C791.833 753.862 794.444 756.467 797.663 756.467H840.176C843.394 756.467 846.005 753.862 846.005 750.65V746.272H841.772H841.765Z" stroke="#D1D2DC" stroke-width="2" stroke-miterlimit="10"/>
<path d="M917.924 746.272V739.936H872.226V746.272H867.993V750.65C867.993 753.862 870.604 756.467 873.822 756.467H916.335C919.554 756.467 922.164 753.862 922.164 750.65V746.272H917.931H917.924Z" stroke="#D1D2DC" stroke-width="2" stroke-miterlimit="10"/>
<path d="M992.728 746.272V739.936H947.03V746.272H942.797V750.65C942.797 753.862 945.407 756.467 948.626 756.467H991.139C994.357 756.467 996.968 753.862 996.968 750.65V746.272H992.735H992.728Z" stroke="#D1D2DC" stroke-width="2" stroke-miterlimit="10"/>
<path d="M1067.54 746.272V739.936H1021.84V746.272H1017.61V750.65C1017.61 753.862 1020.22 756.467 1023.44 756.467H1065.95C1069.17 756.467 1071.78 753.862 1071.78 750.65V746.272H1067.55H1067.54Z" stroke="#D1D2DC" stroke-width="2" stroke-miterlimit="10"/>
<path d="M1143.69 746.272V739.936H1097.99V746.272H1093.76V750.65C1093.76 753.862 1096.37 756.467 1099.59 756.467H1142.1C1145.32 756.467 1147.93 753.862 1147.93 750.65V746.272H1143.7H1143.69Z" stroke="#D1D2DC" stroke-width="2" stroke-miterlimit="10"/>
<path d="M1219.84 746.272V739.936H1174.15V746.272H1169.91V750.65C1169.91 753.862 1172.52 756.467 1175.74 756.467H1218.25C1221.47 756.467 1224.08 753.862 1224.08 750.65V746.272H1219.85H1219.84Z" stroke="#D1D2DC" stroke-width="2" stroke-miterlimit="10"/>
<path d="M1300.37 746.239V739.902H1274.04L1247.71 739.936V746.272H1243.48V750.65C1243.48 753.862 1246.09 756.467 1249.31 756.467H1274.04L1298.77 756.434C1301.99 756.434 1304.6 753.828 1304.6 750.617V746.239H1300.37Z" stroke="#D1D2DC" stroke-width="2" stroke-miterlimit="10"/>
<path d="M699.295 732.88H634.754V740.096L629.219 740.063V763.517" stroke="#1D1D1B" stroke-width="2" stroke-miterlimit="10"/>
<path d="M640.096 746.399V740.062H666.424L692.752 740.096V746.433H696.985V750.81C696.985 754.022 694.374 756.627 691.156 756.627H666.424L641.692 756.594C638.473 756.594 635.863 753.989 635.863 750.777V746.399H640.096Z" stroke="#D1D2DC" stroke-width="2" stroke-miterlimit="10"/>
<path d="M1758.98 882.729V897.547" stroke="#16161E" stroke-width="2" stroke-miterlimit="10"/>
<path d="M1831.03 882.729V897.547" stroke="#16161E" stroke-width="2" stroke-miterlimit="10"/>
<path d="M1758.57 875.619V857.448C1758.57 854.35 1761.08 851.838 1764.19 851.838H1824.99C1828.1 851.838 1830.61 854.35 1830.61 857.448V876.032" stroke="#16161E" stroke-width="2" stroke-miterlimit="10"/>
<path d="M1840.88 874.973H1748.15V882.455H1840.88V874.973Z" stroke="#16161E" stroke-width="2" stroke-miterlimit="10"/>
<path d="M1818.32 771.979C1813.09 762.73 1807.43 753.995 1803.83 748.604C1802.04 745.939 1798.12 745.939 1796.33 748.604C1788.09 760.911 1769.12 790.709 1769.12 804.069C1769.12 821.127 1782.99 834.96 1800.08 834.96C1810.66 834.96 1820.01 829.656 1825.59 821.573" stroke="#16161E" stroke-width="2" stroke-miterlimit="10"/>
<path d="M1800.07 803.43V846.607" stroke="#16161E" stroke-width="2" stroke-miterlimit="10"/>
<path d="M527.78 667.094C527.78 687.743 544.553 704.481 565.245 704.481C585.938 704.481 602.71 687.743 602.71 667.094C602.71 650.929 579.748 614.867 569.779 599.969C567.622 596.744 562.875 596.744 560.718 599.969C550.749 614.867 527.786 650.929 527.786 667.094H527.78Z" fill="#20996B"/>
<path d="M565.245 666.327V750.284" stroke="#16161E" stroke-width="2" stroke-miterlimit="10"/>
<path d="M564.925 684.772L555.684 675.55" stroke="#16161E" stroke-width="2" stroke-miterlimit="10"/>
<path d="M525.837 648.097C520.502 638.661 514.726 629.746 511.047 624.249C509.231 621.53 505.225 621.53 503.409 624.249C495.002 636.809 475.645 667.207 475.645 680.833C475.645 698.237 489.787 712.35 507.228 712.35C518.025 712.35 527.56 706.939 533.255 698.69" stroke="#16161E" stroke-width="2" stroke-miterlimit="10"/>
<path d="M507.228 680.187V762.89" stroke="#16161E" stroke-width="2" stroke-miterlimit="10"/>
<path d="M464.828 680.146L384.916 680.366" stroke="#16161E" stroke-width="2" stroke-miterlimit="10"/>
<path d="M367.342 443.483H361.333V432.275H554.395V443.483H547.457" stroke="#16161E" stroke-width="2" stroke-miterlimit="10"/>
<path d="M609.087 694.472V443.482H559.483" stroke="#16161E" stroke-width="2" stroke-miterlimit="10"/>
<path d="M559.483 432.275H616.025V443.483H609.087" stroke="#16161E" stroke-width="2" stroke-miterlimit="10"/>
<path d="M386.078 432.275V415.964L400.106 402.464L413.855 415.69V432.275" stroke="#16161E" stroke-width="2" stroke-miterlimit="10"/>
<path d="M423.85 402.464L437.599 415.69V432.275" stroke="#16161E" stroke-width="2" stroke-miterlimit="10"/>
<path d="M399.966 402.464H423.703" stroke="#16161E" stroke-width="2" stroke-miterlimit="10"/>
<path d="M411.645 466.284H398.124V479.777H411.645V466.284Z" stroke="#D1D2DC" stroke-width="2" stroke-miterlimit="10"/>
<path d="M446.099 466.284H432.577V479.777H446.099V466.284Z" stroke="#D1D2DC" stroke-width="2" stroke-miterlimit="10"/>
<path d="M480.559 466.284H467.038V479.777H480.559V466.284Z" stroke="#D1D2DC" stroke-width="2" stroke-miterlimit="10"/>
<path d="M515.013 466.284H501.492V479.777H515.013V466.284Z" stroke="#D1D2DC" stroke-width="2" stroke-miterlimit="10"/>
<path d="M410.71 500.173H397.189V513.666H410.71V500.173Z" stroke="#D1D2DC" stroke-width="2" stroke-miterlimit="10"/>
<path d="M479.624 500.173H466.103V513.666H479.624V500.173Z" stroke="#D1D2DC" stroke-width="2" stroke-miterlimit="10"/>
<path d="M514.085 500.173H500.564V513.666H514.085V500.173Z" stroke="#D1D2DC" stroke-width="2" stroke-miterlimit="10"/>
<path d="M408.847 567.958H395.326V581.451H408.847V567.958Z" stroke="#D1D2DC" stroke-width="2" stroke-miterlimit="10"/>
<path d="M477.762 567.958H464.24V581.451H477.762V567.958Z" stroke="#D1D2DC" stroke-width="2" stroke-miterlimit="10"/>
<path d="M512.222 567.958H498.701V581.451H512.222V567.958Z" stroke="#D1D2DC" stroke-width="2" stroke-miterlimit="10"/>
<path d="M407.919 601.848H394.398V615.341H407.919V601.848Z" stroke="#D1D2DC" stroke-width="2" stroke-miterlimit="10"/>
<path d="M442.373 601.848H428.852V615.341H442.373V601.848Z" stroke="#D1D2DC" stroke-width="2" stroke-miterlimit="10"/>
<path d="M476.833 601.848H463.312V615.341H476.833V601.848Z" stroke="#D1D2DC" stroke-width="2" stroke-miterlimit="10"/>
<path d="M573.191 484.201H587.754" stroke="#D1D2DC" stroke-width="2" stroke-miterlimit="10"/>
<path d="M573.191 501.546H587.754" stroke="#D1D2DC" stroke-width="2" stroke-miterlimit="10"/>
<path d="M573.191 518.896H587.754" stroke="#D1D2DC" stroke-width="2" stroke-miterlimit="10"/>
<path d="M573.191 536.241H587.754" stroke="#D1D2DC" stroke-width="2" stroke-miterlimit="10"/>
<path d="M573.191 553.592H587.754" stroke="#D1D2DC" stroke-width="2" stroke-miterlimit="10"/>
<path d="M573.191 570.937H587.754" stroke="#D1D2DC" stroke-width="2" stroke-miterlimit="10"/>
<path d="M573.191 588.287H587.754" stroke="#D1D2DC" stroke-width="2" stroke-miterlimit="10"/>
<path d="M399.966 425.458C402.286 425.458 404.166 423.647 404.166 421.414C404.166 419.18 402.286 417.369 399.966 417.369C397.647 417.369 395.766 419.18 395.766 421.414C395.766 423.647 397.647 425.458 399.966 425.458Z" stroke="#16161E" stroke-width="2" stroke-miterlimit="10"/>
<path d="M489.26 432.275V415.964L503.288 402.464L517.036 415.69V432.275" stroke="#16161E" stroke-width="2" stroke-miterlimit="10"/>
<path d="M527.032 402.464L540.774 415.69V432.275" stroke="#16161E" stroke-width="2" stroke-miterlimit="10"/>
<path d="M503.148 402.464H526.885" stroke="#16161E" stroke-width="2" stroke-miterlimit="10"/>
<path d="M507.348 421.414C507.348 423.646 505.465 425.458 503.148 425.458C500.831 425.458 498.948 423.646 498.948 421.414C498.948 419.182 500.831 417.369 503.148 417.369C505.465 417.369 507.348 419.182 507.348 421.414Z" stroke="#16161E" stroke-width="2" stroke-miterlimit="10"/>
<path d="M570.353 432.275V402.464H580.469V432.275" stroke="#16161E" stroke-width="2" stroke-miterlimit="10"/>
<path d="M580.469 402.464H587.754V430.842" stroke="#16161E" stroke-width="2" stroke-miterlimit="10"/>
<path d="M437.599 421.414H485.527" stroke="#16161E" stroke-width="2" stroke-miterlimit="10"/>
<path d="M542.356 421.414H570.353" stroke="#16161E" stroke-width="2" stroke-miterlimit="10"/>
<path d="M547.457 615.153V483.915H544.199V466.57H547.457V443.482H367.342V543.337" stroke="#16161E" stroke-width="2" stroke-miterlimit="10"/>
<path d="M451.567 636.536C447.367 639.641 446.88 645.811 446.88 645.811C446.88 645.811 453.203 646.957 457.41 643.852C461.61 640.747 462.097 634.577 462.097 634.577C462.097 634.577 455.774 633.431 451.567 636.536Z" fill="#20996B"/>
<path d="M398.791 643.225C402.277 647.063 408.713 647.143 408.713 647.143C408.713 647.143 409.501 640.999 406.016 637.161C402.53 633.323 396.094 633.243 396.094 633.243C396.094 633.243 395.306 639.387 398.791 643.225Z" fill="#20996B"/>
<path d="M432.177 651.807C435.503 651.807 438.2 649.215 438.2 646.017C438.2 642.819 435.503 640.227 432.177 640.227C428.851 640.227 426.154 642.819 426.154 646.017C426.154 649.215 428.851 651.807 432.177 651.807Z" fill="#20996B"/>
<path d="M419.357 641.566C421.757 641.566 423.704 639.693 423.704 637.382C423.704 635.071 421.757 633.197 419.357 633.197C416.956 633.197 415.01 635.071 415.01 637.382C415.01 639.693 416.956 641.566 419.357 641.566Z" fill="#20996B"/>
<path d="M396.027 660.856H462.097V652.527H396.027V660.856Z" stroke="#16161E" stroke-width="2" stroke-miterlimit="10"/>
<path d="M392.849 541.719H442.373" stroke="#D1D2DC" stroke-width="2" stroke-miterlimit="10"/>
<path d="M471.004 541.719H520.529" stroke="#D1D2DC" stroke-width="2" stroke-miterlimit="10"/>
<path d="M452.282 536.241V548.135" stroke="#D1D2DC" stroke-width="2" stroke-miterlimit="10"/>
<path d="M459.88 536.241V548.135" stroke="#D1D2DC" stroke-width="2" stroke-miterlimit="10"/>
<path d="M1716.04 567.52L1723.33 570.458L1730.62 567.52L1737.92 570.458L1745.21 567.52L1752.5 570.458L1759.8 567.52L1767.09 570.458L1774.39 567.52" stroke="#D1D2DC" stroke-width="2" stroke-miterlimit="10"/>
<path d="M1695.38 570.458L1702.68 567.52L1709.98 570.458L1717.28 567.52" stroke="#D1D2DC" stroke-width="2" stroke-miterlimit="10"/>
<path d="M1723.33 563.774L1730.62 560.836L1737.92 563.774L1745.21 560.836L1752.5 563.774L1759.8 560.836L1767.09 563.774" stroke="#D1D2DC" stroke-width="2" stroke-miterlimit="10"/>
<path d="M1607.78 863.666H1624.72" stroke="#D1D2DC" stroke-width="2" stroke-miterlimit="10"/>
<path d="M1614.76 863.353V858.275" stroke="#D1D2DC" stroke-width="2" stroke-miterlimit="10"/>
<path d="M1769.85 606.499H1756.66" stroke="#D1D2DC" stroke-width="2" stroke-miterlimit="10"/>
<path d="M1763.28 609.991V606.499" stroke="#D1D2DC" stroke-width="2" stroke-miterlimit="10"/>
<path d="M1662.76 895.123V887.54H1651.24V589.142" stroke="#16161E" stroke-width="2" stroke-miterlimit="10"/>
<path d="M1644.93 609.631H1630.06V614.595H1644.93V609.631Z" fill="#CECFD8"/>
<path d="M1635.81 602.121H1620.94V607.085H1635.81V602.121Z" fill="#CECFD8"/>
<path d="M1660.75 580.532H1515.79V588.588H1660.75V580.532Z" stroke="#16161E" stroke-width="2" stroke-miterlimit="10"/>
<path d="M1660.29 580.532H1789V588.588H1658.93" stroke="#16161E" stroke-width="2" stroke-miterlimit="10"/>
<path d="M1524.1 580.532L1534.66 544.071H1768.44L1778.99 580.532" stroke="#16161E" stroke-width="2" stroke-miterlimit="10"/>
<path d="M1640.99 544.071L1651.55 580.532" stroke="#16161E" stroke-width="2" stroke-miterlimit="10"/>
<path d="M1535.86 568.992L1547.43 558.457L1558.89 568.878H1567.25L1555.8 558.457H1547.43" stroke="#16161E" stroke-width="2" stroke-linejoin="round"/>
<path d="M1538.6 566.493V580.533" stroke="#16161E" stroke-width="2" stroke-miterlimit="10"/>
<path d="M1556.31 566.493V580.533" stroke="#16161E" stroke-width="2" stroke-miterlimit="10"/>
<path d="M1563.66 568.991V580.532" stroke="#16161E" stroke-width="2" stroke-linejoin="round"/>
<path d="M1549.53 570.418H1544.57V574.762H1549.53V570.418Z" fill="#72BE4A"/>
<path d="M1572.27 568.992L1583.84 558.457L1595.29 568.878H1603.67L1592.21 558.457H1583.84" stroke="#16161E" stroke-width="2" stroke-linejoin="round"/>
<path d="M1575.01 566.493V580.533" stroke="#16161E" stroke-width="2" stroke-miterlimit="10"/>
<path d="M1592.72 566.493V580.533" stroke="#16161E" stroke-width="2" stroke-miterlimit="10"/>
<path d="M1600.07 568.991V580.532" stroke="#16161E" stroke-width="2" stroke-linejoin="round"/>
<path d="M1585.94 570.418H1580.98V574.762H1585.94V570.418Z" fill="#72BE4A"/>
<path d="M1608.67 568.992L1620.25 558.457L1631.7 568.878H1640.07L1628.62 558.457H1620.25" stroke="#16161E" stroke-width="2" stroke-linejoin="round"/>
<path d="M1611.42 566.493V580.533" stroke="#16161E" stroke-width="2" stroke-miterlimit="10"/>
<path d="M1629.13 566.493V580.533" stroke="#16161E" stroke-width="2" stroke-miterlimit="10"/>
<path d="M1636.48 568.991V580.532" stroke="#16161E" stroke-width="2" stroke-linejoin="round"/>
<path d="M1622.35 570.418H1617.39V574.762H1622.35V570.418Z" fill="#72BE4A"/>
<path d="M1571.8 544.071V530.358H1584.4V544.071" stroke="#16161E" stroke-width="2" stroke-linejoin="round"/>
<path d="M1584.4 530.358H1591.46V544.071" stroke="#16161E" stroke-width="2" stroke-linejoin="round"/>
<path d="M1660.75 544.071V537.215H1700.86V544.071" stroke="#16161E" stroke-width="2" stroke-linejoin="round"/>
<path d="M1700.86 537.215H1716.24V544.071" stroke="#16161E" stroke-width="2" stroke-linejoin="round"/>
<path d="M1558.73 792.249H1538.28V833.614H1558.73V792.249Z" stroke="#16161E" stroke-width="2" stroke-linejoin="round"/>
<path d="M1596.21 792.249H1575.76V833.614H1596.21V792.249Z" stroke="#16161E" stroke-width="2" stroke-linejoin="round"/>
<path d="M1633.7 792.249H1613.25V833.614H1633.7V792.249Z" stroke="#16161E" stroke-width="2" stroke-linejoin="round"/>
<path d="M1558.73 737.544H1538.28V778.909H1558.73V737.544Z" stroke="#D1D2DC" stroke-width="2" stroke-miterlimit="10"/>
<path d="M1596.21 737.544H1575.76V778.909H1596.21V737.544Z" stroke="#D1D2DC" stroke-width="2" stroke-miterlimit="10"/>
<path d="M1633.7 737.544H1613.25V778.909H1633.7V737.544Z" stroke="#D1D2DC" stroke-width="2" stroke-miterlimit="10"/>
<path d="M1558.73 682.833H1538.28V724.198H1558.73V682.833Z" stroke="#D1D2DC" stroke-width="2" stroke-miterlimit="10"/>
<path d="M1596.21 682.833H1575.76V724.198H1596.21V682.833Z" stroke="#D1D2DC" stroke-width="2" stroke-miterlimit="10"/>
<path d="M1633.7 682.833H1613.25V724.198H1633.7V682.833Z" stroke="#D1D2DC" stroke-width="2" stroke-miterlimit="10"/>
<path d="M1558.73 628.128H1538.28V669.493H1558.73V628.128Z" fill="#CECFD8"/>
<path d="M1596.21 628.128H1575.76V669.493H1596.21V628.128Z" fill="#CECFD8"/>
<path d="M1633.7 628.128H1613.25V669.493H1633.7V628.128Z" fill="#CECFD8"/>
<path d="M1548.51 792.249V833.614" stroke="#16161E" stroke-width="2" stroke-linejoin="round"/>
<path d="M1538.28 804.949H1558.73" stroke="#16161E" stroke-width="2" stroke-linejoin="round"/>
<path d="M1538.28 820.475H1558.73" stroke="#16161E" stroke-width="2" stroke-linejoin="round"/>
<path d="M1706.75 886.16V846.607H1726.84V886.16" stroke="#D1D2DC" stroke-width="2" stroke-miterlimit="10"/>
<path d="M1691.52 886.16H1742.08" stroke="#D1D2DC" stroke-width="2" stroke-miterlimit="10"/>
<path d="M1667.23 748.766H1763.25" stroke="#D1D2DC" stroke-width="2" stroke-miterlimit="10"/>
<path d="M1667.23 709.692H1763.25" stroke="#D1D2DC" stroke-width="2" stroke-miterlimit="10"/>
<path d="M1667.23 670.619H1763.25" stroke="#D1D2DC" stroke-width="2" stroke-miterlimit="10"/>
<path d="M1667.23 631.546H1763.25" stroke="#D1D2DC" stroke-width="2" stroke-miterlimit="10"/>
<path d="M1732.91 663.363V763.351" stroke="#D1D2DC" stroke-width="2" stroke-miterlimit="10"/>
<path d="M1732.91 618.959V650.456" stroke="#D1D2DC" stroke-width="2" stroke-miterlimit="10"/>
<path d="M1691.52 711.312V763.351" stroke="#D1D2DC" stroke-width="2" stroke-miterlimit="10"/>
<path d="M1691.52 618.959V733.333" stroke="#D1D2DC" stroke-width="2" stroke-miterlimit="10"/>
<path d="M1778.93 765.044V727.157H1775.51V712.151H1778.93V589.142" stroke="#16161E" stroke-width="2" stroke-miterlimit="10"/>
<path d="M1524.1 883.895V726.603H1527.52V711.597H1524.1V588.588" stroke="#16161E" stroke-width="2" stroke-miterlimit="10"/>
<path d="M1553.73 886.447H1512.44V897.155" stroke="#16161E" stroke-width="2" stroke-miterlimit="10"/>
<path d="M1697.03 808.048L1698.33 811.693" stroke="#16161E" stroke-width="2" stroke-miterlimit="10"/>
<path d="M1701.99 809.394L1704.6 808.048" stroke="#16161E" stroke-width="2" stroke-miterlimit="10"/>
<path d="M1717.39 812.992H1720.26" stroke="#16161E" stroke-width="2" stroke-miterlimit="10"/>
<path d="M1728.87 809.867L1727.57 811.693" stroke="#16161E" stroke-width="2" stroke-miterlimit="10"/>
<path d="M1739.05 814.817L1741.66 816.903" stroke="#16161E" stroke-width="2" stroke-miterlimit="10"/>
<path d="M1744.01 811.692L1745.84 809.394" stroke="#16161E" stroke-width="2" stroke-miterlimit="10"/>
<path d="M1701.99 814.817L1703.29 823.933" stroke="#16161E" stroke-width="2" stroke-miterlimit="10"/>
<path d="M1723.91 814.817L1722.61 824.979" stroke="#16161E" stroke-width="2" stroke-miterlimit="10"/>
<path d="M1700.18 823.613C1701.76 825.752 1700.55 829.33 1700.55 829.33C1700.55 829.33 1696.77 829.437 1695.19 827.291C1693.61 825.152 1694.81 821.574 1694.81 821.574C1694.81 821.574 1698.59 821.468 1700.18 823.613Z" fill="#20996B"/>
<path d="M1714.53 819.482C1713.8 822.041 1710.22 823.267 1710.22 823.267C1710.22 823.267 1707.83 820.341 1708.56 817.783C1709.28 815.224 1712.86 813.998 1712.86 813.998C1712.86 813.998 1715.25 816.923 1714.53 819.482Z" fill="#20996B"/>
<path d="M1748.65 827.577C1746.94 829.13 1743.74 828.41 1743.74 828.41C1743.74 828.41 1743.32 825.172 1745.03 823.62C1746.74 822.067 1749.93 822.787 1749.93 822.787C1749.93 822.787 1750.35 826.025 1748.65 827.577Z" fill="#20996B"/>
<path d="M1738.23 823.42C1737.23 826.905 1732.37 828.571 1732.37 828.571C1732.37 828.571 1729.12 824.593 1730.11 821.115C1731.1 817.63 1735.97 815.964 1735.97 815.964C1735.97 815.964 1739.22 819.942 1738.23 823.42Z" fill="#20996B"/>
<path d="M1755.08 826.138C1755.08 807.421 1739.88 792.249 1721.12 792.249C1702.37 792.249 1687.16 807.421 1687.16 826.138" stroke="#16161E" stroke-width="2" stroke-linejoin="round"/>
<path d="M1687.16 831.396H1755.08" stroke="#16161E" stroke-width="2" stroke-linejoin="round"/>
<path d="M112.999 888L112.999 794" stroke="#16161E" stroke-width="2" stroke-miterlimit="10"/>
<path d="M127.006 751.789V571.263H338.13V751.789" stroke="#16161E" stroke-width="2" stroke-miterlimit="10"/>
<path d="M286.999 794L112.999 794" stroke="#16161E" stroke-width="2" stroke-linejoin="round"/>
<path d="M108.463 771.246L109.859 766.842H318.592" stroke="#16161E" stroke-width="2" stroke-linejoin="round"/>
<path d="M120.101 804.436C124.295 803.596 127.84 800.951 129.89 797.353C132.394 801.744 137.115 804.715 142.536 804.715C147.958 804.715 152.686 801.744 155.183 797.353C157.687 801.744 162.408 804.715 167.829 804.715C173.251 804.715 177.979 801.744 180.476 797.353C182.973 801.744 187.701 804.715 193.122 804.715C198.544 804.715 203.272 801.744 205.769 797.353C208.266 801.744 212.993 804.715 218.415 804.715C223.837 804.715 228.565 801.744 231.062 797.353C233.559 801.744 238.286 804.715 243.708 804.715C249.13 804.715 253.857 801.744 256.355 797.353C258.852 801.744 263.579 804.715 269.001 804.715" stroke="#16161E" stroke-width="2" stroke-linejoin="round"/>
<path d="M303.288 843.535C295.69 829.489 280.806 819.947 263.693 819.947H260.782C235.943 819.947 215.811 840.037 215.811 864.824" stroke="#D1D2DC" stroke-width="2" stroke-miterlimit="10"/>
<path d="M167.095 883.968V840.131H132.614V883.968" stroke="#D1D2DC" stroke-width="2" stroke-miterlimit="10"/>
<path d="M157.66 883.968V840.131" stroke="#D1D2DC" stroke-width="2" stroke-miterlimit="10"/>
<path d="M132.621 833.001H167.095V825.625H132.621V833.001Z" stroke="#D1D2DC" stroke-width="2" stroke-miterlimit="10"/>
<path d="M106.493 760.218V751.789H346.81" stroke="#16161E" stroke-width="2" stroke-miterlimit="10"/>
<path d="M347.972 571.263H373.999V751.789" stroke="#16161E" stroke-width="2" stroke-miterlimit="10"/>
<path d="M357.654 751.789H393.296V769.047" stroke="#16161E" stroke-width="2" stroke-miterlimit="10"/>
<path d="M127.006 571.263H120.969V562.062H342.944V571.263H338.13" stroke="#16161E" stroke-width="2" stroke-miterlimit="10"/>
<path d="M342.944 562.062H378.813V571.263H373.999" stroke="#16161E" stroke-width="2" stroke-miterlimit="10"/>
<path d="M187.187 844.688H202.143V829.763H187.187V844.688Z" fill="#CECFD8"/>
<path d="M317.818 676.389H298.281V735.551H317.818V676.389Z" stroke="#16161E" stroke-width="2" stroke-miterlimit="10"/>
<path d="M298.281 694.473H317.824" stroke="#16161E" stroke-width="2" stroke-miterlimit="10"/>
<path d="M298.281 703.808H317.824" stroke="#16161E" stroke-width="2" stroke-miterlimit="10"/>
<path d="M140.861 562.061L236.597 540.159L332.608 562.061" stroke="#16161E" stroke-width="2" stroke-miterlimit="10"/>
<path d="M363.696 562.061L267.693 540.159H236.597" stroke="#16161E" stroke-width="2" stroke-miterlimit="10"/>
<path d="M127.006 578.272H373.999" stroke="#16161E" stroke-width="2" stroke-miterlimit="10"/>
<path d="M210.697 599.908H151.29V650.255H210.697V599.908Z" stroke="#D1D2DC" stroke-width="2" stroke-miterlimit="10"/>
<path d="M250.312 631.105H231.122V650.256H250.312V631.105Z" fill="#CECFD8"/>
<path d="M284.452 631.105H265.262V650.256H284.452V631.105Z" fill="#CECFD8"/>
<path d="M318.586 631.105H299.396V650.256H318.586V631.105Z" fill="#20996B"/>
<path d="M151.29 674.017H280.947" stroke="#D1D2DC" stroke-width="2" stroke-miterlimit="10"/>
<path d="M231.122 612.488H318.592" stroke="#D1D2DC" stroke-width="2" stroke-miterlimit="10"/>
<path d="M226.254 870.494H210.236V864.817H224.111" stroke="#D1D2DC" stroke-width="2" stroke-miterlimit="10"/>
<path d="M111.455 766.822V760.219" stroke="#16161E" stroke-width="2" stroke-miterlimit="10"/>
<path d="M253.737 720.806V709.252C253.737 702.902 258.899 697.751 265.262 697.751C271.625 697.751 276.787 702.902 276.787 709.252V720.806" stroke="#16161E" stroke-width="2" stroke-miterlimit="10"/>
<path d="M243.902 736.404H286.622" stroke="#16161E" stroke-width="2" stroke-miterlimit="10"/>
<path d="M205.275 723.731V709.252C205.275 702.902 210.436 697.751 216.8 697.751C223.163 697.751 228.324 702.902 228.324 709.252V724.171" stroke="#16161E" stroke-width="2" stroke-miterlimit="10"/>
<path d="M195.439 736.404H238.16" stroke="#16161E" stroke-width="2" stroke-miterlimit="10"/>
<path d="M156.812 721.665V709.252C156.812 702.902 161.974 697.751 168.337 697.751C174.7 697.751 179.862 702.902 179.862 709.252V721.086" stroke="#16161E" stroke-width="2" stroke-miterlimit="10"/>
<path d="M146.977 736.404H189.697" stroke="#16161E" stroke-width="2" stroke-miterlimit="10"/>
<path d="M154.121 722.638C157.386 725.137 157.767 730.121 157.767 730.121C157.767 730.121 152.853 731.047 149.581 728.542C146.316 726.043 145.935 721.059 145.935 721.059C145.935 721.059 150.849 720.133 154.121 722.638Z" fill="#20996B"/>
<path d="M184.482 728.828C182.199 731.44 177.979 731.493 177.979 731.493C177.979 731.493 177.465 727.315 179.748 724.703C182.032 722.091 186.252 722.038 186.252 722.038C186.252 722.038 186.766 726.216 184.482 728.828Z" fill="#20996B"/>
<path d="M168.577 730.207C168.577 732.099 167.041 733.632 165.145 733.632C163.249 733.632 161.713 732.099 161.713 730.207C161.713 728.315 163.249 726.782 165.145 726.782C167.041 726.782 168.577 728.315 168.577 730.207Z" stroke="#16161E" stroke-width="2" stroke-miterlimit="10"/>
<path d="M174.927 725.103C174.927 726.469 173.819 727.575 172.45 727.575C171.081 727.575 169.973 726.469 169.973 725.103C169.973 723.737 171.081 722.631 172.45 722.631C173.819 722.631 174.927 723.737 174.927 725.103Z" stroke="#16161E" stroke-width="2" stroke-miterlimit="10"/>
<path d="M253.864 724.724C256.655 726.856 256.976 731.107 256.976 731.107C256.976 731.107 252.776 731.894 249.991 729.761C247.2 727.629 246.88 723.378 246.88 723.378C246.88 723.378 251.08 722.592 253.864 724.724Z" fill="#20996B"/>
<path d="M283.998 729.175C281.08 732.506 275.692 732.579 275.692 732.579C275.692 732.579 275.031 727.242 277.949 723.904C280.866 720.572 286.255 720.499 286.255 720.499C286.255 720.499 286.916 725.836 283.998 729.175Z" fill="#20996B"/>
<path d="M266.591 729.341C264.801 731.387 261.489 731.434 261.489 731.434C261.489 731.434 261.082 728.155 262.878 726.11C264.668 724.064 267.98 724.018 267.98 724.018C267.98 724.018 268.387 727.296 266.591 729.341Z" fill="#20996B"/>
<path d="M216.052 727.662C216.052 729.728 214.376 731.4 212.306 731.4C210.236 731.4 208.56 729.728 208.56 727.662C208.56 725.596 210.236 723.924 212.306 723.924C214.376 723.924 216.052 725.596 216.052 727.662Z" stroke="#16161E" stroke-width="2" stroke-miterlimit="10"/>
<path d="M224.532 721.372C224.532 722.865 223.323 724.071 221.827 724.071C220.332 724.071 219.123 722.865 219.123 721.372C219.123 719.88 220.332 718.674 221.827 718.674C223.323 718.674 224.532 719.88 224.532 721.372Z" fill="#20996B"/>
<path d="M208.066 727.083C207.712 727.023 207.358 726.996 206.984 726.996C203.338 726.996 200.387 729.941 200.387 733.579" stroke="#16161E" stroke-width="2" stroke-miterlimit="10"/>
<path d="M234.507 733.579C234.507 729.941 231.556 726.996 227.91 726.996C225.887 726.996 224.077 727.909 222.869 729.342C221.66 727.909 219.851 726.996 217.821 726.996C217.427 726.996 217.033 727.029 216.659 727.096" stroke="#16161E" stroke-width="2" stroke-miterlimit="10"/>
<path d="M387.941 818.142V847.406" stroke="#16161E" stroke-width="2" stroke-miterlimit="10"/>
<path d="M925.697 912.654C921.951 910.601 918.779 908.216 911.421 908.216C898.487 908.216 898.487 915.585 885.547 915.585C872.607 915.585 872.613 908.216 859.673 908.216C846.733 908.216 846.733 915.585 833.799 915.585C820.866 915.585 820.859 908.216 807.919 908.216C794.978 908.216 794.978 915.585 782.038 915.585C769.098 915.585 769.098 908.216 756.158 908.216C743.217 908.216 743.217 915.585 730.277 915.585" stroke="#CECFD8" stroke-width="2" stroke-miterlimit="10"/>
<path d="M1210.08 911.274C1206.42 913.3 1203.23 915.585 1196.03 915.585C1183.09 915.585 1183.09 908.216 1170.15 908.216C1157.21 908.216 1157.22 915.585 1144.28 915.585C1131.34 915.585 1131.35 908.216 1118.4 908.216C1105.46 908.216 1105.47 915.585 1092.53 915.585C1079.59 915.585 1079.59 908.216 1066.66 908.216C1053.72 908.216 1053.72 915.585 1040.78 915.585C1027.84 915.585 1027.84 908.216 1014.91 908.216" stroke="#CECFD8" stroke-width="2" stroke-miterlimit="10"/>
<path d="M1111.95 937.333C1099.01 937.333 1099.01 929.964 1086.07 929.964C1073.13 929.964 1073.14 937.333 1060.2 937.333C1047.26 937.333 1047.27 929.964 1034.33 929.964C1021.39 929.964 1021.39 937.333 1008.45 937.333C995.513 937.333 995.519 929.964 982.579 929.964C969.639 929.964 969.645 937.333 956.705 937.333C943.765 937.333 943.765 929.964 930.831 929.964C917.898 929.964 917.898 937.333 904.957 937.333C892.017 937.333 892.017 929.964 879.084 929.964C866.15 929.964 866.15 937.333 853.21 937.333C840.269 937.333 840.269 929.964 827.336 929.964C814.402 929.964 814.402 937.333 801.462 937.333C788.522 937.333 788.522 929.964 775.588 929.964C762.655 929.964 762.655 937.333 749.714 937.333C736.774 937.333 736.781 929.964 723.84 929.964C710.9 929.964 710.9 937.333 697.967 937.333" stroke="#16161E" stroke-width="2" stroke-miterlimit="10"/>
<path d="M1241.28 929.971C1228.34 929.971 1228.34 937.34 1215.4 937.34C1202.46 937.34 1202.47 929.971 1189.53 929.971C1176.59 929.971 1176.59 937.34 1163.66 937.34C1150.72 937.34 1150.72 929.971 1137.78 929.971C1124.85 929.971 1124.84 937.34 1111.9 937.34C1098.96 937.34 1098.96 929.971 1086.02 929.971" stroke="#16161E" stroke-width="2" stroke-miterlimit="10"/>
<path d="M1197.48 686.104C1196.5 688.656 1194 690.075 1191.9 689.275C1189.8 688.476 1188.89 685.757 1189.86 683.205C1190.84 680.653 1193.34 679.234 1195.44 680.033C1197.54 680.833 1198.45 683.552 1197.48 686.104Z" stroke="#16161E" stroke-width="2" stroke-miterlimit="10"/>
<path d="M1189.9 694.119C1185.14 710.044 1184.46 727.322 1184.46 727.322" stroke="#16161E" stroke-width="2" stroke-miterlimit="10"/>
<path d="M1193.3 730.421V721.865H1207.89V730.281" stroke="#16161E" stroke-width="2" stroke-miterlimit="10"/>
<path d="M1195.79 699.996C1195.79 699.996 1199.18 706.093 1198.96 709.711C1198.74 713.329 1197.38 718.52 1197.38 718.52" stroke="#16161E" stroke-width="2" stroke-miterlimit="10"/>
<path d="M1191.6 717.5L1193.64 694.799L1197.68 692.427C1202.09 699.883 1204.51 704.887 1204.51 709.671C1204.51 714.455 1199.07 722.205 1199.07 722.205" stroke="#16161E" stroke-width="2" stroke-miterlimit="10"/>
<path d="M902.3 683.792C902.707 686.197 901.605 688.423 899.796 689.036" stroke="#16161E" stroke-width="2" stroke-linejoin="round"/>
<path d="M897.172 683.479C897.172 683.479 893.139 687.503 894.868 695.839C896.597 704.175 892.852 705.321 889.974 704.175C887.096 703.022 885.941 696.992 889.112 690.095C892.277 683.199 891.496 680.84 893.72 678.888C896.885 676.109 901.592 677.449 902.36 682.146L897.178 683.486L897.172 683.479Z" stroke="#16161E" stroke-width="2" stroke-linejoin="round"/>
<path d="M896.45 696.846C896.45 696.846 902.006 707.827 906.58 704.942C909.317 703.216 898.467 688.37 898.467 688.37" stroke="#16161E" stroke-width="2" stroke-linejoin="round"/>
<path d="M908.496 728.03L903.702 707.62" stroke="#16161E" stroke-width="2" stroke-linejoin="round"/>
<path d="M892.277 706.181L889.239 728.269" stroke="#16161E" stroke-width="2" stroke-linejoin="round"/>
<path d="M895.015 683.479L898.754 686.35" stroke="#16161E" stroke-width="2" stroke-linejoin="round"/>
<path d="M896.597 689.229L899.909 696.846" stroke="#16161E" stroke-width="2" stroke-linejoin="round"/>
<path d="M895.636 711.071L898.901 714.709" stroke="#16161E" stroke-width="2" stroke-linejoin="round"/>
<path d="M661.362 682.446H670.837L677.08 664.582H655.119L661.362 682.446Z" stroke="#16161E" stroke-width="2" stroke-miterlimit="10"/>
<path d="M666.103 682.312V732.273" stroke="#16161E" stroke-width="2" stroke-miterlimit="10"/>
<path d="M669.382 699.777H662.818" stroke="#16161E" stroke-width="2" stroke-miterlimit="10"/>
<path d="M678.61 654.194L674.75 658.046" stroke="#16161E" stroke-width="2" stroke-miterlimit="10"/>
<path d="M653.59 654.194L657.45 658.046" stroke="#16161E" stroke-width="2" stroke-miterlimit="10"/>
<path d="M665.516 652.848V646.871" stroke="#16161E" stroke-width="2" stroke-miterlimit="10"/>
<path d="M814.182 647.091H823.657L829.9 629.227H807.932L814.182 647.091Z" stroke="#16161E" stroke-width="2" stroke-miterlimit="10"/>
<path d="M818.916 646.964V732.739" stroke="#16161E" stroke-width="2" stroke-miterlimit="10"/>
<path d="M822.201 664.429H815.637" stroke="#16161E" stroke-width="2" stroke-miterlimit="10"/>
<path d="M831.429 618.839L827.563 622.69" stroke="#16161E" stroke-width="2" stroke-miterlimit="10"/>
<path d="M806.41 618.839L810.269 622.69" stroke="#16161E" stroke-width="2" stroke-miterlimit="10"/>
<path d="M818.328 617.499V611.522" stroke="#16161E" stroke-width="2" stroke-miterlimit="10"/>
<path d="M1115.36 647.091H1124.84L1131.08 629.227H1109.12L1115.36 647.091Z" stroke="#16161E" stroke-width="2" stroke-miterlimit="10"/>
<path d="M1120.1 646.964V732.739" stroke="#16161E" stroke-width="2" stroke-miterlimit="10"/>
<path d="M1123.39 664.429H1116.82" stroke="#16161E" stroke-width="2" stroke-miterlimit="10"/>
<path d="M1132.61 618.839L1128.75 622.69" stroke="#16161E" stroke-width="2" stroke-miterlimit="10"/>
<path d="M1107.59 618.839L1111.45 622.69" stroke="#16161E" stroke-width="2" stroke-miterlimit="10"/>
<path d="M1119.51 617.499V611.522" stroke="#16161E" stroke-width="2" stroke-miterlimit="10"/>
<path d="M1269.3 683.126H1278.78L1285.02 665.269H1263.06L1269.3 683.126Z" stroke="#16161E" stroke-width="2" stroke-miterlimit="10"/>
<path d="M1274.04 682.999V732.713" stroke="#16161E" stroke-width="2" stroke-miterlimit="10"/>
<path d="M1277.32 700.464H1270.76" stroke="#16161E" stroke-width="2" stroke-miterlimit="10"/>
<path d="M1286.55 654.874L1282.69 658.725" stroke="#16161E" stroke-width="2" stroke-miterlimit="10"/>
<path d="M1261.53 654.874L1265.39 658.725" stroke="#16161E" stroke-width="2" stroke-miterlimit="10"/>
<path d="M1273.45 653.535V647.558" stroke="#16161E" stroke-width="2" stroke-miterlimit="10"/>
<path d="M574.894 750.284L504.016 793.129H643.475L574.894 750.284Z" stroke="#16161E" stroke-width="2" stroke-linejoin="round"/>
<path d="M574.894 750.284L552.853 793.129" stroke="#16161E" stroke-width="2" stroke-linejoin="round"/>
<path d="M597.309 793.128L575.268 750.284V744.887" stroke="#16161E" stroke-width="2" stroke-linejoin="round"/>
<path d="M504.317 793.128C504.317 801.557 511.167 808.387 519.607 808.387C525.483 808.387 530.584 805.075 533.142 800.218C535.699 805.068 540.8 808.387 546.676 808.387C552.552 808.387 557.654 805.075 560.211 800.218C562.768 805.068 567.87 808.387 573.745 808.387C579.621 808.387 584.723 805.075 587.28 800.218C589.837 805.068 594.939 808.387 600.814 808.387C606.69 808.387 611.792 805.075 614.349 800.218C616.906 805.068 622.008 808.387 627.884 808.387C636.33 808.387 643.174 801.557 643.174 793.128" stroke="#16161E" stroke-width="2" stroke-linejoin="round"/>
<path d="M559.81 831.849C559.81 831.849 556.492 835.16 553.173 834.954" stroke="#16161E" stroke-width="2" stroke-miterlimit="10"/>
<path d="M556.078 845.508C556.078 845.508 555.43 854.137 560.378 857.422C562.381 858.748 567.849 859.074 570.033 858.921" stroke="#16161E" stroke-width="2" stroke-miterlimit="10"/>
<path d="M552.152 840.537C549.808 845.508 547.424 853.117 545.101 858.854C541.588 867.53 548.907 869.629 553.08 870.941C556.692 872.074 563.222 874.513 563.222 874.513C560.304 883.155 557.874 895.169 557.874 895.169" stroke="#16161E" stroke-width="2" stroke-miterlimit="10"/>
<path d="M562.1 895.162C562.1 895.162 571.735 874.506 569.772 871.208C568.397 868.902 564.978 866.883 561.907 865.171C558.241 863.125 556.044 862.566 556.044 859.747" stroke="#16161E" stroke-width="2" stroke-miterlimit="10"/>
<path d="M547.25 847.5C544.64 845.581 543.812 841.869 548.212 837.618C552.612 833.36 552.358 830.602 556.078 829.369H557.112C559.289 829.369 561.052 831.875 561.052 834.96C561.052 838.045 559.289 840.55 557.112 840.55C555.851 840.55 554.729 839.71 554.008 838.404" stroke="#16161E" stroke-width="2" stroke-miterlimit="10"/>
<path d="M536.994 843.202C541.829 853.71 535.178 862.605 539.805 869.442C542.917 874.04 552.065 874.506 552.065 874.506" stroke="#16161E" stroke-width="2" stroke-miterlimit="10"/>
<path d="M546.349 874.04C546.59 894.056 539.866 896.708 539.866 896.708" stroke="#16161E" stroke-width="2" stroke-miterlimit="10"/>
<path d="M619.016 845.508C619.016 845.508 616.893 854.803 613.614 857.055C611.638 858.414 604.099 859.067 601.916 858.921" stroke="#16161E" stroke-width="2" stroke-miterlimit="10"/>
<path d="M624.278 841.79C624.278 841.79 627.423 852.225 628.685 858.855C629.746 864.458 628.431 867.79 625.286 869.416C621.787 871.221 610.763 875.413 610.763 875.413L602.564 895.042" stroke="#16161E" stroke-width="2" stroke-miterlimit="10"/>
<path d="M597.856 895.043C597.856 895.043 602.591 874.38 604.847 871.268C607.138 868.11 619.797 861.673 619.797 861.673L620.131 855.437" stroke="#16161E" stroke-width="2" stroke-miterlimit="10"/>
<path d="M619.05 840.097C618.576 840.39 618.048 840.55 617.494 840.55C615.317 840.55 613.554 838.045 613.554 834.96C613.554 831.875 614.629 829.729 617.147 829.016L617.968 828.883C623.757 828.416 625.139 831.688 625.78 833.98C626.728 837.358 625.119 839.977 621.64 839.211C619.437 838.558 621.019 835.939 620.038 833.594L613.554 833.407" stroke="#16161E" stroke-width="2" stroke-linejoin="round"/>
<path d="M635.669 843.202C630.835 853.71 637.485 862.605 632.858 869.442C629.746 874.04 620.599 874.506 620.599 874.506" stroke="#16161E" stroke-width="2" stroke-miterlimit="10"/>
<path d="M626.314 874.04C626.261 878.698 626.601 882.416 627.162 885.374" stroke="#16161E" stroke-width="2" stroke-miterlimit="10"/>
<path d="M566.574 862.785H606.924" stroke="#16161E" stroke-width="2" stroke-miterlimit="10"/>
<path d="M583.033 835.899V838.431" stroke="#16161E" stroke-width="2" stroke-miterlimit="10"/>
<path d="M586.746 831.849L587.694 833.408" stroke="#16161E" stroke-width="2" stroke-miterlimit="10"/>
<path d="M588.715 837.166L587.694 838.432" stroke="#16161E" stroke-width="2" stroke-miterlimit="10"/>
<path d="M585.944 839.971L586.893 846.621" stroke="#16161E" stroke-width="2" stroke-miterlimit="10"/>
<path d="M583.033 858.954L584.342 847.094H589.443L590.752 858.688" stroke="#16161E" stroke-width="2" stroke-miterlimit="10"/>
<path d="M582.886 868.416H590.465" stroke="#16161E" stroke-width="2" stroke-miterlimit="10"/>
<path d="M586.746 868.416V895.042" stroke="#16161E" stroke-width="2" stroke-miterlimit="10"/>
<path d="M575.268 808.394V854.077" stroke="#16161E" stroke-width="2" stroke-miterlimit="10"/>
<path d="M356.171 749.678L285.801 792.222H424.271L356.171 749.678Z" stroke="#16161E" stroke-width="2" stroke-linejoin="round"/>
<path d="M356.171 749.678L334.29 792.222" stroke="#16161E" stroke-width="2" stroke-linejoin="round"/>
<path d="M378.426 792.223L356.539 749.678V744.414" stroke="#16161E" stroke-width="2" stroke-linejoin="round"/>
<path d="M286.095 792.223C286.095 800.592 292.892 807.375 301.278 807.375C307.114 807.375 312.176 804.083 314.72 799.266C317.264 804.083 322.325 807.375 328.154 807.375C333.983 807.375 339.051 804.083 341.595 799.266C344.139 804.083 349.2 807.375 355.029 807.375C360.858 807.375 365.926 804.083 368.47 799.266C371.014 804.083 376.076 807.375 381.905 807.375C387.734 807.375 392.802 804.083 395.346 799.266C397.89 804.083 402.951 807.375 408.78 807.375C417.167 807.375 423.964 800.592 423.964 792.223" stroke="#16161E" stroke-width="2" stroke-linejoin="round"/>
<path d="M384.242 893.637V869.969H403.512V845.295" stroke="#16161E" stroke-width="2" stroke-linejoin="round"/>
<path d="M333.382 893.637V869.969H314.105V845.295" stroke="#16161E" stroke-width="2" stroke-linejoin="round"/>
<path d="M395.633 875.386L401.455 893.396" stroke="#16161E" stroke-width="2" stroke-linejoin="round"/>
<path d="M322.058 875.386L316.229 893.396" stroke="#16161E" stroke-width="2" stroke-linejoin="round"/>
<path d="M374.326 835.68L376.523 842.283" stroke="#16161E" stroke-width="2" stroke-miterlimit="10"/>
<path d="M372.69 854.524L373.992 842.75H379.054L380.356 854.257" stroke="#16161E" stroke-width="2" stroke-miterlimit="10"/>
<path d="M324.782 858.328H388.301" stroke="#16161E" stroke-width="2" stroke-miterlimit="10"/>
<path d="M352.712 863.919H360.231" stroke="#16161E" stroke-width="2" stroke-miterlimit="10"/>
<path d="M356.545 863.919V890.359" stroke="#16161E" stroke-width="2" stroke-miterlimit="10"/>
<path d="M356.539 807.375V852.738" stroke="#16161E" stroke-width="2" stroke-miterlimit="10"/>
<path d="M375.896 841.131L381.431 829.49" stroke="#16161E" stroke-width="2" stroke-miterlimit="10"/>
<path d="M378.426 834.488L373.372 830.057" stroke="#16161E" stroke-width="2" stroke-miterlimit="10"/>
<path d="M553.08 763.23H393.116" stroke="#16161E" stroke-width="2" stroke-miterlimit="10"/>
<path d="M684.118 763.23H595.62" stroke="#16161E" stroke-width="2" stroke-miterlimit="10"/>
<path d="M693.873 788.817C691.363 792.575 691.423 797.666 694.381 801.411C697.339 805.149 702.286 806.395 706.533 804.836L693.873 788.817Z" fill="#CECFD8"/>
<path d="M1257.63 814.65C1255.12 818.408 1255.18 823.499 1258.14 827.244C1261.1 830.982 1266.04 832.228 1270.29 830.669L1257.63 814.65Z" fill="#CECFD8"/>
<path d="M541.735 833.881C538.851 830.402 533.943 828.99 529.503 830.742C525.062 832.488 522.445 836.859 522.719 841.37L541.735 833.881Z" fill="#20996B"/>
<path d="M1333.84 796.08C1330.95 792.602 1326.04 791.189 1321.6 792.941C1317.16 794.687 1314.55 799.058 1314.82 803.569L1333.84 796.08Z" fill="#20996B"/>
<path d="M1342.79 700.376C1343.06 700.343 1343.33 700.276 1343.6 700.176C1345.27 699.536 1346.19 697.684 1345.99 695.665" stroke="#16161E" stroke-width="2" stroke-miterlimit="10"/>
<path d="M1346.38 740.788L1347.73 763.063" stroke="#16161E" stroke-width="2" stroke-miterlimit="10"/>
<path d="M1336.35 746.006L1320.42 763.064" stroke="#16161E" stroke-width="2" stroke-miterlimit="10"/>
<path d="M1335.2 707.945C1332.49 712.956 1331.04 716.794 1331.04 720.492C1331.04 724.19 1334.7 729.034 1336.5 731.247C1337 731.866 1337.94 731.893 1338.48 731.307C1338.87 730.887 1338.94 730.274 1338.66 729.774C1337.66 728.015 1335.42 723.804 1335.25 721.019C1335.02 717.42 1338.04 712.41 1338.04 712.41" stroke="#16161E" stroke-width="2" stroke-miterlimit="10"/>
<path d="M1329.12 722.132H1327.17V736.011H1349.43V722.132H1339.42" stroke="#16161E" stroke-width="2" stroke-miterlimit="10"/>
<path d="M1343.45 721.579C1343.45 721.579 1342.98 713.496 1340.42 708.032" stroke="#16161E" stroke-width="2" stroke-miterlimit="10"/>
<path d="M1344.98 762.664L1341.64 740.735" stroke="#16161E" stroke-width="2" stroke-miterlimit="10"/>
<path d="M1320.22 758.779L1333.3 741.568" stroke="#16161E" stroke-width="2" stroke-miterlimit="10"/>
<path d="M1326.42 743.327C1327.96 741.402 1330.91 740.762 1333.11 741.881C1334.2 742.434 1335.14 743.367 1336.35 743.554C1339.08 743.967 1340.97 740.442 1343.72 740.215C1345.19 740.096 1346.55 740.948 1347.88 741.588C1349.22 742.228 1350.94 742.621 1352.1 741.701" stroke="#16161E" stroke-width="2" stroke-miterlimit="10"/>
<path d="M1332.18 706.033C1330.24 704.481 1329.44 701.869 1332.04 699.09C1334.64 696.312 1335.05 692.147 1336.17 690.668C1337.28 689.189 1339.28 687.616 1341.92 687.983C1345.58 688.489 1348.17 692.84 1345.81 694.226C1343.7 695.465 1339.64 693.993 1339.27 696.725C1338.9 699.457 1343.02 704.501 1338.86 706.859C1336.22 708.352 1333.11 706.766 1332.18 706.026V706.033Z" stroke="#16161E" stroke-width="2" stroke-miterlimit="10"/>
<path d="M1342.76 704.92C1343.04 708.391 1345.96 711.05 1346.38 713.249C1346.79 715.468 1345.68 718.106 1345.54 720.465" stroke="#16161E" stroke-width="2" stroke-miterlimit="10"/>
<path d="M1488.49 884.435V897.468" stroke="#16161E" stroke-width="2" stroke-miterlimit="10"/>
<path d="M1429.7 857.262H1483.18C1485.91 857.262 1488.13 859.474 1488.13 862.199V877.611" stroke="#16161E" stroke-width="2" stroke-miterlimit="10"/>
<path d="M1435.08 877.611H1497.16V884.188H1437.09" stroke="#16161E" stroke-width="2" stroke-miterlimit="10"/>
<path d="M529.63 896.841C529.643 896.748 529.663 896.661 529.663 896.568C530.371 896.648 531.125 896.421 531.659 895.728C534.691 891.764 536.42 885.614 531.853 881.976C530.778 881.116 529.63 880.809 528.287 880.583C526.945 880.356 525.703 880.45 525.016 879.09C524.027 877.131 524.522 874.353 524.708 872.274C525.617 862.106 520.422 848.833 508.784 847.567C503.622 847.007 499.442 850.079 497.452 854.683C495.403 859.407 495.716 864.724 493.747 869.455C492.692 871.987 490.902 874.273 487.971 874.506C484.839 874.753 481.841 873.033 478.803 872.56C473.976 871.814 469.295 873.493 468.1 878.557C467.713 880.196 467.492 881.336 465.776 881.922C464.321 882.422 462.678 882.369 461.156 882.402C458.385 882.469 455.794 882.822 453.223 883.901C448.229 886 444.196 890.305 444.276 895.955C444.276 896.255 444.369 896.555 444.503 896.834H529.616L529.63 896.841Z" fill="#20996B"/>
<path d="M506.767 896.041L511.161 881.302L514.152 869.948" stroke="#16161E" stroke-width="2" stroke-miterlimit="10"/>
<path d="M510.76 880.503L506.173 868.355" stroke="#16161E" stroke-width="2" stroke-miterlimit="10"/>
<path d="M654.659 819.361C653.964 823.419 655.894 827.63 659.74 829.656C663.586 831.682 668.16 830.889 671.124 828.024L654.659 819.361Z" fill="#20996B"/>
<path d="M1305.97 842.789C1305.27 846.847 1307.2 851.058 1311.05 853.084C1314.89 855.109 1319.47 854.316 1322.43 851.451L1305.97 842.789Z" fill="#20996B"/>
<path d="M1875.44 862.525C1874.33 865.85 1875.42 869.642 1878.4 871.834C1881.37 874.026 1885.33 873.946 1888.18 871.914L1875.44 862.525H1875.44Z" fill="#D1D2DC"/>
<path d="M440.429 758.508C445.119 752.895 444.361 744.55 438.736 739.87C433.111 735.19 424.749 735.946 420.059 741.56C415.369 747.173 416.127 755.518 421.752 760.198C427.377 764.878 435.739 764.122 440.429 758.508Z" stroke="#16161E" stroke-width="2" stroke-miterlimit="10"/>
<path d="M475.605 762.257C482.371 759.46 485.584 751.719 482.782 744.967C479.979 738.215 472.222 735.008 465.456 737.805C458.689 740.602 455.476 748.343 458.279 755.095C461.082 761.847 468.839 765.054 475.605 762.257Z" stroke="#16161E" stroke-width="2" stroke-miterlimit="10"/>
<path d="M430.247 750.031L439.448 724.744C439.448 724.744 437.892 722.412 437.892 720.28C437.892 718.148 440.617 717.368 440.617 717.368" stroke="#16161E" stroke-width="2" stroke-miterlimit="10"/>
<path d="M437.118 731.827C441.204 734.739 444.85 735.905 449.951 747.252C451.12 749.871 452.282 752.69 457.343 753.076L470.53 750.031" stroke="#16161E" stroke-width="2" stroke-miterlimit="10"/>
<path d="M457.824 706.353C457.824 708.525 456.582 710.284 455.053 710.284C453.524 710.284 452.282 708.525 452.282 706.353C452.282 704.181 453.524 702.422 455.053 702.422C456.582 702.422 457.824 704.181 457.824 706.353Z" stroke="#16161E" stroke-width="2" stroke-miterlimit="10"/>
<path d="M453.156 704.175C453.156 704.175 455.487 706.5 457.824 706.36" stroke="#16161E" stroke-width="2" stroke-miterlimit="10"/>
<path d="M456.949 702.422C456.949 702.422 458.405 701.549 460.161 703.002C461.91 704.454 461.91 708.239 464.828 708.239" stroke="#16161E" stroke-width="2" stroke-miterlimit="10"/>
<path d="M455.64 713.776C455.64 713.776 455.2 719.747 451.554 721.779C448.937 723.238 444.449 722.112 442.366 721.486" stroke="#16161E" stroke-width="2" stroke-miterlimit="10"/>
<path d="M457.824 711.157C462.932 712.61 466.39 719.28 467.452 723.384C469.782 732.406 453.45 732.993 453.45 732.993L454.906 746.386" stroke="#16161E" stroke-width="2" stroke-miterlimit="10"/>
<path d="M451.407 742.015C451.407 742.015 446.159 732.699 448.489 729.494C450.819 726.289 459.867 724.837 459.867 724.837" stroke="#16161E" stroke-width="2" stroke-miterlimit="10"/>
<path d="M1231.88 763.064H1519.46" stroke="#16161E" stroke-width="2" stroke-miterlimit="10"/>
<path d="M1477.79 714.176C1494.61 714.176 1508.25 693.711 1508.25 668.466C1508.25 643.222 1494.61 622.757 1477.79 622.757C1460.98 622.757 1447.34 643.222 1447.34 668.466C1447.34 693.711 1460.98 714.176 1477.79 714.176Z" fill="#20996B"/>
<path d="M1477.14 762.664V689.556" stroke="#16161E" stroke-width="2" stroke-miterlimit="10"/>
<path d="M1455.55 704.881C1450.92 710.425 1444.88 713.783 1438.26 713.783C1423.69 713.783 1411.87 697.505 1411.87 677.429C1411.87 657.352 1423.68 641.074 1438.26 641.074C1441.91 641.074 1445.37 642.094 1448.53 643.933" stroke="#16161E" stroke-width="2" stroke-miterlimit="10"/>
<path d="M1437.69 732.74V698.951" stroke="#16161E" stroke-width="2" stroke-miterlimit="10"/>
<path d="M1416.61 825.605C1413.97 826.031 1412.3 825.605 1411.95 821.4L1411.87 818.462" stroke="#16161E" stroke-width="2" stroke-linejoin="round"/>
<path d="M1410.01 872.008L1402.66 896.329" stroke="#16161E" stroke-width="2" stroke-linejoin="round"/>
<path d="M1436.14 895.542L1426.2 874.06" stroke="#16161E" stroke-width="2" stroke-linejoin="round"/>
<path d="M1417.45 818.635L1411.87 818.242C1411.87 816.79 1413.18 813.678 1417.31 813.225C1424.22 812.465 1425.76 824.506 1425.76 824.506L1419.62 826.758L1417.45 818.635H1417.45Z" stroke="#16161E" stroke-width="2" stroke-linejoin="round"/>
<path d="M1418.31 831.429C1417.5 832.408 1416.61 834.121 1415.98 837.119L1414.69 844.509L1404.33 850.985" stroke="#16161E" stroke-width="2" stroke-linejoin="round"/>
<path d="M1422.41 828.75C1423.94 833.807 1422.81 838.705 1422.81 846.414L1427.58 871.628H1405.65L1412.07 850.192" stroke="#16161E" stroke-width="2" stroke-linejoin="round"/>
<path d="M1414.31 832.335C1414.31 832.335 1411.06 835.727 1410.42 837.552C1410.42 837.552 1411.23 839.744 1412.37 841.217" stroke="#16161E" stroke-width="2" stroke-linejoin="round"/>
<path d="M1358.54 894.676L1358.77 890.384L1363.01 884.461L1359.92 877.365L1357.18 875.139C1357.18 875.139 1352.94 875.266 1351.28 874.719C1349.63 874.173 1349.83 871.874 1349.83 871.874L1353.87 871.008L1354.95 869.016L1357.72 867.996L1359.87 872.4" stroke="#16161E" stroke-width="2" stroke-linejoin="round"/>
<path d="M1362.11 870.202L1366.27 873.614L1385.92 877.252C1389.56 879.731 1390 885.834 1391.78 888.206" stroke="#16161E" stroke-width="2" stroke-linejoin="round"/>
<path d="M1365.79 884.801C1374.12 884.801 1377.24 881.536 1381.6 881.956C1381.6 881.956 1383.85 889.006 1389.4 891.578V897.428" stroke="#16161E" stroke-width="2" stroke-linejoin="round"/>
<path d="M1367.64 889.799L1368.93 897.155" stroke="#16161E" stroke-width="2" stroke-linejoin="round"/>
<path d="M1382.32 889.799L1380.87 895.543" stroke="#16161E" stroke-width="2" stroke-linejoin="round"/>
<path d="M1385.92 877.252C1385.92 877.252 1389.52 877.252 1389.4 872.008" stroke="#16161E" stroke-width="2" stroke-linejoin="round"/>
<path d="M1359.92 877.365L1366.27 873.613C1366.27 873.613 1385.92 867.989 1402.66 852.364" stroke="#16161E" stroke-width="2" stroke-linejoin="round"/>
<path d="M1422.81 846.407H1417.63" stroke="#16161E" stroke-width="2" stroke-linejoin="round"/>
<path d="M1688.54 897.547C1686.64 891.997 1681.38 887.992 1675.17 887.992C1674.47 887.992 1673.78 888.059 1673.11 888.159C1671.66 875.645 1661.01 865.924 1648.07 865.924C1637.62 865.924 1628.66 872.274 1624.84 881.309C1621.31 878.191 1616.67 876.292 1611.58 876.292C1606.83 876.292 1602.46 877.951 1599.02 880.716C1594.91 874.006 1587.51 869.522 1579.05 869.522C1566.13 869.522 1555.65 879.977 1555.65 892.87C1555.65 894.469 1555.81 896.028 1556.12 897.541H1688.54V897.547Z" fill="#20996B"/>
<path d="M1924 931.01H1260.6" stroke="#16161E" stroke-width="2" stroke-miterlimit="10"/>
<path d="M35.8093 897.268H678.609L690.254 908.888V929.971" stroke="#16161E" stroke-width="2" stroke-miterlimit="10"/>
<path d="M0 930.73H678.61" stroke="#16161E" stroke-width="2" stroke-miterlimit="10"/>
<path d="M1885.91 897.548H1260.6L1250.53 907.596V929.971" stroke="#16161E" stroke-width="2" stroke-miterlimit="10"/>
<path d="M1234.2 578.919C1251.49 578.919 1265.51 564.931 1265.51 547.675C1265.51 530.42 1251.49 516.432 1234.2 516.432C1216.91 516.432 1202.89 530.42 1202.89 547.675C1202.89 564.931 1216.91 578.919 1234.2 578.919Z" fill="#20996B"/>
<path d="M1238.47 606.165H1229.93L1227.28 593.765H1241.12L1238.47 606.165Z" stroke="#16161E" stroke-width="2" stroke-miterlimit="10"/>
<path d="M1252.37 570.363L1241.12 593.764" stroke="#16161E" stroke-width="2" stroke-miterlimit="10"/>
<path d="M1227.28 593.764L1216.03 570.363" stroke="#16161E" stroke-width="2" stroke-miterlimit="10"/>
<path d="M1226.88 570.363L1230.75 593.764" stroke="#16161E" stroke-width="2" stroke-miterlimit="10"/>
<path d="M1241.24 570.363L1237.37 593.764" stroke="#16161E" stroke-width="2" stroke-miterlimit="10"/>
<path d="M238.019 860.607C241.632 864.212 240.41 871.275 240.41 871.275C240.41 871.275 233.332 872.495 229.72 868.89C226.107 865.285 227.329 858.222 227.329 858.222C227.329 858.222 234.407 857.003 238.019 860.607Z" fill="#20996B"/>
<path d="M266.551 856.596C268.914 854.237 273.542 855.037 273.542 855.037C273.542 855.037 274.343 859.654 271.979 862.013C269.615 864.372 264.988 863.572 264.988 863.572C264.988 863.572 264.187 858.955 266.551 856.596Z" fill="#20996B"/>
<path d="M290.041 862.646C292.405 860.287 297.032 861.087 297.032 861.087C297.032 861.087 297.833 865.704 295.469 868.063C293.106 870.422 288.478 869.622 288.478 869.622C288.478 869.622 287.677 865.005 290.041 862.646Z" fill="#20996B"/>
<path d="M226.114 897.268L223.036 878.045H302.747L299.669 897.268" stroke="#16161E" stroke-width="2" stroke-linejoin="round"/>
<path d="M245.184 856.029L243.401 859.301" stroke="#16161E" stroke-width="2" stroke-linejoin="round"/>
<path d="M251.414 859.301L253.49 860.96" stroke="#16161E" stroke-width="2" stroke-linejoin="round"/>
<path d="M277.955 863.699L279.865 860.96" stroke="#16161E" stroke-width="2" stroke-linejoin="round"/>
<path d="M246.96 865.352H250.225" stroke="#16161E" stroke-width="2" stroke-linejoin="round"/>
<path d="M273.668 868.583H277.955" stroke="#16161E" stroke-width="2" stroke-linejoin="round"/>
<path d="M256.161 864.745L258.832 878.045" stroke="#16161E" stroke-width="2" stroke-linejoin="round"/>
<path d="M267.058 867.384V878.045" stroke="#16161E" stroke-width="2" stroke-linejoin="round"/>
<path d="M283.257 868.583L284.646 878.045" stroke="#16161E" stroke-width="2" stroke-linejoin="round"/>
<path d="M243.408 889.925L249.731 885.388L256.054 889.925L262.371 885.388L268.694 889.925L275.011 885.388L281.334 889.925" stroke="#D1D2DC" stroke-width="2" stroke-miterlimit="10"/>
<path d="M604.961 711.95C604.961 711.95 606.35 714.702 606.056 716.828" stroke="#16161E" stroke-width="2" stroke-linejoin="round"/>
<path d="M601.789 714.976L604.961 711.951C604.961 711.951 601.355 707.566 598.751 711.898C596.474 715.689 599.98 718.401 599.98 718.401" stroke="#16161E" stroke-width="2" stroke-linejoin="round"/>
<path d="M601.402 721.219L611.992 715.515L618.709 705.44" stroke="#16161E" stroke-width="2" stroke-linejoin="round"/>
<path d="M605.529 740.603L604.126 747.332L596.708 746.3L598.17 739.703L599.419 734.546C599.419 734.546 598.424 725.87 598.785 723.698C599.145 721.526 599.96 720.26 599.96 720.26" stroke="#16161E" stroke-width="2" stroke-linejoin="round"/>
<path d="M610.824 745.959C610.824 745.959 609.555 738.27 608.653 734.552H602.07" stroke="#16161E" stroke-width="2" stroke-linejoin="round"/>
<path d="M600.14 747.099L598.544 762.89" stroke="#16161E" stroke-width="2" stroke-linejoin="round"/>
<path d="M604.487 760.345L608.473 749.897L607.885 746.806" stroke="#16161E" stroke-width="2" stroke-linejoin="round"/>
<path d="M608.92 732.259L609.4 724.224C609.4 724.224 609.64 720.692 608.92 720.266" stroke="#16161E" stroke-width="2" stroke-linejoin="round"/>
<path d="M610.229 721.472L617.033 716.762L617.307 710.465" stroke="#16161E" stroke-width="2" stroke-linejoin="round"/>
<path d="M656.248 675.13C654.639 675.416 653.029 675.73 651.427 676.069C643.254 677.789 634.727 680.854 629.272 687.497C627.129 690.109 623.416 695.733 620.298 701.736" stroke="#CECFD8" stroke-width="2" stroke-miterlimit="10"/>
<path d="M815.31 584.35C800.12 592.032 784.702 599.888 771.996 611.402C760.551 621.777 752.045 634.83 741.314 645.878C729.563 657.978 715.26 664.868 698.901 668.539C691.697 670.152 684.392 671.178 677.081 672.131" stroke="#CECFD8" stroke-width="2" stroke-miterlimit="10"/>
<path d="M814.135 590.334L862.311 550.041L845.745 511.468L807.097 527.999L814.135 590.334Z" fill="#20996B"/>
<path d="M804.801 527.047L834.727 539.021L846.947 508.656" stroke="white" stroke-width="2" stroke-linejoin="round"/>
<path d="M864.574 550.948L834.701 539.021L814.135 590.334" stroke="white" stroke-width="2" stroke-linejoin="round"/>
<path d="M1353.44 751.183H1375.67" stroke="#16161E" stroke-width="2" stroke-miterlimit="10"/>
<path d="M1333.6 686.097V675.862" stroke="#16161E" stroke-width="2" stroke-miterlimit="10"/>
<path d="M1406.14 675.862H1322.97V664.455H1406.14" stroke="#16161E" stroke-width="2" stroke-miterlimit="10"/>
<path d="M1333.6 664.455V630.299L1340.53 623.376V436.173H1367.72V417.529H1389.6V436.173H1415.31" stroke="#16161E" stroke-width="2" stroke-miterlimit="10"/>
<path d="M1529.58 537.214V436.173H1502.4V417.529H1441.01V436.173H1415.31" stroke="#16161E" stroke-width="2" stroke-miterlimit="10"/>
<path d="M1578.24 516.291V436.173H1551.06V417.529H1506.47" stroke="#16161E" stroke-width="2" stroke-miterlimit="10"/>
<path d="M1330.36 449.52H1585.18" stroke="#16161E" stroke-width="2" stroke-miterlimit="10"/>
<path d="M1372.25 473.606H1360.04V485.793H1372.25V473.606Z" fill="#D1D2DC"/>
<path d="M1405.8 473.606H1393.59V485.793H1405.8V473.606Z" fill="#D1D2DC"/>
<path d="M1439.35 473.606H1427.14V485.793H1439.35V473.606Z" fill="#D1D2DC"/>
<path d="M1472.91 473.606H1460.69V485.793H1472.91V473.606Z" fill="#D1D2DC"/>
<path d="M1506.46 473.606H1494.25V485.793H1506.46V473.606Z" fill="#D1D2DC"/>
<path d="M1372.25 512.134H1360.04V524.321H1372.25V512.134Z" fill="#D1D2DC"/>
<path d="M1439.35 512.134H1427.14V524.321H1439.35V512.134Z" fill="#D1D2DC"/>
<path d="M1472.91 512.134H1460.69V524.321H1472.91V512.134Z" fill="#D1D2DC"/>
<path d="M1506.46 512.134H1494.25V524.321H1506.46V512.134Z" fill="#D1D2DC"/>
<path d="M1372.25 550.66H1360.04V562.847H1372.25V550.66Z" fill="#D1D2DC"/>
<path d="M1439.35 550.66H1427.14V562.847H1439.35V550.66Z" fill="#D1D2DC"/>
<path d="M1472.91 550.66H1460.69V562.847H1472.91V550.66Z" fill="#D1D2DC"/>
<path d="M1506.46 550.66H1494.25V562.847H1506.46V550.66Z" fill="#D1D2DC"/>
<path d="M1551.06 436.173H1529.58" stroke="#16161E" stroke-width="2" stroke-miterlimit="10"/>
<path d="M1389.6 417.529H1398.56V436.173" stroke="#16161E" stroke-width="2" stroke-miterlimit="10"/>
<path d="M1418.55 597.136H1399.04V603.333H1379.54V597.136H1360.04" stroke="#CECFD8" stroke-width="2" stroke-miterlimit="10"/>
<path d="M1500.46 597.136H1480.95V603.333H1461.45V597.136H1441.95" stroke="#CECFD8" stroke-width="2" stroke-miterlimit="10"/>
</g>
<defs>
<radialGradient id="paint0_radial_1714_6710" cx="0" cy="0" r="1" gradientUnits="userSpaceOnUse" gradientTransform="translate(147.5 193.381) rotate(28.6105) scale(1996.82 2226.6)">
<stop stop-color="#FF9900"/>
<stop offset="0.125" stop-color="white" stop-opacity="0.325"/>
<stop offset="0.25" stop-color="white" stop-opacity="0"/>
<stop offset="0.375" stop-color="white" stop-opacity="0.135"/>
<stop offset="0.5" stop-color="white" stop-opacity="0.85"/>
<stop offset="0.625" stop-color="white" stop-opacity="0.684118"/>
<stop offset="0.75" stop-color="white" stop-opacity="0.638351"/>
<stop offset="0.875" stop-color="white" stop-opacity="0.615"/>
<stop offset="1" stop-color="white"/>
</radialGradient>
<clipPath id="clip0_1714_6710">
<rect width="1924" height="566" fill="white" transform="translate(0 372)"/>
</clipPath>
</defs>
</svg>
