<svg width="38" height="38" viewBox="0 0 38 38" fill="none" xmlns="http://www.w3.org/2000/svg">
<path d="M38 38V10C38 4.47715 33.5228 0 28 0H0L38 38Z" fill="#FFF5E0"/>
<path fill-rule="evenodd" clip-rule="evenodd" d="M24.6867 5.50321C26.8882 5.24763 29.1118 5.24763 31.3133 5.50321C32.1866 5.60471 32.8125 6.35487 32.8125 7.21237V16.25C32.8124 16.3245 32.7933 16.3977 32.7569 16.4627C32.7206 16.5278 32.6683 16.5825 32.6049 16.6216C32.5415 16.6607 32.4691 16.6831 32.3947 16.6864C32.3203 16.6898 32.2462 16.6741 32.1796 16.6408L28 14.5519L23.8204 16.642C23.7537 16.6753 23.6795 16.691 23.605 16.6876C23.5305 16.6842 23.4581 16.6617 23.3946 16.6225C23.3312 16.5832 23.2789 16.5283 23.2426 16.4631C23.2064 16.3979 23.1874 16.3246 23.1875 16.25V7.21237C23.1875 6.35487 23.8134 5.60471 24.6867 5.50321Z" fill="#3CB98A"/>
</svg>
