<svg width="50" height="42" viewBox="0 0 50 42" fill="none" xmlns="http://www.w3.org/2000/svg">
<path d="M15.234 39.5156C14.9215 39.2812 14.5309 39.0469 14.2184 38.8906C14.2965 38.2656 14.2184 37.5625 14.0622 36.8594C13.7497 35.6875 13.1247 34.5937 12.2653 33.5781C11.484 34.2031 11.0934 35.2969 11.2497 36.4688C10.7028 35.9219 10.1559 35.375 9.68716 34.8281C9.99966 34.2812 10.1559 33.5781 10.1559 32.875C10.234 31.7031 9.99967 30.5312 9.45279 29.3594C8.43717 29.75 7.81216 30.7656 7.65591 31.9375C7.26529 31.3125 6.95279 30.6094 6.64029 29.9844C7.10904 29.5156 7.49966 28.8906 7.73404 28.1875C8.12466 27.0938 8.20279 25.9219 7.96841 24.6719C6.87466 24.8281 5.93716 25.6094 5.46841 26.7812C5.23404 26 5.07779 25.2969 4.99966 24.5156C5.62466 24.2031 6.17154 23.6562 6.56216 23.0312C7.18716 22.0938 7.65591 20.9219 7.73404 19.6719C6.56216 19.5156 5.39029 20.1406 4.68716 21.2344C4.68716 20.4531 4.76529 19.5938 4.84341 18.8125C5.54654 18.6562 6.24966 18.2656 6.87466 17.7969C7.73404 17.0938 8.43716 16.0781 8.90591 14.9063C7.81216 14.4375 6.48404 14.75 5.46841 15.6875C5.70279 14.9063 5.93716 14.0469 6.24966 13.2656C7.03091 13.3438 7.81216 13.1094 8.51529 12.7969C9.53091 12.3281 10.4684 11.5469 11.2497 10.4531C10.3122 9.67188 8.90592 9.67188 7.65591 10.375C8.12466 9.59375 8.59341 8.89063 9.14029 8.1875C9.84341 8.5 10.7028 8.5 11.5622 8.34375C12.734 8.10937 13.9059 7.64062 14.9997 6.78125C14.2965 5.76562 12.8903 5.375 11.4059 5.76562C12.4997 4.75 13.6715 3.8125 15.0778 3.03125C15.4684 2.79688 15.6247 2.32812 15.3903 1.9375C15.1559 1.54687 14.609 1.39062 14.2184 1.625C12.734 2.48437 11.4059 3.5 10.234 4.59375C10.859 3.03125 10.9372 1.625 10.234 0.53125C8.82779 1.46875 7.81216 3.03125 7.57779 4.35938C7.34341 5.375 7.49966 6.23438 7.96841 6.9375C7.34341 7.71875 6.79654 8.57813 6.32779 9.35938C6.48404 7.71875 6.09341 6.3125 5.15591 5.53125C4.06216 7.01562 3.59341 8.73438 3.74966 10.0625C3.82779 11.0781 4.21841 11.8594 4.84341 12.4062C4.45279 13.3438 4.14029 14.2031 3.90591 15.1406C3.59341 13.5781 2.89029 12.3281 1.71841 11.7813C1.09341 13.5 1.09341 15.2188 1.56216 16.4688C1.95279 17.4062 2.49966 18.0312 3.28091 18.4219C3.12466 19.3594 3.12466 20.2969 3.12466 21.2344C2.42154 19.8281 1.40591 18.8906 0.155914 18.7344C-0.000335678 20.5312 0.468414 22.1719 1.24966 23.2656C1.79654 24.0469 2.57779 24.5156 3.35904 24.6719C3.43716 25.6094 3.67154 26.4687 3.82779 27.3281C2.81216 26.2344 1.64029 25.6094 0.390289 25.7656C0.702789 27.5625 1.56216 29.0469 2.65591 29.8281C3.35904 30.4531 4.21841 30.6875 4.92154 30.6094C5.23404 31.3906 5.62466 32.25 6.01529 32.9531C4.68716 32.4062 3.43716 32.0937 2.34341 32.5625C3.12466 34.2031 4.37466 35.4531 5.62466 36C6.48404 36.3906 7.26529 36.3906 7.96841 36.2344C8.51529 36.9375 9.06216 37.5625 9.68716 38.1875C8.35904 37.875 7.18716 37.9531 6.32779 38.6562C7.57779 40.0625 9.21842 40.9219 10.6247 41.1562C11.484 41.3125 12.2653 41.1562 12.8903 40.8438C13.2028 41.0781 13.5934 41.3125 13.9059 41.5469C14.5309 41.9375 15.3122 41.7031 15.6247 41.0781C15.9372 40.5312 15.7809 39.8281 15.234 39.5156ZM46.3278 27.3281C46.5622 26.4687 46.7184 25.5312 46.7965 24.6719C47.5778 24.5156 48.2809 24.0469 48.9059 23.2656C49.6872 22.1719 50.1559 20.5312 49.9997 18.7344C48.7497 18.8906 47.734 19.9062 47.0309 21.2344C47.0309 20.2969 46.9528 19.3594 46.8747 18.4219C47.5778 18.1094 48.2028 17.4062 48.5934 16.4688C49.0622 15.2188 49.1403 13.5 48.4372 11.7813C47.2653 12.3281 46.5622 13.5781 46.2497 15.1406C46.0153 14.2031 45.7028 13.2656 45.3122 12.4062C45.9372 11.8594 46.3278 11.0781 46.4059 10.0625C46.5622 8.73438 46.0934 7.01562 44.9997 5.53125C43.984 6.3125 43.6715 7.79688 43.8278 9.35938C43.2028 8.5 42.6559 7.71875 42.0309 6.9375C42.4997 6.3125 42.6559 5.375 42.4215 4.35938C42.1872 3.03125 41.1715 1.46875 39.609 0.21875C38.9059 1.23438 38.984 2.71875 39.609 4.28125C38.4372 3.1875 37.109 2.17188 35.6247 1.3125C35.234 1.07813 34.6872 1.23437 34.4528 1.625C34.2184 2.01562 34.3747 2.48438 34.7653 2.71875C36.0934 3.5 37.3434 4.4375 38.4372 5.45312C36.9528 5.0625 35.5465 5.45312 34.8434 6.46875C35.9372 7.32812 37.109 7.79688 38.2809 8.03125C39.1403 8.1875 39.9997 8.1875 40.7028 7.875C41.2497 8.57812 41.7965 9.35938 42.1872 10.0625C40.9372 9.35938 39.5309 9.35938 38.5934 10.1406C39.3747 11.1563 40.3122 12.0156 41.3278 12.4844C42.109 12.875 42.8903 13.0313 43.5934 12.9531C43.9059 13.7344 44.1403 14.5156 44.3747 15.375C43.359 14.4375 42.0309 14.125 40.9372 14.5938C41.4059 15.7656 42.109 16.7812 42.9684 17.4844C43.5934 18.0312 44.2965 18.3438 44.9997 18.5C45.0778 19.2812 45.1559 20.1406 45.1559 20.9219C44.4528 19.8281 43.2809 19.2031 42.109 19.3594C42.2653 20.6094 42.6559 21.7812 43.2809 22.7188C43.6715 23.3438 44.2184 23.8906 44.8434 24.2031C44.6872 24.9844 44.5309 25.6875 44.3747 26.4687C43.9059 25.2969 43.0465 24.4375 41.8747 24.3594C41.6403 25.6094 41.7965 26.8594 42.109 27.875C42.3434 28.5781 42.6559 29.2031 43.2028 29.6719C42.8903 30.375 42.5778 31 42.1872 31.625C42.0309 30.4531 41.4059 29.4375 40.3903 29.0469C39.8434 30.2187 39.609 31.3906 39.6872 32.5625C39.6872 33.2656 39.8434 33.9688 40.1559 34.5156C39.6872 35.0625 39.1403 35.6094 38.5934 36.1562C38.7497 34.9844 38.4372 33.8906 37.5778 33.2656C36.7184 34.2812 36.0934 35.375 35.7809 36.5469C35.6247 37.25 35.5465 37.9531 35.6247 38.5781C35.3122 38.8125 34.9997 39.0469 34.609 39.2031C34.0622 39.5156 33.9059 40.2188 34.1403 40.7656C34.4528 41.3906 35.234 41.625 35.859 41.2344C36.2497 41 36.5622 40.7656 36.8747 40.5312C37.4997 40.8438 38.2809 41 39.1403 40.8438C40.5465 40.6094 42.1872 39.75 43.4372 38.3438C42.5778 37.6406 41.4059 37.5625 40.0778 37.875C40.7028 37.25 41.2497 36.625 41.7965 35.9219C42.4997 36.0781 43.2809 36 44.1403 35.6875C45.3903 35.1406 46.6403 33.9688 47.4215 32.25C46.3278 31.7812 45.0778 32.0937 43.9059 32.7969C44.2965 32.0156 44.6872 31.2344 44.9997 30.4531C45.7809 30.4531 46.5622 30.2187 47.2653 29.6719C48.2809 28.8125 49.2184 27.4062 49.5309 25.6094C48.5153 25.6094 47.3434 26.3125 46.3278 27.3281Z" fill="#3CB98A"/>
<path d="M34.6094 34.5156L32.9688 25.0625L39.8438 18.3438C40.0781 18.1094 40.1562 17.7969 40.0781 17.5625C40 17.25 39.7656 17.0938 39.4531 17.0156L29.9219 15.6094L25.7031 7.01563C25.5469 6.78125 25.3125 6.54688 25 6.54688C24.6875 6.54688 24.4531 6.70313 24.2969 7.01563L20.0781 15.6094L10.5469 17.0156C10.2344 17.0938 10 17.25 9.92187 17.5625C9.84375 17.875 9.92188 18.1875 10.1563 18.3438L17.0312 25.0625L15.3906 34.5156C15.3125 34.8281 15.4688 35.1406 15.7031 35.2969C15.9375 35.4531 16.25 35.5313 16.5625 35.375L25 30.8437L33.5156 35.2969C33.5938 35.375 33.75 35.375 33.9062 35.375C34.0625 35.375 34.2188 35.2969 34.375 35.2188C34.5312 35.0625 34.6875 34.8281 34.6094 34.5156Z" fill="#3CB98A"/>
</svg>
