<svg width="69" height="24" viewBox="0 0 69 24" fill="none" xmlns="http://www.w3.org/2000/svg">
<path d="M0 3C0 1.34315 1.34315 0 3 0H61.3014C62.3552 0 63.3317 0.552897 63.8739 1.45651L68.0739 8.45651C68.6439 9.40656 68.6439 10.5934 68.0739 11.5435L63.8739 18.5435C63.3317 19.4471 62.3552 20 61.3014 20H0V3Z" fill="#3CB98A"/>
<path d="M9.00781 6.38086H13.2852V7.98047H10.6309V9.54492H13.2852V11.1211H10.6309V15H9.00781V6.38086ZM20.9609 12.2754H15.8223C15.8965 12.7285 16.0938 13.0898 16.4141 13.3594C16.7383 13.625 17.1504 13.7578 17.6504 13.7578C18.248 13.7578 18.7617 13.5488 19.1914 13.1309L20.5391 13.7637C20.2031 14.2402 19.8008 14.5938 19.332 14.8242C18.8633 15.0508 18.3066 15.1641 17.6621 15.1641C16.6621 15.1641 15.8477 14.8496 15.2188 14.2207C14.5898 13.5879 14.2754 12.7969 14.2754 11.8477C14.2754 10.875 14.5879 10.0684 15.2129 9.42773C15.8418 8.7832 16.6289 8.46094 17.5742 8.46094C18.5781 8.46094 19.3945 8.7832 20.0234 9.42773C20.6523 10.0684 20.9668 10.916 20.9668 11.9707L20.9609 12.2754ZM19.3555 11.0156C19.25 10.6602 19.041 10.3711 18.7285 10.1484C18.4199 9.92578 18.0605 9.81445 17.6504 9.81445C17.2051 9.81445 16.8145 9.93945 16.4785 10.1895C16.2676 10.3457 16.0723 10.6211 15.8926 11.0156H19.3555ZM26.9727 8.625H28.5664V15H26.9727V14.3262C26.6602 14.623 26.3457 14.8379 26.0293 14.9707C25.7168 15.0996 25.377 15.1641 25.0098 15.1641C24.1855 15.1641 23.4727 14.8457 22.8711 14.209C22.2695 13.5684 21.9688 12.7734 21.9688 11.8242C21.9688 10.8398 22.2598 10.0332 22.8418 9.4043C23.4238 8.77539 24.1309 8.46094 24.9629 8.46094C25.3457 8.46094 25.7051 8.5332 26.041 8.67773C26.377 8.82227 26.6875 9.03906 26.9727 9.32812V8.625ZM25.291 9.9375C24.7949 9.9375 24.3828 10.1133 24.0547 10.4648C23.7266 10.8125 23.5625 11.2598 23.5625 11.8066C23.5625 12.3574 23.7285 12.8105 24.0605 13.166C24.3965 13.5215 24.8086 13.6992 25.2969 13.6992C25.8008 13.6992 26.2188 13.5254 26.5508 13.1777C26.8828 12.8262 27.0488 12.3672 27.0488 11.8008C27.0488 11.2461 26.8828 10.7969 26.5508 10.4531C26.2188 10.1094 25.7988 9.9375 25.291 9.9375ZM30.377 6.27539H31.9707V8.625H32.9199V10.002H31.9707V15H30.377V10.002H29.5566V8.625H30.377V6.27539ZM33.7754 8.625H35.3926V11.6953C35.3926 12.293 35.4336 12.709 35.5156 12.9434C35.5977 13.1738 35.7285 13.3535 35.9082 13.4824C36.0918 13.6113 36.3164 13.6758 36.582 13.6758C36.8477 13.6758 37.0723 13.6133 37.2559 13.4883C37.4434 13.3594 37.582 13.1719 37.6719 12.9258C37.7383 12.7422 37.7715 12.3496 37.7715 11.748V8.625H39.377V11.3262C39.377 12.4395 39.2891 13.2012 39.1133 13.6113C38.8984 14.1113 38.582 14.4961 38.1641 14.7656C37.7461 15.0312 37.2148 15.1641 36.5703 15.1641C35.8711 15.1641 35.3047 15.0078 34.8711 14.6953C34.4414 14.3828 34.1387 13.9473 33.9629 13.3887C33.8379 13.002 33.7754 12.2988 33.7754 11.2793V8.625ZM40.6133 8.625H41.9844V9.42773C42.1328 9.11133 42.3301 8.87109 42.5762 8.70703C42.8223 8.54297 43.0918 8.46094 43.3848 8.46094C43.5918 8.46094 43.8086 8.51562 44.0352 8.625L43.5371 10.002C43.3496 9.9082 43.1953 9.86133 43.0742 9.86133C42.8281 9.86133 42.6191 10.0137 42.4473 10.3184C42.2793 10.623 42.1953 11.2207 42.1953 12.1113L42.2012 12.4219V15H40.6133V8.625ZM51.2188 12.2754H46.0801C46.1543 12.7285 46.3516 13.0898 46.6719 13.3594C46.9961 13.625 47.4082 13.7578 47.9082 13.7578C48.5059 13.7578 49.0195 13.5488 49.4492 13.1309L50.7969 13.7637C50.4609 14.2402 50.0586 14.5938 49.5898 14.8242C49.1211 15.0508 48.5645 15.1641 47.9199 15.1641C46.9199 15.1641 46.1055 14.8496 45.4766 14.2207C44.8477 13.5879 44.5332 12.7969 44.5332 11.8477C44.5332 10.875 44.8457 10.0684 45.4707 9.42773C46.0996 8.7832 46.8867 8.46094 47.832 8.46094C48.8359 8.46094 49.6523 8.7832 50.2812 9.42773C50.9102 10.0684 51.2246 10.916 51.2246 11.9707L51.2188 12.2754ZM49.6133 11.0156C49.5078 10.6602 49.2988 10.3711 48.9863 10.1484C48.6777 9.92578 48.3184 9.81445 47.9082 9.81445C47.4629 9.81445 47.0723 9.93945 46.7363 10.1895C46.5254 10.3457 46.3301 10.6211 46.1504 11.0156H49.6133ZM57.2305 6.16406H58.8242V15H57.2305V14.3262C56.918 14.623 56.6035 14.8379 56.2871 14.9707C55.9746 15.0996 55.6348 15.1641 55.2676 15.1641C54.4434 15.1641 53.7305 14.8457 53.1289 14.209C52.5273 13.5684 52.2266 12.7734 52.2266 11.8242C52.2266 10.8398 52.5176 10.0332 53.0996 9.4043C53.6816 8.77539 54.3887 8.46094 55.2207 8.46094C55.6035 8.46094 55.9629 8.5332 56.2988 8.67773C56.6348 8.82227 56.9453 9.03906 57.2305 9.32812V6.16406ZM55.5488 9.9375C55.0527 9.9375 54.6406 10.1133 54.3125 10.4648C53.9844 10.8125 53.8203 11.2598 53.8203 11.8066C53.8203 12.3574 53.9863 12.8105 54.3184 13.166C54.6543 13.5215 55.0664 13.6992 55.5547 13.6992C56.0586 13.6992 56.4766 13.5254 56.8086 13.1777C57.1406 12.8262 57.3066 12.3672 57.3066 11.8008C57.3066 11.2461 57.1406 10.7969 56.8086 10.4531C56.4766 10.1094 56.0566 9.9375 55.5488 9.9375Z" fill="white"/>
<path d="M4 24V20L0 20L4 24Z" fill="#C97B00"/>
</svg>
