<svg width="63" height="24" viewBox="0 0 63 24" fill="none" xmlns="http://www.w3.org/2000/svg">
<path d="M0 3C0 1.34315 1.34315 0 3 0H55.3014C56.3552 0 57.3317 0.552897 57.8739 1.45651L62.0739 8.45651C62.6439 9.40656 62.6439 10.5934 62.0739 11.5435L57.8739 18.5435C57.3317 19.4471 56.3552 20 55.3014 20H0V3Z" fill="#6E55FF"/>
<path d="M9.00781 5.38086H13.2852V6.98047H10.6309V8.54492H13.2852V10.1211H10.6309V14H9.00781V5.38086ZM17.5684 7.46094C18.1699 7.46094 18.7344 7.61133 19.2617 7.91211C19.793 8.21289 20.207 8.62109 20.5039 9.13672C20.8008 9.65234 20.9492 10.209 20.9492 10.8066C20.9492 11.4082 20.7988 11.9707 20.498 12.4941C20.2012 13.0176 19.7949 13.4277 19.2793 13.7246C18.7637 14.0176 18.1953 14.1641 17.5742 14.1641C16.6602 14.1641 15.8789 13.8398 15.2305 13.1914C14.5859 12.5391 14.2637 11.748 14.2637 10.8184C14.2637 9.82227 14.6289 8.99219 15.3594 8.32812C16 7.75 16.7363 7.46094 17.5684 7.46094ZM17.5918 8.9668C17.0957 8.9668 16.6816 9.14062 16.3496 9.48828C16.0215 9.83203 15.8574 10.2734 15.8574 10.8125C15.8574 11.3672 16.0195 11.8164 16.3438 12.1602C16.6719 12.5039 17.0859 12.6758 17.5859 12.6758C18.0859 12.6758 18.502 12.502 18.834 12.1543C19.166 11.8066 19.332 11.3594 19.332 10.8125C19.332 10.2656 19.168 9.82227 18.8398 9.48242C18.5156 9.13867 18.0996 8.9668 17.5918 8.9668ZM21.8867 7.625H23.2578V8.42773C23.4062 8.11133 23.6035 7.87109 23.8496 7.70703C24.0957 7.54297 24.3652 7.46094 24.6582 7.46094C24.8652 7.46094 25.082 7.51562 25.3086 7.625L24.8105 9.00195C24.623 8.9082 24.4688 8.86133 24.3477 8.86133C24.1016 8.86133 23.8926 9.01367 23.7207 9.31836C23.5527 9.62305 23.4688 10.2207 23.4688 11.1113L23.4746 11.4219V14H21.8867V7.625ZM33.3711 8.51562L32.3809 9.50586C31.9785 9.10742 31.6133 8.9082 31.2852 8.9082C31.1055 8.9082 30.9648 8.94727 30.8633 9.02539C30.7617 9.09961 30.7109 9.19336 30.7109 9.30664C30.7109 9.39258 30.7422 9.47266 30.8047 9.54688C30.8711 9.61719 31.0312 9.71484 31.2852 9.83984L31.8711 10.1328C32.4883 10.4375 32.9121 10.748 33.1426 11.0645C33.373 11.3809 33.4883 11.752 33.4883 12.1777C33.4883 12.7441 33.2793 13.2168 32.8613 13.5957C32.4473 13.9746 31.8906 14.1641 31.1914 14.1641C30.2617 14.1641 29.5195 13.8008 28.9648 13.0742L29.9492 12.002C30.1367 12.2207 30.3555 12.3984 30.6055 12.5352C30.8594 12.668 31.084 12.7344 31.2793 12.7344C31.4902 12.7344 31.6602 12.6836 31.7891 12.582C31.918 12.4805 31.9824 12.3633 31.9824 12.2305C31.9824 11.9844 31.75 11.7441 31.2852 11.5098L30.7461 11.2402C29.7148 10.7207 29.1992 10.0703 29.1992 9.28906C29.1992 8.78516 29.3926 8.35547 29.7793 8C30.1699 7.64062 30.668 7.46094 31.2734 7.46094C31.6875 7.46094 32.0762 7.55273 32.4395 7.73633C32.8066 7.91602 33.1172 8.17578 33.3711 8.51562ZM39.4648 7.625H41.0586V14H39.4648V13.3262C39.1523 13.623 38.8379 13.8379 38.5215 13.9707C38.209 14.0996 37.8691 14.1641 37.502 14.1641C36.6777 14.1641 35.9648 13.8457 35.3633 13.209C34.7617 12.5684 34.4609 11.7734 34.4609 10.8242C34.4609 9.83984 34.752 9.0332 35.334 8.4043C35.916 7.77539 36.623 7.46094 37.4551 7.46094C37.8379 7.46094 38.1973 7.5332 38.5332 7.67773C38.8691 7.82227 39.1797 8.03906 39.4648 8.32812V7.625ZM37.7832 8.9375C37.2871 8.9375 36.875 9.11328 36.5469 9.46484C36.2188 9.8125 36.0547 10.2598 36.0547 10.8066C36.0547 11.3574 36.2207 11.8105 36.5527 12.166C36.8887 12.5215 37.3008 12.6992 37.7891 12.6992C38.293 12.6992 38.7109 12.5254 39.043 12.1777C39.375 11.8262 39.541 11.3672 39.541 10.8008C39.541 10.2461 39.375 9.79688 39.043 9.45312C38.7109 9.10938 38.291 8.9375 37.7832 8.9375ZM42.5059 5.16406H44.1055V14H42.5059V5.16406ZM51.9453 11.2754H46.8066C46.8809 11.7285 47.0781 12.0898 47.3984 12.3594C47.7227 12.625 48.1348 12.7578 48.6348 12.7578C49.2324 12.7578 49.7461 12.5488 50.1758 12.1309L51.5234 12.7637C51.1875 13.2402 50.7852 13.5938 50.3164 13.8242C49.8477 14.0508 49.291 14.1641 48.6465 14.1641C47.6465 14.1641 46.832 13.8496 46.2031 13.2207C45.5742 12.5879 45.2598 11.7969 45.2598 10.8477C45.2598 9.875 45.5723 9.06836 46.1973 8.42773C46.8262 7.7832 47.6133 7.46094 48.5586 7.46094C49.5625 7.46094 50.3789 7.7832 51.0078 8.42773C51.6367 9.06836 51.9512 9.91602 51.9512 10.9707L51.9453 11.2754ZM50.3398 10.0156C50.2344 9.66016 50.0254 9.37109 49.7129 9.14844C49.4043 8.92578 49.0449 8.81445 48.6348 8.81445C48.1895 8.81445 47.7988 8.93945 47.4629 9.18945C47.252 9.3457 47.0566 9.62109 46.877 10.0156H50.3398Z" fill="white"/>
<path d="M4 24V20L0 20L4 24Z" fill="#3722AE"/>
</svg>
