<svg width="21" height="21" viewBox="0 0 21 21" fill="none" xmlns="http://www.w3.org/2000/svg">
<path d="M4.93242 12.5863L4.23625 15.1852L1.69176 15.239C0.931328 13.8286 0.5 12.2149 0.5 10.5C0.5 8.84179 0.903281 7.27804 1.61812 5.90112H1.61867L3.88398 6.31644L4.87633 8.56815C4.66863 9.17366 4.55543 9.82366 4.55543 10.5C4.55551 11.2341 4.68848 11.9374 4.93242 12.5863Z" fill="#3CB98A"/>
<path d="M20.3252 8.63184C20.44 9.23676 20.4999 9.86148 20.4999 10.5C20.4999 11.2159 20.4246 11.9143 20.2812 12.5879C19.7944 14.8802 18.5224 16.8818 16.7604 18.2983L16.7598 18.2978L13.9065 18.1522L13.5027 15.6313C14.6719 14.9456 15.5857 13.8725 16.067 12.5879H10.7197V8.63184H20.3252Z" fill="#518EF8"/>
<path d="M16.7595 18.2977L16.7601 18.2983C15.0464 19.6757 12.8694 20.4999 10.4996 20.4999C6.69141 20.4999 3.38043 18.3713 1.69141 15.2389L4.93207 12.5862C5.77656 14.84 7.95074 16.4444 10.4996 16.4444C11.5952 16.4444 12.6216 16.1483 13.5024 15.6312L16.7595 18.2977Z" fill="#28B446"/>
<path d="M16.883 2.80219L13.6434 5.45437C12.7319 4.88461 11.6544 4.55547 10.5 4.55547C7.89344 4.55547 5.67859 6.23348 4.87641 8.56812L1.61871 5.90109H1.61816C3.28246 2.6923 6.6352 0.5 10.5 0.5C12.9264 0.5 15.1511 1.3643 16.883 2.80219Z" fill="#F14336"/>
</svg>
