<svg width="31" height="36" viewBox="0 0 31 36" fill="none" xmlns="http://www.w3.org/2000/svg">
<mask id="mask0_1481_2217" style="mask-type:luminance" maskUnits="userSpaceOnUse" x="0" y="14" width="22" height="22">
<rect y="14" width="22" height="22" fill="white"/>
</mask>
<g mask="url(#mask0_1481_2217)">
<path fill-rule="evenodd" clip-rule="evenodd" d="M17.4167 26.454V23.1668C17.4167 20.2179 15.4138 17.7337 12.7004 16.9867C12.4318 16.3102 11.7755 15.8335 11 15.8335C10.2245 15.8335 9.56817 16.3102 9.29958 16.9867C6.58625 17.7347 4.58333 20.2179 4.58333 23.1668V26.454L3.01858 28.0187C2.84625 28.1902 2.75 28.423 2.75 28.6668V30.5002C2.75 31.0071 3.15975 31.4168 3.66667 31.4168H18.3333C18.8402 31.4168 19.25 31.0071 19.25 30.5002V28.6668C19.25 28.423 19.1537 28.1902 18.9814 28.0187L17.4167 26.454ZM17.4173 29.5835H4.58398V29.0463L6.14873 27.4816C6.32107 27.3102 6.41732 27.0773 6.41732 26.8335V23.1668C6.41732 20.6396 8.4734 18.5835 11.0007 18.5835C13.5279 18.5835 15.584 20.6396 15.584 23.1668V26.8335C15.584 27.0773 15.6802 27.3102 15.8526 27.4816L17.4173 29.0463V29.5835ZM11.0002 34.1668C12.2019 34.1668 13.2066 33.4023 13.5833 32.3335H8.41699C8.79374 33.4023 9.79841 34.1668 11.0002 34.1668Z" fill="#495057"/>
</g>
<rect x="11" width="20" height="18" rx="9" fill="#F06548"/>
<path d="M18.6 7.09C18.6467 6.47667 18.8833 5.99667 19.31 5.65C19.7367 5.30333 20.29 5.13 20.97 5.13C21.4233 5.13 21.8133 5.21333 22.14 5.38C22.4733 5.54 22.7233 5.76 22.89 6.04C23.0633 6.32 23.15 6.63667 23.15 6.99C23.15 7.40333 23.03 7.76 22.79 8.06C22.5567 8.36 22.25 8.55333 21.87 8.64V8.69C22.3033 8.79667 22.6467 9.00667 22.9 9.32C23.1533 9.63333 23.28 10.0433 23.28 10.55C23.28 10.93 23.1933 11.2733 23.02 11.58C22.8467 11.88 22.5867 12.1167 22.24 12.29C21.8933 12.4633 21.4767 12.55 20.99 12.55C20.2833 12.55 19.7033 12.3667 19.25 12C18.7967 11.6267 18.5433 11.1 18.49 10.42H19.37C19.4167 10.82 19.58 11.1467 19.86 11.4C20.14 11.6533 20.5133 11.78 20.98 11.78C21.4467 11.78 21.8 11.66 22.04 11.42C22.2867 11.1733 22.41 10.8567 22.41 10.47C22.41 9.97 22.2433 9.61 21.91 9.39C21.5767 9.17 21.0733 9.06 20.4 9.06H20.17V8.3H20.41C21.0233 8.29333 21.4867 8.19333 21.8 8C22.1133 7.8 22.27 7.49333 22.27 7.08C22.27 6.72667 22.1533 6.44333 21.92 6.23C21.6933 6.01667 21.3667 5.91 20.94 5.91C20.5267 5.91 20.1933 6.01667 19.94 6.23C19.6867 6.44333 19.5367 6.73 19.49 7.09H18.6Z" fill="white"/>
</svg>
