<svg width="50" height="50" viewBox="0 0 50 50" fill="none" xmlns="http://www.w3.org/2000/svg">
<g id="Icon">
<path id="Vector" d="M42.5742 38.0897L42.7 38.0394V37.904V23.749C42.7 23.1695 43.1704 22.699 43.75 22.699C44.3295 22.699 44.8 23.1695 44.8 23.749V38.749C44.8 39.179 44.5378 39.5638 44.1424 39.7261C44.1421 39.7262 44.1419 39.7263 44.1417 39.7264L31.6657 44.7158L31.7375 44.8952C31.7375 44.8974 31.7375 44.8994 31.7375 44.9015L31.6563 44.7187L31.6371 44.7272C31.3894 44.8262 31.113 44.8262 30.8654 44.7272L30.8462 44.7187L30.8074 44.7015H30.801L18.8243 39.9108L18.75 39.8811L18.6757 39.9108L6.64074 44.7233L6.64072 44.7233C6.5143 44.7739 6.382 44.799 6.25 44.799C6.04199 44.799 5.83872 44.7382 5.66233 44.6185C5.37414 44.4229 5.2 44.0971 5.2 43.749V21.249C5.2 20.8188 5.46227 20.4344 5.85956 20.2746C5.85958 20.2746 5.8596 20.2746 5.85962 20.2746L18.3281 15.2857L18.3282 15.2863L18.3507 15.2788L18.3509 15.2791L18.3623 15.2745C18.6118 15.1739 18.8907 15.1739 19.1402 15.2745L19.1401 15.2746L19.1448 15.2763L19.1648 15.2838L19.1987 15.2965H19.1989L26.6456 18.2772C26.6456 18.2772 26.6456 18.2772 26.6457 18.2772C27.1862 18.4939 27.4479 19.1052 27.2319 19.6419L27.2318 19.6421C27.0154 20.182 26.3971 20.4421 25.8673 20.2285L25.8668 20.2283L20.0743 17.9108L19.8 17.8011V18.0965V37.9015V38.0369L19.9257 38.0872L29.9257 42.0872L30.2 42.1969V41.9015V28.749C30.2 28.1695 30.6704 27.699 31.25 27.699C31.8295 27.699 32.3 28.1695 32.3 28.749V41.904V42.1994L32.5742 42.0897L42.5742 38.0897ZM18.2775 15.134L18.265 15.1028L18.265 15.1028L18.265 15.0965L18.2775 15.134ZM17.5743 38.0872L17.7 38.0369V37.9015V18.094V17.7986L17.4257 17.9083L7.42572 21.9083L7.3 21.9586V22.094V41.9015V42.1969L7.57428 42.0872L17.5743 38.0872Z" fill="#8E8E93" stroke="white" stroke-width="0.4"/>
<path id="Vector_2" d="M32.7 13.749C32.7 11.792 34.293 10.199 36.25 10.199C38.207 10.199 39.8 11.792 39.8 13.749C39.8 15.7061 38.207 17.299 36.25 17.299C34.293 17.299 32.7 15.7061 32.7 13.749ZM34.8 13.749C34.8 14.5495 35.4495 15.199 36.25 15.199C37.0505 15.199 37.7 14.5495 37.7 13.749C37.7 12.9486 37.0505 12.299 36.25 12.299C35.4495 12.299 34.8 12.9486 34.8 13.749Z" fill="#8E8E93" stroke="white" stroke-width="0.4"/>
<path id="Vector_3" d="M36.0971 24.4704L36.25 24.6518L36.4029 24.4704C37.7722 22.8466 39.3407 20.7865 40.5681 18.831C41.1818 17.8533 41.7126 16.8981 42.0906 16.0341C42.4666 15.1746 42.7 14.3865 42.7 13.749C42.7 10.1936 39.8054 7.29902 36.25 7.29902C32.6945 7.29902 29.8 10.1936 29.8 13.749C29.8 14.3871 30.0334 15.1755 30.4094 16.0351C30.7874 16.8993 31.3182 17.8544 31.9319 18.8319C33.1593 20.7872 34.7278 22.8466 36.0971 24.4704ZM27.7 13.749C27.7 9.03448 31.5355 5.19902 36.25 5.19902C40.9645 5.19902 44.8 9.03448 44.8 13.749C44.8 14.8262 44.3769 16.1323 43.7105 17.5145C43.0462 18.8922 42.1501 20.3255 41.2259 21.6512C39.3782 24.3016 37.43 26.5055 37.0314 26.9501C36.8312 27.1712 36.5474 27.299 36.25 27.299C35.9526 27.299 35.6688 27.1712 35.4686 26.9501C35.0699 26.5053 33.1217 24.3015 31.2741 21.6512C30.3499 20.3255 29.4538 18.8922 28.7895 17.5145C28.1231 16.1323 27.7 14.8262 27.7 13.749Z" fill="#8E8E93" stroke="white" stroke-width="0.4"/>
</g>
</svg>
