<svg width="182" height="58" viewBox="0 0 182 68" fill="none" xmlns="http://www.w3.org/2000/svg">
<path d="M163.404 44.8277C163.404 45.5004 163.404 46.1248 163.404 46.8365C164.112 46.8365 164.785 46.8458 165.457 46.8328C165.985 46.8235 166.537 46.7993 166.55 47.524C166.563 48.245 166.058 48.3398 165.465 48.3379C159.513 48.3305 153.561 48.3324 147.607 48.3342C143.647 48.3342 139.687 48.3268 135.727 48.3454C135.11 48.3491 134.716 48.1094 134.709 47.5147C134.703 47.0762 135.01 46.8086 135.521 46.8272C136.296 46.8551 137.075 46.8346 137.909 46.8346C137.909 38.6063 137.909 30.4505 137.909 22.2649C137.608 22.1962 137.299 22.1219 136.991 22.055C136.313 21.91 136.04 21.4232 135.999 20.8006C135.958 20.1726 135.963 19.5389 135.997 18.9108C136.043 18.0189 136.621 17.4818 137.509 17.4818C146.236 17.48 154.964 17.48 163.69 17.4855C164.677 17.4855 165.208 17.9966 165.279 18.9926C165.305 19.3698 165.303 19.7489 165.309 20.1261C165.331 21.6796 165.019 22.0382 163.423 22.2259C163.423 25.7361 163.423 29.2538 163.423 32.8105C166.281 34.0852 167.918 36.2203 167.609 39.5001C167.368 42.1277 165.803 43.8057 163.404 44.8277ZM155.014 38.5413C154.646 38.519 154.323 38.4967 153.998 38.4781C153.178 38.4354 152.976 38.2365 152.972 37.4226C152.966 36.0104 152.966 34.5981 152.977 33.1858C152.985 32.2716 153.228 32.0393 154.159 32.0337C155.042 32.0282 155.925 32.0319 156.807 32.0337C158.078 32.0374 158.078 32.0374 158.417 33.0873C159.515 32.8625 160.604 32.6395 161.761 32.4017C161.761 29.068 161.761 25.6581 161.761 22.2222C154.315 22.2222 146.936 22.2222 139.531 22.2222C139.531 30.4449 139.531 38.6212 139.531 46.7975C141.949 46.7975 144.311 46.7975 146.747 46.7975C146.747 45.1288 146.745 43.4972 146.747 41.8638C146.749 40.8976 146.903 40.7117 147.878 40.7006C149.694 40.6801 151.511 40.6857 153.327 40.6931C154.379 40.6969 154.568 40.8938 154.572 41.9363C154.576 43.2984 154.615 44.6624 154.551 46.0207C154.52 46.7231 154.769 46.8625 155.412 46.8495C157.303 46.8105 159.195 46.8365 161.087 46.8328C161.302 46.8328 161.52 46.8012 161.769 46.7807C161.769 46.2307 161.769 45.7383 161.769 45.2551C157.067 44.3855 155.56 42.897 155.014 38.5413ZM161.319 43.5697C164.155 43.6998 166.175 41.2413 166.167 38.8869C166.158 36.2073 164.157 34.1205 161.453 34.0629C158.777 34.0072 156.67 36.0605 156.605 38.7568C156.54 41.3491 158.768 43.6831 161.319 43.5697ZM137.558 20.481C146.293 20.481 154.979 20.481 163.679 20.481C163.679 19.9663 163.679 19.5055 163.679 18.987C163.317 18.987 163.019 18.987 162.72 18.987C154.752 18.9851 146.782 18.9851 138.814 18.9814C137.42 18.9814 137.42 18.9777 137.558 20.481ZM148.323 42.2912C148.323 43.8614 148.323 45.3295 148.323 46.7807C149.921 46.7807 151.443 46.7807 152.994 46.7807C152.994 45.2551 152.994 43.7871 152.994 42.2912C151.402 42.2912 149.878 42.2912 148.323 42.2912ZM154.484 36.8187C155.036 36.9283 155.408 36.999 155.603 36.3058C155.759 35.7539 156.146 35.2336 156.536 34.7951C156.906 34.3788 156.928 34.0481 156.608 33.6002C156.088 33.6002 155.559 33.5612 155.038 33.6207C154.839 33.643 154.516 33.8845 154.509 34.0406C154.458 34.9586 154.484 35.884 154.484 36.8187Z" fill="#3CB98A"/>
<path d="M27.9232 36.1292C30.285 36.9877 31.0135 38.1027 30.8648 40.5983C30.8425 40.9755 30.8239 41.3546 30.7682 41.7281C30.6251 42.6907 30.2256 43.5585 29.172 43.6532C27.9864 43.761 26.7674 43.7462 25.5893 43.5882C24.4948 43.4414 24.0952 42.5141 23.9298 41.5107C23.9057 41.362 23.9075 41.2097 23.8964 41.0591C23.7459 39.1712 23.6771 39.1154 21.726 39.2919C21.516 40.0315 21.3766 40.8027 21.0812 41.507C20.035 43.9989 17.989 44.3389 15.9524 43.3857C14.8579 42.8746 14.5011 41.6742 14.4677 40.4998C14.4119 38.4576 14.4249 36.4154 14.4249 34.3713C14.4249 31.2699 14.4119 28.1666 14.4509 25.0652C14.4881 21.9583 17.7029 21.1406 19.6986 22.1088C20.5478 22.5213 20.9251 23.3408 21.0923 24.2383C21.555 26.7172 21.49 29.2054 21.1685 31.6917C21.0533 32.5855 21.2819 32.933 22.1274 33.0464C23.2479 33.1951 23.7533 32.8866 23.8369 32.0021C23.8555 31.8014 23.876 31.6007 23.8871 31.4C24.0209 29.1162 24.8125 28.6981 26.8343 28.4417C27.6538 28.3376 28.5587 28.4751 29.3503 28.7334C29.8465 28.8951 30.404 29.4135 30.5805 29.9004C31.1398 31.4427 31.1231 33.8845 29.5473 35.1239C29.0642 35.4993 28.5048 35.7724 27.9232 36.1292Z" fill="#3CB98A"/>
<path d="M66.1897 35.988C66.9274 36.5604 67.7228 37.0379 68.3211 37.6957C68.6872 38.099 68.8786 38.7735 68.9158 39.3403C68.9752 40.2601 68.9083 41.2022 68.7764 42.1184C68.6556 42.9527 68.1093 43.5901 67.2526 43.6718C66.16 43.7741 65.0395 43.8075 63.9524 43.6774C62.7482 43.5343 62.1833 42.6442 62.0254 41.4884C62.0087 41.3639 61.9827 41.2375 61.9864 41.113C62.0588 38.9408 61.4531 39.2084 59.9665 39.2845C59.5168 40.3623 59.1971 41.4494 58.636 42.3915C57.8332 43.7425 56.4302 44.1717 54.8916 43.7573C53.5314 43.3894 52.619 42.241 52.606 40.6596C52.5651 35.4919 52.5744 30.3222 52.5576 25.1545C52.5483 22.1107 55.6237 21.0923 57.7997 22.1162C58.727 22.5529 59.0689 23.4523 59.2269 24.387C59.6227 26.7154 59.593 29.0549 59.3049 31.3944C59.1302 32.8123 59.8029 33.4181 61.1966 32.9925C61.5069 32.8977 61.7188 32.4611 61.9622 32.173C62.0012 32.1266 61.9734 32.0262 61.9789 31.95C62.1926 28.9062 63.9635 27.6965 66.9423 28.555C68.4363 28.9862 68.8154 29.5102 68.9548 31.0562C69.1666 33.4125 68.4363 35.1983 66.1897 35.988Z" fill="#3CB98A"/>
<path d="M78.113 36.8245C78.611 38.1903 79.6144 38.9076 80.8743 38.9782C82.7214 39.0822 84.4738 38.7496 86.1276 37.9246C86.6498 37.6644 87.1905 37.6848 87.4971 38.1141C87.735 38.4486 87.8706 39.0376 87.7461 39.413C87.144 41.2397 85.7559 42.3751 84.0798 43.176C81.7254 44.3002 79.2855 44.3281 76.8085 43.6368C74.8146 43.0812 73.0883 42.1019 71.9733 40.3143C69.8048 36.8412 70.5667 30.6941 75.9927 28.7188C79.0272 27.6132 82.1398 27.6262 85.1464 28.9901C86.6609 29.6758 87.6959 31.6288 87.499 33.2882C87.2927 35.0313 86.2112 36.2447 84.2675 36.5216C82.5598 36.765 80.813 36.7371 79.083 36.8226C78.7875 36.8375 78.4921 36.8245 78.113 36.8245ZM77.9755 34.6689C78.4438 34.6689 78.8637 34.6875 79.28 34.6652C81.0564 34.5723 81.3909 34.1467 81.1345 32.3368C81.1141 32.1863 81.1345 32.0042 81.0546 31.8946C80.7907 31.5266 80.5529 31.0268 80.1868 30.8874C79.9173 30.7852 79.3636 31.0751 79.1109 31.3501C78.2821 32.2513 77.9792 33.37 77.9755 34.6689Z" fill="#3CB98A"/>
<path d="M40.1062 36.8521C40.333 38.0247 41.4405 38.8962 42.6743 38.9742C44.54 39.0931 46.3221 38.7717 47.9982 37.9466C48.5241 37.6883 49.0723 37.6679 49.3714 38.0934C49.6223 38.4483 49.7524 39.0708 49.6242 39.4741C49.1355 41.0034 47.9945 42.0459 46.6528 42.8375C43.0757 44.9466 37.9079 44.2795 35.0425 41.6965C33.1657 40.0037 32.5989 37.8407 32.8164 35.4213C33.1378 31.8386 35.18 29.5771 38.4951 28.4807C40.582 27.7913 42.7672 27.8972 44.9228 28.2633C46.3425 28.5049 47.6228 29.0401 48.5036 30.2461C50.0609 32.3775 49.8527 35.8635 46.1716 36.5176C44.356 36.841 42.4644 36.7369 40.608 36.8261C40.4612 36.8317 40.3125 36.841 40.1062 36.8521ZM39.8349 34.6724C40.3311 34.6724 40.7288 34.6798 41.1246 34.6705C42.8695 34.6315 43.2095 34.2506 43.0609 32.4964C43.0367 32.2214 42.9865 31.9463 42.9141 31.6806C42.6911 30.8481 41.8697 30.5322 41.2398 31.0953C40.2029 32.0207 39.9204 33.2676 39.8349 34.6724Z" fill="#3CB98A"/>
<path d="M112.513 36.8449C112.463 37.8837 114.089 38.9168 115.046 38.98C116.919 39.1027 118.698 38.7738 120.374 37.9524C120.927 37.6811 121.407 37.7016 121.832 38.1011C122.297 38.5378 122.28 39.0934 122.031 39.6378C121.277 41.2824 120.035 42.4847 118.395 43.1704C114.481 44.8075 110.789 44.3541 107.461 41.6819C106.089 40.58 105.394 39.0637 105.257 37.3002C105.116 35.4884 105.246 33.7175 106.208 32.1212C107.687 29.6702 109.956 28.349 112.736 28.1205C114.444 27.9792 116.226 28.0889 117.91 28.4159C120.755 28.9697 122.306 31.3594 121.634 34.0222C121.262 35.4995 120.11 36.3135 118.724 36.4974C116.813 36.7501 114.866 36.7278 112.933 36.8226C112.809 36.83 112.684 36.8356 112.513 36.8449ZM112.199 34.6243C113.045 34.6243 113.758 34.7005 114.444 34.5927C114.786 34.5388 115.295 34.1858 115.345 33.8996C115.468 33.2027 115.492 32.4372 115.327 31.7533C115.065 30.6644 114.182 30.4804 113.42 31.2999C112.558 32.229 112.355 33.409 112.199 34.6243Z" fill="#3CB98A"/>
<path d="M97.2061 29.6068C98.6054 28.6461 100.012 27.9827 101.737 28.3172C103.591 28.6777 104.574 30.0565 104.249 31.9854C103.959 33.7061 102.957 34.5405 101.225 34.3974C100.811 34.3639 100.41 34.0778 100.016 33.8826C99.6813 33.7154 99.3802 33.4701 99.0365 33.3326C98.3322 33.0501 97.6614 33.524 97.6595 34.2747C97.6558 36.1646 97.6614 38.0544 97.6558 39.9442C97.6539 40.3215 97.6428 40.7005 97.6019 41.0759C97.3882 42.988 96.4981 43.8075 94.586 43.7945C93.8148 43.7889 93.0269 43.7592 92.278 43.5957C91.3396 43.3894 90.8937 42.6331 90.7524 41.7393C90.6391 41.022 90.5945 40.288 90.5889 39.5596C90.5685 36.9896 90.5703 34.4197 90.5815 31.8479C90.5889 30.168 91.3285 28.8487 92.5865 28.4306C93.9356 27.9827 96.08 28.0812 97.2061 29.6068Z" fill="#3CB98A"/>
<path d="M129.473 32.9537C129.473 36.8095 129.482 40.6654 129.46 44.5212C129.458 44.9301 129.359 45.3835 129.157 45.7291C129.014 45.9707 128.616 46.1899 128.337 46.1862C128.103 46.1825 127.739 45.874 127.672 45.6343C127.507 45.0397 127.406 44.4079 127.404 43.7891C127.388 36.4546 127.391 29.122 127.399 21.7875C127.399 21.3397 127.445 20.8825 127.551 20.4496C127.657 20.0147 127.819 19.5892 128.423 19.5855C129.017 19.5818 129.201 20.0036 129.33 20.4273C129.443 20.8026 129.469 21.217 129.469 21.6147C129.478 25.3943 129.475 29.1759 129.475 32.9555C129.475 32.9537 129.475 32.9537 129.473 32.9537Z" fill="#3CB98A"/>
<path d="M148.304 35.2987C148.304 36.029 148.286 36.7611 148.31 37.4914C148.33 38.1121 148.063 38.4688 147.446 38.4781C146.238 38.4967 145.03 38.4949 143.822 38.4707C143.202 38.4595 142.94 38.0805 142.943 37.4784C142.951 36.016 142.938 34.5554 142.955 33.0929C142.962 32.3459 143.259 32.0505 144.023 32.0375C145.132 32.0189 146.242 32.0319 147.351 32.0337C148.015 32.0356 148.306 32.3831 148.297 33.0298C148.288 33.7861 148.295 34.5424 148.295 35.2968C148.299 35.2987 148.303 35.2987 148.304 35.2987ZM146.721 36.8503C146.721 35.7354 146.721 34.717 146.721 33.617C146.11 33.617 145.538 33.5891 144.971 33.6337C144.805 33.6467 144.525 33.8567 144.519 33.9849C144.48 34.927 144.499 35.871 144.499 36.8503C145.287 36.8503 145.978 36.8503 146.721 36.8503Z" fill="#3CB98A"/>
<path d="M152.972 26.9384C152.972 26.2081 152.978 25.4759 152.97 24.7456C152.965 24.138 153.193 23.8054 153.86 23.8165C155.046 23.837 156.232 23.837 157.415 23.8091C158.071 23.7942 158.339 24.1194 158.341 24.7215C158.346 26.2081 158.35 27.6947 158.333 29.1813C158.326 29.8688 158.014 30.2293 157.25 30.194C156.168 30.1438 155.081 30.1866 153.998 30.1773C153.188 30.1699 152.985 29.9617 152.976 29.133C152.965 28.4008 152.972 27.6687 152.972 26.9384ZM156.787 25.3719C155.951 25.3719 155.209 25.3719 154.505 25.3719C154.505 26.5128 154.505 27.5795 154.505 28.6442C155.302 28.6442 156.025 28.6442 156.787 28.6442C156.787 27.5367 156.787 26.4664 156.787 25.3719Z" fill="#3CB98A"/>
<path d="M148.295 27.0277C148.295 27.758 148.285 28.4901 148.297 29.2204C148.306 29.8634 148.061 30.2053 147.362 30.1886C146.228 30.1625 145.093 30.1644 143.958 30.1867C143.289 30.2016 142.96 29.8875 142.954 29.2483C142.941 27.7115 142.941 26.1729 142.954 24.6361C142.958 24.0972 143.235 23.8111 143.809 23.8185C145.045 23.8315 146.28 23.8334 147.514 23.8185C148.07 23.8129 148.285 24.088 148.284 24.6064C148.28 25.4129 148.284 26.2194 148.284 27.0258C148.287 27.0277 148.291 27.0277 148.295 27.0277ZM144.515 25.3478C144.515 26.4888 144.515 27.5554 144.515 28.6314C145.284 28.6314 146.002 28.6314 146.747 28.6314C146.747 27.5164 146.747 26.4498 146.747 25.3478C145.989 25.3478 145.29 25.3478 144.515 25.3478Z" fill="#3CB98A"/>
<path d="M160.758 39.7493C161.462 38.7626 162.115 37.8502 162.767 36.9378C162.929 36.713 163.083 36.4825 163.269 36.28C163.551 35.9697 163.86 35.8396 164.254 36.1518C164.659 36.4732 164.666 36.8189 164.397 37.2017C163.447 38.5582 162.505 39.9221 161.522 41.2564C161.189 41.7098 160.738 41.8789 160.253 41.379C159.576 40.6784 158.846 40.0225 158.227 39.2736C158.038 39.0451 158.138 38.5786 158.106 38.22C158.467 38.233 158.92 38.1104 159.169 38.285C159.732 38.6771 160.193 39.2123 160.758 39.7493Z" fill="#3CB98A"/>
<rect x="1.5" y="1.5" width="179" height="64.7209" stroke="#3CB98A" stroke-width="3"/>
</svg>
