<svg width="186" height="196" viewBox="0 0 186 196" fill="none" xmlns="http://www.w3.org/2000/svg">
<path d="M119.907 86.513C143.889 86.513 163.074 105.738 163.074 129.769C163.074 138.229 160.676 146.207 156.455 152.84L186 182.639L172.666 196L142.737 166.489C136.119 170.623 128.253 173.026 119.907 173.026C95.9257 173.026 76.7406 153.801 76.7406 129.769C76.7406 105.738 95.9257 86.513 119.907 86.513ZM119.907 105.738C113.547 105.738 107.447 108.27 102.95 112.777C98.4523 117.284 95.9257 123.396 95.9257 129.769C95.9257 136.143 98.4523 142.255 102.95 146.762C107.447 151.269 113.547 153.801 119.907 153.801C126.267 153.801 132.367 151.269 136.865 146.762C141.362 142.255 143.889 136.143 143.889 129.769C143.889 123.396 141.362 117.284 136.865 112.777C132.367 108.27 126.267 105.738 119.907 105.738ZM19.1851 0H153.481C164.129 0 172.666 8.55517 172.666 19.2251V96.4139C167.87 88.7239 161.251 82.0912 153.481 76.9004V19.2251H19.1851V153.801H62.3517C65.3254 161.01 69.6421 167.451 74.918 173.026H19.1851C8.53739 173.026 0 164.471 0 153.801V19.2251C0 8.55517 8.53739 0 19.1851 0ZM38.3703 38.4502H134.296V57.6753H38.3703V38.4502ZM38.3703 76.9004H86.6209C78.9469 81.7067 72.328 88.3394 67.148 96.1255H38.3703V76.9004ZM38.3703 115.351H59.1862C58.131 120.157 57.5554 124.963 57.5554 129.769V134.576H38.3703V115.351Z" fill="#20996B"/>
</svg>
