<svg width="40" height="40" viewBox="0 0 40 40" fill="none" xmlns="http://www.w3.org/2000/svg">
<path d="M20 12.394L31.3921 6.698L20 1.00195V19.9888" stroke="#192A3E" stroke-width="2" stroke-linecap="round" stroke-linejoin="round"/>
<path d="M12.4053 19.9697L1.96253 25.9316C1.67033 26.0972 1.42728 26.3373 1.25819 26.6275C1.08909 26.9177 1 27.2476 1 27.5834C1 27.9193 1.08909 28.2492 1.25819 28.5393C1.42728 28.8295 1.67033 29.0697 1.96253 29.2353L18.1013 38.4629C18.6786 38.7962 19.3334 38.9716 20 38.9716C20.6666 38.9716 21.3214 38.7962 21.8987 38.4629L38.0375 29.2353C38.3297 29.0697 38.5727 28.8295 38.7418 28.5393C38.9109 28.2492 39 27.9193 39 27.5834C39 27.2476 38.9109 26.9177 38.7418 26.6275C38.5727 26.3373 38.3297 26.0972 38.0375 25.9316L27.5947 19.9887M9.53827 21.6026L30.4617 33.5643M30.4617 21.6026L9.55726 33.5643" stroke="#192A3E" stroke-width="2" stroke-linecap="round" stroke-linejoin="round"/>
</svg>
