<svg width="50" height="50" viewBox="0 0 50 50" fill="none" xmlns="http://www.w3.org/2000/svg">
<path d="M21.1184 0.590783C20.6932 2.26503 19.6597 3.49635 18.4668 3.95699C18.3199 4.01442 18.1938 4.11488 18.105 4.24521C18.0163 4.37554 17.9689 4.52965 17.9692 4.68735C17.9696 4.84504 18.0175 4.99897 18.1068 5.12893C18.1962 5.2589 18.3227 5.35885 18.4698 5.41568C19.6627 5.87632 20.6932 7.11355 21.1155 8.79075C21.3163 9.57915 22.4324 9.57915 22.6332 8.79075C23.0584 7.1165 24.086 5.87927 25.2819 5.42454C25.4301 5.36853 25.5577 5.26888 25.6481 5.13875C25.7384 5.00862 25.7871 4.85415 25.7877 4.69575C25.7884 4.53735 25.7409 4.38249 25.6516 4.25164C25.5624 4.12078 25.4355 4.0201 25.2878 3.9629C24.0949 3.49931 23.0584 2.26503 22.6303 0.590783C22.5867 0.423038 22.4887 0.274493 22.3517 0.168454C22.2146 0.0624154 22.0462 0.00488281 21.8729 0.00488281C21.6996 0.00488281 21.5312 0.0624154 21.3941 0.168454C21.257 0.274493 21.162 0.423038 21.1184 0.590783ZM45.3315 3.90679C44.9063 5.58104 43.8758 6.81236 42.6828 7.273C42.5358 7.33013 42.4095 7.43034 42.3205 7.56048C42.2314 7.69063 42.1838 7.84465 42.1838 8.00235C42.1838 8.16004 42.2314 8.31406 42.3205 8.44421C42.4095 8.57436 42.5358 8.67456 42.6828 8.73169C43.8787 9.19233 44.9092 10.4296 45.3315 12.1068C45.5293 12.8952 46.6485 12.8952 46.8463 12.1068C47.2715 10.4325 48.302 9.19528 49.495 8.74055C49.6431 8.68454 49.7708 8.58489 49.8611 8.45476C49.9514 8.32463 50.0001 8.17016 50.0008 8.01176C50.0014 7.85336 49.954 7.6985 49.8647 7.56765C49.7755 7.43679 49.6486 7.33611 49.5009 7.27891C48.3079 6.81532 47.2745 5.58104 46.8463 3.90679C46.7607 3.56427 46.4683 3.31623 46.0904 3.31623C45.7124 3.31623 45.4142 3.58198 45.3315 3.90679ZM3.1535 13.0812C2.7283 14.7554 1.69481 15.9897 0.501877 16.4474C0.353941 16.504 0.226667 16.6042 0.13688 16.7347C0.0470941 16.8652 -0.000976562 17.0198 -0.000976562 17.1782C-0.000976563 17.3366 0.0470941 17.4913 0.13688 17.6218C0.226667 17.7523 0.353941 17.8524 0.501877 17.909C1.69777 18.3697 2.7283 19.6069 3.15055 21.2812C3.34839 22.0725 4.46751 22.0725 4.6683 21.2812C5.09055 19.6069 6.12108 18.3726 7.31402 17.9149C7.46124 17.8584 7.58794 17.7587 7.67752 17.6289C7.7671 17.4991 7.81537 17.3453 7.81601 17.1876C7.81665 17.0299 7.76962 16.8757 7.6811 16.7452C7.59257 16.6147 7.46668 16.514 7.31993 16.4563C6.12994 15.9927 5.0935 14.7584 4.66535 13.0812C4.57971 12.7416 4.28738 12.4906 3.90942 12.4906C3.53146 12.4906 3.23618 12.7564 3.1535 13.0812ZM23.0496 14.844C22.6903 14.8432 22.3344 14.9134 22.0023 15.0506C21.6702 15.1877 21.3684 15.3891 21.1144 15.6431C20.8603 15.8972 20.6589 16.1989 20.5218 16.531C20.3847 16.8631 20.3145 17.219 20.3153 17.5783C20.3153 19.0931 21.5348 20.3126 23.0496 20.3126H45.7065C46.0658 20.3134 46.4217 20.2432 46.7538 20.1061C47.0859 19.9689 47.3876 19.7676 47.6417 19.5135C47.8957 19.2594 48.0971 18.9577 48.2343 18.6256C48.3714 18.2935 48.4416 17.9376 48.4408 17.5783C48.4416 17.219 48.3714 16.8631 48.2343 16.531C48.0971 16.1989 47.8957 15.8972 47.6417 15.6431C47.3876 15.3891 47.0859 15.1877 46.7538 15.0506C46.4217 14.9134 46.0658 14.8432 45.7065 14.844H23.0496ZM14.8437 20.3097C10.9076 20.3136 7.13381 21.8791 4.35082 24.6627C1.56783 27.4462 0.00302593 31.2203 -0.000101008 35.1564C-0.000101008 43.3446 6.65554 50.0002 14.8437 50.0002C23.0318 50.0002 29.6875 43.3446 29.6875 35.1564C29.6844 31.2203 28.1196 27.4462 25.3366 24.6627C22.5536 21.8791 18.7798 20.3136 14.8437 20.3097ZM24.4315 21.8747C26.4285 23.3155 28.0789 25.1837 29.2623 27.3433H41.0145C41.3735 27.3437 41.7291 27.2732 42.0609 27.1359C42.3926 26.9986 42.694 26.7971 42.9478 26.5431C43.2015 26.2891 43.4026 25.9875 43.5396 25.6556C43.6765 25.3237 43.7466 24.968 43.7458 24.609C43.7466 24.2497 43.6764 23.8938 43.5393 23.5617C43.4022 23.2296 43.2008 22.9279 42.9467 22.6738C42.6927 22.4197 42.3909 22.2184 42.0588 22.0812C41.7267 21.9441 41.3708 21.8739 41.0115 21.8747H24.4315ZM14.8407 23.8294C17.8454 23.8294 20.7271 25.0226 22.8522 27.1467C24.9774 29.2707 26.1721 32.1518 26.1736 35.1564C26.1705 38.1606 24.9753 41.0407 22.8505 43.1645C20.7257 45.2882 17.8449 46.4819 14.8407 46.4834C11.8366 46.4834 8.95557 45.29 6.83135 43.1658C4.70712 41.0416 3.51375 38.1605 3.51375 35.1564C3.51375 32.1523 4.70712 29.2713 6.83135 27.147C8.95557 25.0228 11.8366 23.8294 14.8407 23.8294ZM14.8407 25.3944C13.5587 25.394 12.2891 25.6463 11.1045 26.1367C9.91997 26.6272 8.84366 27.3462 7.9371 28.2528C7.03054 29.1593 6.31149 30.2357 5.82104 31.4202C5.33059 32.6048 5.07835 33.8744 5.07874 35.1564C5.12327 37.7172 6.17181 40.1581 7.99852 41.9533C9.82524 43.7486 12.284 44.7545 14.8452 44.7545C17.4064 44.7545 19.8651 43.7486 21.6918 41.9533C23.5185 40.1581 24.5671 37.7172 24.6116 35.1564C24.6112 33.8734 24.3581 32.6031 23.8667 31.4179C23.3752 30.2328 22.6551 29.1561 21.7475 28.2493C20.8399 27.3425 19.7625 26.6234 18.5769 26.133C17.3914 25.6427 16.1208 25.3907 14.8378 25.3915L14.8407 25.3944ZM14.8496 28.5155C15.2335 28.5155 15.6262 28.7813 15.6262 29.2951V30.0599C16.9963 30.4053 17.8201 31.3709 18.207 32.5963C18.4727 33.618 17.0465 34.0284 16.7128 33.0629C16.3998 32.0766 15.7768 31.5717 14.823 31.5363C13.7571 31.5451 12.9332 32.3424 12.9332 33.3582C12.9332 33.8395 13.1074 33.9871 13.3378 34.1023C13.6508 34.2529 14.2561 34.3474 14.9323 34.4182C15.6026 34.4891 16.3496 34.5363 17.0465 34.8789C17.7463 35.2214 18.328 35.8887 18.328 37.0256C18.3201 37.8023 18.0484 38.5533 17.5574 39.1553C17.0665 39.7573 16.3855 40.1746 15.6262 40.3386V41.0178C15.6262 42.0335 14.0642 42.0749 14.0642 41.0178V40.3298C13.0425 40.067 11.9972 39.3494 11.4952 37.7903C11.2088 36.7923 12.6438 36.3346 12.9864 37.3179C13.2817 38.2982 13.9844 38.8474 14.8762 38.8652C15.3706 38.8715 15.8474 38.6813 16.2017 38.3364C16.556 37.9914 16.759 37.52 16.766 37.0256C16.766 36.494 16.5534 36.3877 16.3585 36.2814C16.0484 36.1309 15.4431 36.0393 14.7669 35.9684C14.0937 35.8976 13.3496 35.8503 12.6527 35.5078C11.9529 35.1682 11.3712 34.5098 11.3712 33.3582C11.3712 31.7223 12.5346 30.3876 14.0642 30.0421V29.2951C14.0642 28.7695 14.4657 28.5126 14.8496 28.5155ZM30.0093 28.9053C30.7151 30.6061 31.1403 32.4487 31.2318 34.3739H47.2656C47.6251 34.3751 47.9814 34.3052 48.3138 34.1682C48.6462 34.0313 48.9483 33.83 49.2027 33.5759C49.4571 33.3218 49.6587 33.0199 49.796 32.6876C49.9333 32.3553 50.0036 31.9992 50.0028 31.6396C50.0036 31.2803 49.9334 30.9244 49.7963 30.5923C49.6592 30.2602 49.4578 29.9585 49.2037 29.7044C48.9497 29.4504 48.6479 29.249 48.3158 29.1119C47.9837 28.9747 47.6278 28.9045 47.2685 28.9053H30.0093ZM31.2318 35.936C31.1438 37.8158 30.7302 39.6662 30.0093 41.4046H47.2685C47.6278 41.4054 47.9837 41.3352 48.3158 41.198C48.6479 41.0609 48.9497 40.8595 49.2037 40.6055C49.4578 40.3514 49.6592 40.0497 49.7963 39.7176C49.9334 39.3855 50.0036 39.0296 50.0028 38.6703C50.0036 38.311 49.9334 37.9551 49.7963 37.623C49.6592 37.2909 49.4578 36.9891 49.2037 36.7351C48.9497 36.481 48.6479 36.2797 48.3158 36.1425C47.9837 36.0054 47.6278 35.9352 47.2685 35.936H31.2318ZM29.2652 42.9696C28.0848 45.1209 26.4408 46.9828 24.4522 48.4205C24.5053 48.4234 24.5555 48.4352 24.6116 48.4352H47.2656C47.6251 48.4364 47.9814 48.3665 48.3138 48.2295C48.6462 48.0926 48.9483 47.8913 49.2027 47.6372C49.4571 47.3831 49.6587 47.0812 49.796 46.7489C49.9333 46.4166 50.0036 46.0605 50.0028 45.7009C50.0036 45.3414 49.9333 44.9852 49.796 44.6529C49.6587 44.3207 49.4571 44.0188 49.2027 43.7647C48.9483 43.5106 48.6462 43.3093 48.3138 43.1723C47.9814 43.0354 47.6251 42.9654 47.2656 42.9666L29.2652 42.9696Z" fill="#3CB98A"/>
</svg>
