<svg width="25" height="26" viewBox="0 0 25 26" fill="none" xmlns="http://www.w3.org/2000/svg">
    <path fill-rule="evenodd" clip-rule="evenodd" d="M0 13C0 9.68479 1.31696 6.50537 3.66117 4.16117C6.00537 1.81696 9.18479 0.5 12.5 0.5C15.8152 0.5 18.9946 1.81696 21.3388 4.16117C23.683 6.50537 25 9.68479 25 13C25 16.3152 23.683 19.4946 21.3388 21.8388C18.9946 24.183 15.8152 25.5 12.5 25.5C9.18479 25.5 6.00537 24.183 3.66117 21.8388C1.31696 19.4946 0 16.3152 0 13ZM12.5 4.78571C12.7842 4.78571 13.0567 4.8986 13.2576 5.09953C13.4585 5.30046 13.5714 5.57298 13.5714 5.85714V13C13.5714 13.2842 13.4585 13.5567 13.2576 13.7576C13.0567 13.9585 12.7842 14.0714 12.5 14.0714C12.2158 14.0714 11.9433 13.9585 11.7424 13.7576C11.5415 13.5567 11.4286 13.2842 11.4286 13V5.85714C11.4286 5.57298 11.5415 5.30046 11.7424 5.09953C11.9433 4.8986 12.2158 4.78571 12.5 4.78571ZM9.64286 7.40286C9.64286 7.14143 9.37143 6.97143 9.14571 7.1C7.8439 7.84027 6.82354 8.99041 6.24365 10.3712C5.66376 11.7519 5.55693 13.2857 5.93979 14.7335C6.32265 16.1813 7.1737 17.4618 8.36031 18.3754C9.54692 19.289 11.0024 19.7844 12.5 19.7844C13.9976 19.7844 15.4531 19.289 16.6397 18.3754C17.8263 17.4618 18.6774 16.1813 19.0602 14.7335C19.4431 13.2857 19.3362 11.7519 18.7563 10.3712C18.1765 8.99041 17.1561 7.84027 15.8543 7.1C15.6271 6.97143 15.3571 7.14286 15.3571 7.40286V9.16571C15.3571 9.27571 15.4086 9.38 15.4929 9.45C16.2206 10.0636 16.7421 10.886 16.9868 11.8059C17.2315 12.7257 17.1876 13.6986 16.861 14.5927C16.5343 15.4867 15.9408 16.2588 15.1608 16.8043C14.3807 17.3498 13.4519 17.6424 12.5 17.6424C11.5481 17.6424 10.6193 17.3498 9.83924 16.8043C9.05919 16.2588 8.46566 15.4867 8.13904 14.5927C7.81242 13.6986 7.76849 12.7257 8.0132 11.8059C8.25791 10.886 8.77944 10.0636 9.50714 9.45C9.54914 9.41539 9.58305 9.37201 9.6065 9.32289C9.62994 9.27378 9.64235 9.22013 9.64286 9.16571V7.40286Z" fill="black"/>
</svg>
