<svg width="18" height="18" viewBox="0 0 18 18" fill="none" xmlns="http://www.w3.org/2000/svg">
<mask id="mask0_1481_2207" style="mask-type:luminance" maskUnits="userSpaceOnUse" x="0" y="0" width="18" height="18">
<rect width="18" height="18" fill="white"/>
</mask>
<g mask="url(#mask0_1481_2207)">
<path fill-rule="evenodd" clip-rule="evenodd" d="M7.125 2.25C9.8175 2.25 12 4.4325 12 7.125C12 8.3325 11.5575 9.4425 10.83 10.2975L11.0325 10.5H11.625L15.375 14.25L14.25 15.375L10.5 11.625V11.0325L10.2975 10.83C9.4425 11.5575 8.3325 12 7.125 12C4.4325 12 2.25 9.8175 2.25 7.125C2.25 4.4325 4.4325 2.25 7.125 2.25ZM7.125 3.75C5.25 3.75 3.75 5.25 3.75 7.125C3.75 9 5.25 10.5 7.125 10.5C9 10.5 10.5 9 10.5 7.125C10.5 5.25 9 3.75 7.125 3.75Z" fill="#9599AD"/>
</g>
</svg>
