<svg width="16" height="13" viewBox="0 0 16 13" fill="none" xmlns="http://www.w3.org/2000/svg">
<path d="M4.86645 3.27051C3.3007 3.27051 2.02686 4.54435 2.02686 6.1101C2.02686 7.67585 3.3007 8.9497 4.86645 8.9497C6.4322 8.9497 7.70604 7.67585 7.70604 6.1101C7.70604 4.54435 6.4322 3.27051 4.86645 3.27051ZM4.86645 8.0122C3.81761 8.0122 2.96436 7.15891 2.96436 6.1101C2.96436 5.06129 3.81764 4.20801 4.86645 4.20801C5.91526 4.20801 6.76854 5.06129 6.76854 6.1101C6.76854 7.15891 5.91526 8.0122 4.86645 8.0122Z" fill="#8E8E93"/>
<path d="M15.5312 9.67287H11.9411V8.70534C11.9411 8.44647 11.7312 8.23659 11.4723 8.23659H9.73291V6.02666C9.73291 5.67487 9.69503 5.33181 9.62378 5.001L10.3063 4.49109C10.6027 4.26969 10.7951 3.94609 10.8482 3.57997C10.9012 3.21381 10.8084 2.84897 10.587 2.55256L9.80781 1.50953C9.58641 1.21312 9.26284 1.02072 8.89669 0.967687C8.5305 0.914687 8.16569 1.00741 7.86928 1.22884L7.17809 1.74519C6.49003 1.37222 5.70256 1.16019 4.86647 1.16019C2.18306 1.16022 0 3.34328 0 6.02666V9.77481C0 11.0275 1.01916 12.0467 2.27187 12.0467H11.4723C11.7312 12.0467 11.9411 11.8368 11.9411 11.5779V10.6104H15.0625V11.5719C15.0625 11.8308 15.2724 12.0407 15.5312 12.0407C15.7901 12.0407 16 11.8308 16 11.5719V10.1416C16 9.88275 15.7901 9.67287 15.5312 9.67287ZM8.43034 1.97991C8.52609 1.90837 8.64391 1.87837 8.76234 1.89553C8.88066 1.91266 8.98519 1.97484 9.05675 2.07059L9.83597 3.11366C9.90753 3.20944 9.9375 3.32731 9.92037 3.44562C9.90325 3.56394 9.84106 3.6685 9.74528 3.74003L9.31728 4.05978C9.01484 3.37803 8.56025 2.77834 7.99681 2.30381L8.43034 1.97991ZM11.0036 11.1092H2.27187C1.53609 11.1092 0.9375 10.5106 0.9375 9.77481V6.02666C0.9375 3.86022 2.70003 2.09772 4.86647 2.09772C7.03291 2.09772 8.79544 3.86025 8.79544 6.02669V8.70537C8.79544 8.96425 9.00531 9.17412 9.26419 9.17412H11.0036V11.1092H11.0036Z" fill="#8E8E93"/>
</svg>
