<svg width="19" height="20" viewBox="0 0 19 20" fill="none" xmlns="http://www.w3.org/2000/svg">
<path d="M18.2873 9.60001C18.5349 9.31922 18.7074 8.96762 18.7854 8.58445C18.8635 8.20128 18.8439 7.8016 18.7291 7.43001C18.6213 7.05732 18.4213 6.72569 18.1519 6.47287C17.8825 6.22006 17.5545 6.05622 17.2052 6.00001L13.3369 5.34001C13.3189 5.33422 13.3023 5.32403 13.2882 5.31019C13.2742 5.29635 13.2631 5.27921 13.2558 5.26002L11.5606 1.26002C11.412 0.885457 11.1683 0.56692 10.8593 0.343206C10.5503 0.119491 10.1893 0.000254073 9.82034 1.79599e-05C9.4556 -0.00165464 9.09819 0.113532 8.79107 0.331732C8.48395 0.549932 8.24019 0.861858 8.08908 1.23002L6.3939 5.23001C6.38464 5.24952 6.37186 5.26669 6.35634 5.28046C6.34083 5.29422 6.32292 5.30429 6.30373 5.31001L2.44447 6.00001C2.0947 6.0578 1.76624 6.22206 1.49562 6.47452C1.225 6.72698 1.02283 7.05774 0.911592 7.43001C0.800952 7.8029 0.784477 8.20226 0.863953 8.58479C0.943429 8.96732 1.11582 9.31842 1.36244 9.60001L4.2118 12.85C4.22 12.8705 4.22424 12.8926 4.22424 12.915C4.22424 12.9374 4.22 12.9595 4.2118 12.98L3.54454 17.52C3.48251 17.9154 3.52295 18.3222 3.66115 18.6931C3.79936 19.064 4.02965 19.3837 4.32526 19.6152C4.62087 19.8467 4.96965 19.9804 5.33106 20.0007C5.69246 20.021 6.05164 19.9271 6.36685 19.73L9.73017 17.66C9.74688 17.6504 9.76543 17.6453 9.78427 17.6453C9.8031 17.6453 9.82166 17.6504 9.83837 17.66L13.2017 19.73C13.5173 19.9229 13.8755 20.0134 14.2353 19.9912C14.5951 19.969 14.9421 19.835 15.2365 19.6045C15.5308 19.374 15.7608 19.0563 15.9001 18.6877C16.0393 18.319 16.0823 17.9144 16.024 17.52L15.4018 13C15.3923 12.9818 15.3873 12.9611 15.3873 12.94C15.3873 12.9189 15.3923 12.8983 15.4018 12.88L18.2873 9.60001Z" fill="#FF8723"/>
</svg>
