<svg width="19" height="18" viewBox="0 0 19 18" fill="none" xmlns="http://www.w3.org/2000/svg">
<path d="M17.7381 0.0295345L0.899726 5.53166C0.424186 5.68706 0.355417 6.33388 0.788208 6.58552L7.1516 10.2857C7.24979 10.3428 7.36258 10.3699 7.47599 10.3635C7.5894 10.3572 7.69846 10.3177 7.78965 10.2499L9.57844 8.92152L8.25002 10.7103C8.1823 10.8015 8.14281 10.9106 8.13645 11.024C8.13009 11.1374 8.15714 11.2502 8.21424 11.3484L11.9144 17.7118C12.1664 18.1449 12.813 18.0754 12.9683 17.6003L18.4705 0.76186C18.618 0.309727 18.1881 -0.117584 17.7381 0.0295345ZM12.2669 16.0078L9.41045 11.0954L12.8548 6.45741C12.9378 6.34558 12.9779 6.20763 12.9676 6.06873C12.9574 5.92984 12.8976 5.79924 12.7991 5.70076C12.7006 5.60228 12.57 5.54247 12.4311 5.53225C12.2923 5.52203 12.1543 5.56207 12.0425 5.64507L7.40447 9.08947L2.49215 6.233L17.0112 1.48874L12.2669 16.0078ZM6.59633 12.7247L2.74099 16.58C2.51425 16.8067 2.1466 16.8068 1.91987 16.58C1.69309 16.3533 1.69309 15.9856 1.91987 15.7589L5.77521 11.9036C6.00202 11.6769 6.36967 11.6768 6.59633 11.9036C6.82311 12.1303 6.82311 12.498 6.59633 12.7247ZM1.50311 12.8706C1.27634 12.6438 1.27634 12.2762 1.50311 12.0495L3.02438 10.5282C3.25112 10.3014 3.61877 10.3014 3.8455 10.5282C4.07228 10.7549 4.07228 11.1226 3.8455 11.3493L2.32424 12.8706C2.09754 13.0973 1.72985 13.0973 1.50311 12.8706ZM7.97175 14.6544C8.19852 14.8811 8.19852 15.2488 7.97175 15.4755L6.45045 16.9968C6.3966 17.0508 6.33261 17.0936 6.26215 17.1228C6.1917 17.152 6.11617 17.167 6.0399 17.1669C5.52724 17.1669 5.26254 16.5424 5.62936 16.1756L7.15066 14.6544C7.37736 14.4276 7.74501 14.4276 7.97175 14.6544Z" fill="white"/>
</svg>
