<svg width="21" height="16" viewBox="0 0 21 16" fill="none" xmlns="http://www.w3.org/2000/svg">
<path d="M20.1282 4.49675C18.8068 3.03139 17.266 1.89671 15.5483 1.12424C13.8896 0.378271 12.137 0 10.3393 0C8.54153 0 6.78895 0.378271 5.13018 1.12424C3.41254 1.89671 1.87164 3.03139 0.550331 4.49675C0.322422 4.74947 0.322422 5.15923 0.550292 5.41203L2.25498 7.30265C2.36442 7.42403 2.51288 7.49224 2.66761 7.49224H2.66765C2.82242 7.49224 2.97084 7.42407 3.08028 7.30265C5.01922 5.15242 7.59718 3.9682 10.3392 3.9682C13.0812 3.9682 15.6592 5.15242 17.598 7.30265C17.7075 7.42403 17.8559 7.49224 18.0107 7.49224C18.1654 7.49224 18.3139 7.42407 18.4233 7.30265L20.128 5.41203C20.3561 5.15928 20.3561 4.74951 20.1282 4.49675Z" fill="white" fill-opacity="0.6"/>
<path d="M10.3393 5.34766C7.92957 5.34766 5.66398 6.38836 3.96 8.27812C3.73209 8.53083 3.73209 8.9406 3.95996 9.1934L5.66465 11.084C5.89255 11.3368 6.26204 11.3367 6.48995 11.0841C7.51818 9.94385 8.88521 9.31593 10.3393 9.31593C11.7934 9.31593 13.1604 9.9439 14.1886 11.0841C14.2981 11.2055 14.4465 11.2737 14.6013 11.2737C14.7561 11.2737 14.9045 11.2055 15.0139 11.0841L16.7185 9.19336C16.9464 8.94064 16.9464 8.53087 16.7185 8.27812C15.0147 6.38836 12.7491 5.34766 10.3393 5.34766Z" fill="white" fill-opacity="0.6"/>
<path d="M10.3395 10.6953C9.2177 10.6953 8.16301 11.1798 7.36968 12.0595C7.26024 12.1808 7.19873 12.3455 7.19873 12.5171C7.19873 12.6888 7.2602 12.8534 7.36968 12.9747L9.92683 15.8107C10.0408 15.9371 10.1901 16.0003 10.3395 16.0003C10.4888 16.0003 10.6382 15.937 10.7521 15.8107L13.3093 12.9747C13.4188 12.8534 13.4803 12.6888 13.4803 12.5171C13.4803 12.3455 13.4188 12.1808 13.3093 12.0595C12.516 11.1798 11.4613 10.6953 10.3395 10.6953Z" fill="white" fill-opacity="0.6"/>
</svg>
