<svg width="16" height="9" viewBox="0 0 26 19" fill="none" xmlns="http://www.w3.org/2000/svg">
<path d="M20.8292 8.03846C23.2185 8.03846 25.2475 10.2859 25.2475 13.1538V17.5385H23.3539V19H22.0915V17.5385H3.15593V19H1.89356V17.5385H0V13.1538C0 10.3876 1.96026 8.03846 4.4183 8.03846H20.8292ZM19.5668 0C21.2639 0 22.7232 1.57962 22.7227 3.65385L22.7232 7.14522C22.1491 6.78083 21.507 6.57692 20.8292 6.57692L19.5668 6.57618C19.5668 5.32466 18.6817 4.38462 17.6732 4.38462H13.8861C13.4012 4.38462 12.9588 4.59567 12.6238 4.94278C12.2892 4.59593 11.8466 4.38462 11.3614 4.38462H7.57424C6.52866 4.38462 5.68102 5.36575 5.68068 6.57619L4.4183 6.57692C3.74069 6.57692 3.0987 6.7807 2.52475 7.14488V3.65385C2.52475 1.68899 3.88594 0 5.68068 0H19.5668ZM11.3614 5.84579C11.7039 5.84579 11.9925 6.21117 11.9925 6.57692L6.94305 6.57618C6.94305 6.12909 7.25054 5.84615 7.57424 5.84615L11.3614 5.84579ZM17.6732 5.85107C18.0304 5.84578 18.3041 6.20175 18.3044 6.57618H13.2549C13.2549 6.1227 13.5624 5.84615 13.8861 5.84615L17.6732 5.85107Z" fill="white" fill-opacity="0.6"/>
</svg>
