<svg width="40" height="41" viewBox="0 0 40 41" fill="none" xmlns="http://www.w3.org/2000/svg">
<g id="Icon">
<path id="Vector" d="M33.8668 2.2959H18.0927C15.6302 2.2959 13.6269 4.29882 13.6269 6.76215V14.693H6.12893C3.6681 14.6934 1.66602 16.6963 1.66602 19.1571V29.0738C1.66602 31.5347 3.6681 33.538 6.12893 33.538H6.82768V36.6263C6.82768 37.4651 7.30518 38.1959 8.07393 38.5305C8.34143 38.6472 8.62477 38.7042 8.9056 38.7042C9.43297 38.7041 9.94074 38.5043 10.3268 38.1451L15.2314 33.538H21.9077C24.3694 33.538 26.3718 31.5351 26.3718 29.0738V22.6421L29.6752 25.7367C29.9697 26.0146 30.3394 26.1999 30.7382 26.2695C31.1371 26.3391 31.5477 26.2901 31.9189 26.1284C32.2904 25.9677 32.6068 25.7018 32.8289 25.3634C33.051 25.025 33.1692 24.629 33.1689 24.2242V21.1446H33.8673C36.3293 21.1451 38.3327 19.1417 38.3327 16.6788V6.76215C38.3327 4.29923 36.3293 2.2959 33.8668 2.2959ZM21.9077 31.2838H14.7856C14.4989 31.2841 14.223 31.3934 14.0139 31.5896L9.08185 36.2234V32.4109C9.0819 32.2629 9.05279 32.1163 8.99617 31.9795C8.93954 31.8428 8.85653 31.7185 8.75186 31.6138C8.64719 31.5091 8.52292 31.4261 8.38615 31.3695C8.24938 31.3129 8.10279 31.2838 7.95477 31.2838H6.12893C5.54312 31.2832 4.98151 31.0501 4.5674 30.6357C4.15329 30.2214 3.92051 29.6596 3.92018 29.0738V19.1571C3.92051 18.5713 4.15329 18.0096 4.5674 17.5952C4.98151 17.1809 5.54312 16.9478 6.12893 16.9471H13.6406C13.7806 19.2851 15.721 21.1451 18.0927 21.1451H24.1173V29.0738C24.1169 29.6598 23.884 30.2216 23.4698 30.636C23.0555 31.0504 22.4936 31.2834 21.9077 31.2838ZM36.0785 16.6788C36.0779 17.2652 35.8446 17.8274 35.43 18.2421C35.0154 18.6568 34.4533 18.8901 33.8668 18.8909H32.0414C31.8934 18.8908 31.7468 18.92 31.6101 18.9766C31.4733 19.0332 31.349 19.1162 31.2443 19.2209C31.1397 19.3256 31.0567 19.4498 31 19.5866C30.9434 19.7234 30.9143 19.87 30.9144 20.018V23.8109L26.0218 19.2192L25.9985 19.1971L25.9956 19.2005L25.9898 19.1951C25.7808 18.9995 25.5051 18.8909 25.2189 18.8913H18.0927C17.5063 18.8905 16.9441 18.6572 16.5295 18.2425C16.1149 17.8278 15.8817 17.2656 15.881 16.6792V16.6771H15.8893L15.881 6.76298C15.8817 6.17658 16.1149 5.61437 16.5295 5.19968C16.9441 4.78499 17.5063 4.55167 18.0927 4.5509H33.8668C34.4533 4.55167 35.0154 4.78499 35.43 5.19968C35.8446 5.61437 36.0779 6.17658 36.0785 6.76298V16.6788Z" fill="#3CB98A"/>
<path id="Vector_2" d="M30.4872 8.27051H21.4713C21.1724 8.27051 20.8857 8.38925 20.6744 8.60062C20.463 8.81199 20.3442 9.09867 20.3442 9.39759C20.3442 9.69651 20.463 9.98319 20.6744 10.1946C20.8857 10.4059 21.1724 10.5247 21.4713 10.5247H30.4876C30.6356 10.5246 30.7821 10.4955 30.9189 10.4388C31.0556 10.3821 31.1798 10.2991 31.2845 10.1944C31.3891 10.0897 31.4721 9.96547 31.5287 9.82871C31.5854 9.69196 31.6145 9.54539 31.6145 9.39738C31.6144 9.24937 31.5852 9.10282 31.5286 8.96608C31.4719 8.82935 31.3889 8.70512 31.2842 8.60048C31.1795 8.49584 31.0553 8.41284 30.9185 8.35622C30.7817 8.29961 30.6352 8.27048 30.4872 8.27051ZM30.4872 12.7784H21.4713C21.1724 12.7784 20.8857 12.8972 20.6744 13.1085C20.463 13.3199 20.3442 13.6066 20.3442 13.9055C20.3442 14.2044 20.463 14.4911 20.6744 14.7025C20.8857 14.9138 21.1724 15.0326 21.4713 15.0326H30.4876C30.6356 15.0326 30.7821 15.0034 30.9189 14.9467C31.0556 14.8901 31.1798 14.807 31.2845 14.7023C31.3891 14.5976 31.4721 14.4734 31.5287 14.3366C31.5854 14.1999 31.6145 14.0533 31.6145 13.9053C31.6144 13.7573 31.5852 13.6107 31.5286 13.474C31.4719 13.3373 31.3889 13.213 31.2842 13.1084C31.1795 13.0038 31.0553 12.9208 30.9185 12.8641C30.7817 12.8075 30.6352 12.7784 30.4872 12.7784ZM9.52049 23.0163C9.38549 23.0605 9.27258 23.1505 9.16008 23.2409C8.95716 23.4655 8.82174 23.7605 8.82174 24.053C8.82174 24.3455 8.95674 24.6384 9.16008 24.8409C9.38549 25.0655 9.65591 25.1801 9.94883 25.1801C10.1063 25.1801 10.2647 25.1338 10.3997 25.0897C10.5351 25.0434 10.6476 24.953 10.7601 24.8409C10.963 24.6384 11.0984 24.3455 11.0984 24.053C11.0984 23.7605 10.963 23.4651 10.7601 23.2409C10.4447 22.9484 9.94883 22.8359 9.52049 23.0163ZM14.9076 23.0163C14.4792 22.8359 13.9834 22.948 13.668 23.2409C13.4651 23.4655 13.3526 23.7605 13.3526 24.053C13.3526 24.3455 13.4651 24.6384 13.668 24.8409C13.7805 24.953 13.8934 25.0434 14.0284 25.0897C14.1863 25.1338 14.3213 25.1801 14.4792 25.1801C14.7726 25.1801 15.043 25.0655 15.2684 24.8409C15.4713 24.6384 15.6067 24.3455 15.6067 24.053C15.6067 23.7605 15.4713 23.4651 15.2684 23.2409C15.1555 23.1509 15.043 23.0605 14.9076 23.0163ZM19.4159 23.0163C19.1455 22.9018 18.8297 22.9018 18.5367 23.0163C18.4017 23.0605 18.2888 23.1505 18.1763 23.2409C17.9734 23.4655 17.838 23.7605 17.838 24.053C17.838 24.3455 17.973 24.6384 18.1763 24.8409C18.4017 25.0655 18.6722 25.1801 18.9655 25.1801C19.123 25.1801 19.2809 25.1338 19.4163 25.0897C19.5517 25.0434 19.6642 24.953 19.7772 24.8409C19.9801 24.6384 20.0926 24.3455 20.0926 24.053C20.0926 23.7605 19.9797 23.4651 19.7772 23.2409C19.6638 23.1509 19.5513 23.0605 19.4159 23.0163ZM7.70716 11.6518H9.96133C10.2602 11.6518 10.5469 11.533 10.7583 11.3216C10.9697 11.1103 11.0884 10.8236 11.0884 10.5247C11.0884 10.2258 10.9697 9.93908 10.7583 9.72771C10.5469 9.51634 10.2602 9.39759 9.96133 9.39759H7.70716C7.40824 9.39759 7.12156 9.51634 6.91019 9.72771C6.69882 9.93908 6.58008 10.2258 6.58008 10.5247C6.58008 10.8236 6.69882 11.1103 6.91019 11.3216C7.12156 11.533 7.40824 11.6518 7.70716 11.6518ZM32.5013 29.6838H30.2472C29.9482 29.6838 29.6616 29.8026 29.4502 30.014C29.2388 30.2253 29.1201 30.512 29.1201 30.8109C29.1201 31.1098 29.2388 31.3965 29.4502 31.6079C29.6616 31.8193 29.9482 31.938 30.2472 31.938H32.5013C32.8003 31.938 33.0869 31.8193 33.2983 31.6079C33.5097 31.3965 33.6284 31.1098 33.6284 30.8109C33.6284 30.512 33.5097 30.2253 33.2983 30.014C33.0869 29.8026 32.8003 29.6838 32.5013 29.6838Z" fill="#3CB98A"/>
</g>
</svg>
