<svg width="30" height="28" viewBox="0 0 30 28" fill="none" xmlns="http://www.w3.org/2000/svg">
<path d="M15.3946 1.59338e-06C15.2546 -0.000265311 15.1163 0.0330026 14.9899 0.0973561C14.8635 0.16171 14.7523 0.255509 14.6644 0.371849L14.4977 0.503794C11.2679 -0.563767 7.58308 0.219911 5.01794 2.85883C3.94375 3.94715 3.14464 5.30773 2.69486 6.81416C2.24509 8.32058 2.15925 9.92395 2.44531 11.4753C2.41352 11.5053 2.38231 11.5359 2.3517 11.5673L0.893125 13.0666C0.610978 13.3524 0.386283 13.6966 0.232735 14.0781C0.0791868 14.4596 0 14.8705 0 15.2857C0 15.701 0.0791868 16.1119 0.232735 16.4934C0.386283 16.8749 0.610978 17.219 0.893125 17.5048C1.63833 18.2725 2.67187 18.5604 3.63239 18.3685C3.75035 18.9462 4.02559 19.496 4.46185 19.9438C5.03666 20.5356 5.78374 20.8414 6.53643 20.8634C6.55702 21.6371 6.85473 22.4048 7.42954 22.9966C8.00436 23.5883 8.7533 23.8962 9.50599 23.9162C9.52472 24.6899 9.8243 25.4595 10.3991 26.0513C10.9494 26.6089 11.6703 26.9348 12.4283 26.9686C13.1863 27.0024 13.9301 26.7419 14.5221 26.2352L15.3403 27.0749C16.5386 28.3084 18.4821 28.3084 19.6804 27.0749C20.2534 26.4871 20.5511 25.7234 20.5773 24.9517C21.3469 24.9306 22.0814 24.6033 22.6369 24.0341C23.2098 23.4444 23.5075 22.6807 23.53 21.909C24.291 21.8805 25.0155 21.5539 25.5652 20.9914C26.0202 20.5256 26.3011 19.9478 26.4097 19.3441C26.8916 19.4343 27.3867 19.4024 27.855 19.251C28.3233 19.0996 28.7518 18.8329 29.1059 18.4724C29.3883 18.1866 29.6133 17.8423 29.767 17.4606C29.9207 17.079 30 16.6678 30 16.2523C30 15.8368 29.9207 15.4257 29.767 15.044C29.6133 14.6623 29.3883 14.318 29.1059 14.0322L27.7578 12.6468L28.033 11.5473C28.5898 9.29933 28.3079 6.90842 27.2466 4.878C25.6813 1.86723 22.6444 0.00799821 19.3602 0.00799821H17.0572C16.9581 0.0027503 16.8588 8.40365e-05 16.7595 1.59338e-06H15.3946ZM19.9875 7.42895L24.4905 12.061L24.4961 12.065L27.7559 15.4197C27.8618 15.5269 27.9461 15.656 28.0038 15.7992C28.0614 15.9423 28.0911 16.0965 28.0911 16.2523C28.0911 16.4081 28.0614 16.5623 28.0038 16.7055C27.9461 16.8486 27.8618 16.9778 27.7559 17.085C27.5372 17.3062 27.2474 17.4294 26.9461 17.4294C26.6449 17.4294 26.3551 17.3062 26.1363 17.085L23.6629 14.542C23.4816 14.3563 23.2401 14.2526 22.9889 14.2526C22.7376 14.2526 22.4961 14.3563 22.3148 14.542L22.2886 14.566C22.2003 14.6553 22.13 14.7629 22.082 14.8822C22.0339 15.0014 22.0092 15.1299 22.0092 15.2597C22.0092 15.3896 22.0339 15.518 22.082 15.6373C22.13 15.7566 22.2003 15.8642 22.2886 15.9534L24.2171 17.9366C24.6665 18.3964 24.6665 19.1441 24.2171 19.6059C24.0183 19.8072 23.76 19.9282 23.4867 19.9482C23.2134 19.9683 22.942 19.8862 22.7193 19.7159C22.5333 19.5725 22.3062 19.5031 22.0774 19.5199C21.8485 19.5367 21.6324 19.6386 21.4667 19.8079C21.3046 19.9733 21.2068 20.1977 21.1926 20.4366C21.1783 20.6755 21.2488 20.9113 21.3899 21.0973C21.558 21.3221 21.6408 21.6061 21.6221 21.8931C21.6034 22.18 21.4844 22.449 21.2888 22.6467C21.0871 22.8509 20.8243 22.9725 20.5469 22.9901C20.2694 23.0076 19.995 22.92 19.7722 22.7427C19.5872 22.5945 19.3591 22.5208 19.1282 22.5347C18.8973 22.5486 18.6784 22.6492 18.5102 22.8186C18.346 22.9838 18.2465 23.2092 18.2316 23.4495C18.2166 23.6898 18.2874 23.9272 18.4297 24.1141C18.6017 24.3419 18.687 24.6305 18.6686 24.9225C18.6502 25.2145 18.5295 25.4883 18.3304 25.6894C18.1088 25.914 17.8149 26.0392 17.5094 26.0392C17.2039 26.0392 16.91 25.914 16.6884 25.6894L15.8776 24.8558L16.1735 24.5519C16.4559 24.2661 16.6809 23.9218 16.8346 23.5402C16.9883 23.1585 17.0676 22.7473 17.0676 22.3318C17.0676 21.9163 16.9883 21.5052 16.8346 21.1235C16.6809 20.7418 16.4559 20.3976 16.1735 20.1117C15.6139 19.5391 14.8738 19.211 14.0989 19.1921C14.0762 18.3826 13.7552 17.6153 13.2058 17.057C12.6455 16.4846 11.9046 16.1572 11.1293 16.1394C11.1066 15.3298 10.7857 14.5626 10.2362 14.0042C9.87651 13.6387 9.44043 13.3699 8.96409 13.22C8.48774 13.0702 7.98482 13.0437 7.49695 13.1426C7.37353 12.541 7.08471 11.9925 6.66749 11.5673C6.34766 11.2414 5.96654 10.9919 5.54945 10.8354C5.13236 10.6789 4.68885 10.619 4.2484 10.6596C4.10089 9.48814 4.21575 8.296 4.58355 7.18112C4.95135 6.06624 5.5616 5.06041 6.36417 4.24626C7.17516 3.41898 8.14752 2.79351 9.21155 2.4147C10.2756 2.03588 11.4049 1.9131 12.5186 2.05516L9.79434 4.19428C9.44577 4.46471 9.15215 4.80776 8.93121 5.20272C8.71026 5.59768 8.56658 6.03635 8.50883 6.49225C8.45109 6.94815 8.48047 7.41182 8.59522 7.85526C8.70997 8.29869 8.90769 8.7127 9.17646 9.07228C9.72001 9.79998 10.5054 10.2759 11.3692 10.401C12.2331 10.5261 13.1088 10.2908 13.8143 9.744L16.7651 7.43095H19.9856L19.9875 7.42895ZM10.9028 5.80362L15.7559 1.99918H16.7595C16.8513 1.99866 16.9431 2.00133 17.0348 2.00718H19.3602C21.989 2.00718 24.3875 3.49656 25.6102 5.8496C26.4378 7.44094 26.655 9.29018 26.2225 11.0355L26.2168 11.0555L21.0491 5.72365C20.874 5.53606 20.6362 5.43036 20.3882 5.42977H16.4562C16.2575 5.43018 16.064 5.49809 15.9039 5.62369L12.7059 8.13066C12.3917 8.37083 12.0035 8.47376 11.6207 8.41839C11.2378 8.36301 10.8892 8.15353 10.6463 7.83278C10.533 7.68386 10.4496 7.51177 10.401 7.3271C10.3524 7.14243 10.3397 6.94909 10.3637 6.759C10.3878 6.56891 10.448 6.38608 10.5407 6.22177C10.6334 6.05747 10.7566 5.91516 10.9028 5.80362ZM11.7304 23.0165L11.7491 22.9966L13.2058 21.4972L13.2226 21.4812C13.4426 21.2676 13.73 21.1508 14.0273 21.1541C14.3246 21.1575 14.6097 21.2807 14.8254 21.4992C14.9313 21.6064 15.0156 21.7355 15.0732 21.8787C15.1309 22.0218 15.1606 22.176 15.1606 22.3318C15.1606 22.4876 15.1309 22.6418 15.0732 22.785C15.0156 22.9281 14.9313 23.0573 14.8254 23.1645L13.3668 24.6639C13.1481 24.885 12.8583 25.0083 12.557 25.0083C12.2558 25.0083 11.966 24.885 11.7472 24.6639C11.6427 24.5582 11.5591 24.4313 11.5015 24.2905C11.4438 24.1498 11.4131 23.9981 11.4114 23.8444C11.4097 23.6908 11.4368 23.5384 11.4913 23.3961C11.5458 23.2539 11.6264 23.1248 11.7285 23.0165H11.7304ZM11.8745 20.0937L11.8558 20.1117L10.3991 21.6111L10.3804 21.6291C10.1603 21.8418 9.87311 21.9579 9.57628 21.9542C9.27945 21.9505 8.99488 21.8273 8.77952 21.6091C8.67481 21.503 8.59119 21.3755 8.53365 21.2342C8.4761 21.0928 8.44582 20.9405 8.44459 20.7864C8.44337 20.6323 8.47123 20.4795 8.52653 20.3372C8.58182 20.1948 8.6634 20.0658 8.76641 19.9578L8.77952 19.9438L10.2362 18.4444L10.2493 18.4304C10.469 18.2152 10.757 18.097 11.0551 18.0996C11.3533 18.1021 11.6394 18.2254 11.8558 18.4444C11.9606 18.5501 12.0444 18.6772 12.1023 18.8181C12.1601 18.959 12.1908 19.111 12.1926 19.2648C12.1943 19.4187 12.1671 19.5714 12.1124 19.7138C12.0578 19.8562 11.9769 19.9854 11.8745 20.0937ZM8.88811 17.057L7.42954 18.5564L7.41644 18.5704C7.19674 18.7856 6.90876 18.9039 6.61061 18.9013C6.31246 18.8987 6.02633 18.7754 5.80995 18.5564C5.70406 18.4492 5.61973 18.32 5.5621 18.1769C5.50447 18.0337 5.47475 17.8795 5.47475 17.7237C5.47475 17.5679 5.50447 17.4137 5.5621 17.2706C5.61973 17.1274 5.70406 16.9983 5.80995 16.8911L7.26665 15.3917C7.48548 15.1699 7.77568 15.0463 8.07738 15.0463C8.37908 15.0463 8.66928 15.1699 8.88811 15.3917C8.99311 15.4978 9.07698 15.6254 9.13469 15.767C9.19241 15.9085 9.22278 16.061 9.22401 16.2154C9.22523 16.3697 9.19728 16.5228 9.14181 16.6653C9.08635 16.8079 9.00452 16.937 8.90122 17.045L8.88811 17.057ZM5.31939 14.62L3.86269 16.1194C3.64407 16.3416 3.3538 16.4655 3.05196 16.4655C2.75012 16.4655 2.45985 16.3416 2.24123 16.1194C2.13504 16.0121 2.05046 15.8829 1.99265 15.7395C1.93485 15.5962 1.90503 15.4418 1.90503 15.2857C1.90503 15.1297 1.93485 14.9752 1.99265 14.8319C2.05046 14.6886 2.13504 14.5593 2.24123 14.4521L3.6998 12.9527C3.91854 12.7315 4.20834 12.6082 4.50959 12.6082C4.81085 12.6082 5.10065 12.7315 5.31939 12.9527C5.42558 13.0599 5.51016 13.1892 5.56796 13.3325C5.62577 13.4759 5.65558 13.6303 5.65558 13.7863C5.65558 13.9424 5.62577 14.0968 5.56796 14.2402C5.51016 14.3835 5.42558 14.5127 5.31939 14.62Z" fill="#192A3E"/>
</svg>
