<svg width="30" height="30" viewBox="0 0 30 30" fill="none" xmlns="http://www.w3.org/2000/svg">
<path d="M28.0927 11.3076H25.2689V15.9908C25.2689 18.3363 23.3607 20.2445 21.0152 20.2445H14.1602V21.9843C14.1602 23.0355 15.0155 23.8909 16.0667 23.8909H22.1342L25.027 27.3976C25.2003 27.6074 25.4562 27.7249 25.7214 27.7249C25.7874 27.7249 25.854 27.7175 25.9201 27.7027C26.2513 27.6278 26.5122 27.3726 26.5946 27.043L27.3829 23.8909H28.0927C29.1439 23.8909 29.9992 23.0358 29.9992 21.9843V13.2142C29.9992 12.1627 29.1439 11.3076 28.0927 11.3076Z" fill="#3CB98A"/>
<path d="M21.0159 0H2.45361C1.10069 0 0 1.10069 0 2.45361V15.9906C0 17.3435 1.10069 18.444 2.45361 18.444H4.25743L5.56664 23.6799C5.6488 24.0097 5.90973 24.2647 6.24115 24.3398C6.3073 24.3546 6.37367 24.362 6.43982 24.362C6.70509 24.3617 6.96098 24.2443 7.13402 24.0344L11.7462 18.444H21.0159C22.3689 18.444 23.4695 17.3435 23.4695 15.9906V2.45361C23.4695 1.10069 22.3689 0 21.0159 0V0ZM17.021 8.59955L15.0309 10.5396L15.5008 13.2786C15.5587 13.6164 15.4198 13.9577 15.1426 14.1591C14.9858 14.2731 14.8002 14.331 14.6134 14.331C14.4701 14.331 14.3264 14.2969 14.1946 14.2275L11.7348 12.9343L9.27475 14.2275C8.97148 14.3871 8.60413 14.3605 8.32672 14.1591C8.04955 13.9577 7.91084 13.6164 7.96875 13.2786L8.43864 10.5393L6.44829 8.59955C6.20316 8.36037 6.11481 8.00262 6.22055 7.67693C6.32652 7.351 6.60828 7.11342 6.94725 7.06421L9.69749 6.66458L10.9275 4.17229C11.0793 3.86513 11.3921 3.67058 11.7348 3.67058C12.0774 3.67058 12.3903 3.86513 12.5418 4.17229L13.7718 6.66458L16.5221 7.06421C16.8613 7.11342 17.143 7.351 17.2488 7.67693C17.3547 8.00285 17.2664 8.36037 17.021 8.59955Z" fill="#3CB98A"/>
<path d="M12.3676 7.8858L11.7354 6.60498L11.1032 7.8858C10.9721 8.15154 10.7187 8.33556 10.4255 8.37836L9.01172 8.58366L10.0346 9.5809C10.2468 9.78758 10.3436 10.0856 10.2935 10.3776L10.052 11.7855L11.3166 11.1208C11.5786 10.983 11.892 10.983 12.1543 11.1208L13.4186 11.7855L13.1771 10.3776C13.127 10.0856 13.2238 9.78758 13.436 9.5809L14.4589 8.58366L13.0453 8.37836C12.7521 8.33556 12.4987 8.15154 12.3676 7.8858Z" fill="#3CB98A"/>
</svg>
