<svg width="31" height="28" viewBox="0 0 31 28" fill="none" xmlns="http://www.w3.org/2000/svg">
<path d="M15.5 6.22222V0H0V28H31V6.22222H15.5ZM6.2 24.8889H3.1V21.7778H6.2V24.8889ZM6.2 18.6667H3.1V15.5556H6.2V18.6667ZM6.2 12.4444H3.1V9.33333H6.2V12.4444ZM6.2 6.22222H3.1V3.11111H6.2V6.22222ZM12.4 24.8889H9.3V21.7778H12.4V24.8889ZM12.4 18.6667H9.3V15.5556H12.4V18.6667ZM12.4 12.4444H9.3V9.33333H12.4V12.4444ZM12.4 6.22222H9.3V3.11111H12.4V6.22222ZM27.9 24.8889H15.5V21.7778H18.6V18.6667H15.5V15.5556H18.6V12.4444H15.5V9.33333H27.9V24.8889ZM24.8 12.4444H21.7V15.5556H24.8V12.4444ZM24.8 18.6667H21.7V21.7778H24.8V18.6667Z" fill="#192A3E"/>
</svg>
