<svg width="47" height="50" viewBox="0 0 47 50" fill="none" xmlns="http://www.w3.org/2000/svg">
<path d="M45.7047 24.5542C45.3419 24.1103 44.8178 23.8685 44.2531 23.8685H10.258L7.23348 12.7382C6.95119 11.6898 6.02368 11.0042 4.93487 11.0042H0.902231C0.458742 11.0042 0.0957031 11.3673 0.0957031 11.8107C0.0957031 12.2546 0.458742 12.6172 0.902231 12.6172H4.89465C5.25738 12.6172 5.53977 12.8189 5.62052 13.1415L13.3632 41.6929C13.5648 42.4588 14.2907 43.0235 15.0972 43.0235H40.5835C41.4303 43.0235 42.156 42.4588 42.3577 41.6522L45.9468 26.0459C46.1485 25.5217 46.0276 24.9574 45.7047 24.5542ZM37.9217 36.8938H17.7585C17.3151 36.8938 16.9519 36.5308 16.9519 36.0873C16.9519 35.6438 17.3151 35.2808 17.7585 35.2808H37.9217C38.3656 35.2808 38.7282 35.6439 38.7282 36.0873C38.7282 36.5307 38.3656 36.8938 37.9217 36.8938ZM39.9786 31.3288H15.7021C15.2582 31.3288 14.8956 30.9659 14.8956 30.5223C14.8956 30.0786 15.2582 29.7157 15.7021 29.7157H39.9786C40.4221 29.7157 40.7851 30.0786 40.7851 30.5223C40.7851 30.9659 40.4221 31.3288 39.9786 31.3288ZM23.2432 47.1369C23.2432 45.5553 21.9432 44.2735 20.3397 44.2735C18.7361 44.2735 17.4361 45.5553 17.4361 47.1369C17.4361 48.718 18.736 49.9999 20.3396 49.9999C21.9431 49.9999 23.2432 48.718 23.2432 47.1369ZM38.8897 47.1369C38.8897 45.5553 37.5898 44.2735 35.9862 44.2735C34.3826 44.2735 33.0826 45.5553 33.0826 47.1369C33.0826 48.718 34.3825 49.9999 35.9861 49.9999C37.5897 49.9999 38.8897 48.718 38.8897 47.1369ZM17.2745 10.0367C17.4762 10.0367 17.7183 9.9559 17.8794 9.83502L28.4048 2.25335L38.8091 9.79439C39.0107 9.9559 39.293 10.0367 39.5754 9.99602C39.8573 9.9559 40.0996 9.79439 40.2606 9.59276C40.4221 9.39113 40.5028 9.10884 40.4622 8.82686C40.4221 8.54447 40.2606 8.30231 40.059 8.18134L29.0097 0.196809C28.6467 -0.0449482 28.1627 -0.0854762 27.7999 0.196809L16.6697 8.22196C16.2263 8.54447 16.1053 9.1895 16.4279 9.63339C16.6697 9.87514 16.952 10.0367 17.2745 10.0367Z" fill="#3CB98A"/>
<path d="M36.9131 22.2957C37.3569 22.2957 37.7197 21.9331 37.7197 21.4892V11.0044C37.7197 10.7626 37.5987 10.5204 37.397 10.3593L28.8884 4.06822C28.6061 3.86658 28.2028 3.86658 27.9204 4.06822L19.2904 10.4401C19.0888 10.6011 18.9678 10.8434 18.9678 11.0851V21.4893C18.9678 21.9331 19.3309 22.2959 19.7743 22.2959H24.8557C24.8152 21.9331 24.7751 21.6102 24.7751 21.4893V14.9968C24.7751 14.5531 25.1377 14.1902 25.5816 14.1902H31.1465C31.5899 14.1902 31.9531 14.5531 31.9531 14.9968V22.2959L36.9131 22.2957Z" fill="#3CB98A"/>
<path d="M26.4287 15.8032H30.3404V22.2956H26.4287V15.8032Z" fill="#3CB98A"/>
</svg>
