<svg width="22" height="24" viewBox="0 0 22 24" fill="none" xmlns="http://www.w3.org/2000/svg">
<g clip-path="url(#clip0_970_6240)">
<path d="M3.71065 2.4H7.57712V0H0V8.4032H2.16407V4.0832L7.90029 10.4384L9.43534 8.7488L3.71065 2.4Z" fill="white"/>
<path d="M9.41225 15.2385L7.87721 13.5361L2.16407 19.8721V15.6033H0V24.0001H7.57712V21.6001H3.67603L9.41225 15.2385Z" fill="white"/>
<path d="M14.0692 0V2.4H17.9299L12.2168 8.7488L13.7403 10.4384L19.4765 4.0704V8.4032H21.6406V0H14.0692Z" fill="white"/>
<path d="M19.4767 15.6032V19.8848L13.7636 13.5488L12.2285 15.2384L17.959 21.6H14.0694V24H21.6408V15.6032H19.4767Z" fill="white"/>
</g>
<defs>
<clipPath id="clip0_970_6240">
<rect width="21.6407" height="24" fill="white"/>
</clipPath>
</defs>
</svg>
