<svg width="20" height="16" viewBox="0 0 20 16" fill="none" xmlns="http://www.w3.org/2000/svg">
<path d="M18.3337 5.0835H1.66699M1.66699 8.41683H4.62256C5.07272 8.41683 5.29779 8.41683 5.51544 8.45562C5.70862 8.49006 5.89708 8.54712 6.07691 8.62563C6.27953 8.71407 6.4668 8.83892 6.84136 9.08863L7.32596 9.4117C7.70052 9.6614 7.88779 9.78625 8.0904 9.8747C8.27024 9.9532 8.4587 10.0103 8.65188 10.0447C8.86952 10.0835 9.0946 10.0835 9.54476 10.0835H10.4559C10.906 10.0835 11.1311 10.0835 11.3488 10.0447C11.542 10.0103 11.7304 9.9532 11.9102 9.8747C12.1129 9.78625 12.3001 9.6614 12.6747 9.4117L13.1593 9.08863C13.5338 8.83893 13.7211 8.71407 13.9237 8.62563C14.1036 8.54712 14.292 8.49006 14.4852 8.45562C14.7029 8.41683 14.9279 8.41683 15.3781 8.41683H18.3337M1.66699 4.00016L1.66699 12.0002C1.66699 12.9336 1.66699 13.4003 1.84865 13.7568C2.00844 14.0704 2.2634 14.3254 2.57701 14.4852C2.93353 14.6668 3.40024 14.6668 4.33366 14.6668L15.667 14.6668C16.6004 14.6668 17.0671 14.6668 17.4236 14.4852C17.7372 14.3254 17.9922 14.0704 18.152 13.7568C18.3337 13.4003 18.3337 12.9336 18.3337 12.0002V4.00016C18.3337 3.06674 18.3337 2.60003 18.152 2.24351C17.9922 1.92991 17.7372 1.67494 17.4236 1.51515C17.0671 1.3335 16.6004 1.3335 15.667 1.3335L4.33366 1.3335C3.40024 1.3335 2.93353 1.3335 2.57701 1.51515C2.2634 1.67494 2.00844 1.92991 1.84865 2.24351C1.66699 2.60003 1.66699 3.06674 1.66699 4.00016Z" stroke="white" stroke-width="2" stroke-linecap="round" stroke-linejoin="round"/>
</svg>
