<svg width="240" height="225" viewBox="0 0 240 225" fill="none" xmlns="http://www.w3.org/2000/svg">
<g filter="url(#filter0_d_1410_6904)">
<rect x="4" width="232" height="217" rx="12" fill="#051204"/>
<g clip-path="url(#clip0_1410_6904)">
<g clip-path="url(#clip1_1410_6904)">
<path d="M113.253 160.001C112.934 158.937 112.61 157.889 112.306 156.841C110.852 151.779 109.378 146.725 107.966 141.651C107.665 140.58 107.142 140.258 106.045 140.261C90.4913 140.3 74.9372 140.296 59.3831 140.281C54.0303 140.277 50.0283 137.548 48.5583 132.851C48.1889 131.675 48.0234 130.382 48.0234 129.144C48.0003 102.165 47.9926 75.1859 48.0119 48.207C48.0157 41.6466 52.5796 37.0156 59.0598 37.0117C99.3343 36.9923 139.613 36.9961 179.887 37.0117C186.39 37.0117 190.977 41.6117 190.981 48.1565C191.004 75.1354 191.004 102.114 190.981 129.093C190.977 135.685 186.513 140.211 179.941 140.265C172.31 140.327 164.675 140.281 157.041 140.281C156.475 140.281 155.913 140.281 155.551 140.281C155.101 146.985 154.666 153.518 154.224 160.137C154.028 160.082 154.166 160.164 154.297 160.152C157.414 159.83 158.007 161.119 157.945 164.015C157.853 168.323 157.93 172.636 157.918 176.945C157.91 179.278 157.202 179.996 154.924 179.996C140.906 180 126.891 180 112.872 179.996C110.655 179.996 109.917 179.27 109.913 177.065C109.901 172.706 109.909 168.347 109.909 163.987C109.909 160.688 110.024 160.544 113.253 160.001ZM80.6055 82.0684C76.7997 81.3697 76.334 80.0654 78.6699 77.022C83.1952 71.1255 87.7322 65.2367 92.2422 59.3285C92.8964 58.4667 93.6814 58.1989 94.7242 58.1989C105.718 58.2222 116.716 58.226 127.71 58.195C128.984 58.1911 129.869 58.6259 130.658 59.6274C135.187 65.3997 139.759 71.1371 144.319 76.8862C144.677 77.3403 145.069 77.7751 145.385 78.2564C146.351 79.7238 145.777 81.2998 144.123 81.8045C143.815 81.8976 143.507 82.0024 143.168 82.1111C143.168 89.2033 143.176 96.2256 143.164 103.248C143.164 105.22 142.426 105.977 140.486 106.004C138.423 106.031 136.357 106.012 134.291 106.012C131.805 106.012 129.315 106.012 126.752 106.012V117.479C130.096 116.57 132.909 117.246 135.045 119.952C140.074 118.243 142.26 119.028 145.423 123.628C147.293 123.034 149.156 123.003 151.03 123.764C151.761 124.059 152.588 124.245 153.373 124.249C160.096 124.288 166.819 124.268 173.538 124.268H175V53.1175H73.1132V124.187H99.2227C98.9187 123.577 98.6801 123.069 98.4184 122.572C97.4102 120.662 97.7296 119.575 99.6267 118.542C104.144 116.077 109.336 117.343 112.202 121.605C112.322 121.78 112.472 121.935 112.714 122.226V106.008C112.048 106.008 111.483 106.008 110.917 106.008C101.847 106.008 92.7809 106.008 83.7109 106.008C81.2904 106.008 80.6093 105.321 80.6055 102.922C80.6055 96.4779 80.6055 90.034 80.6055 83.594C80.6055 83.0777 80.6055 82.5576 80.6055 82.0684ZM105.63 135.801C104.483 133.689 103.425 131.861 102.49 129.967C102.039 129.054 101.466 128.783 100.481 128.787C90.8799 128.825 81.2789 128.81 71.674 128.806C69.2227 128.806 68.5262 128.096 68.5262 125.588C68.5262 100.934 68.5262 76.2767 68.5262 51.623C68.5262 49.2628 69.2112 48.5447 71.4816 48.5447C106.526 48.5447 141.575 48.5447 176.62 48.5447C178.933 48.5447 179.637 49.2473 179.637 51.5725C179.641 76.2767 179.641 100.981 179.637 125.685C179.637 128.08 178.906 128.806 176.531 128.81C169.859 128.814 163.186 128.81 156.513 128.81H155.136V135.801C155.817 135.801 156.336 135.801 156.856 135.801C164.344 135.801 171.833 135.801 179.325 135.801C184.124 135.801 186.571 133.321 186.571 128.445C186.571 101.901 186.571 75.3567 186.571 48.8125C186.571 44.0184 184.143 41.5496 179.41 41.5496C139.466 41.5496 99.5228 41.5496 59.5793 41.5496C54.8461 41.5496 52.4257 44.0146 52.4257 48.8125C52.4257 75.3567 52.4257 101.901 52.4257 128.445C52.4257 133.325 54.8654 135.801 59.6717 135.801C74.41 135.801 89.1483 135.801 103.887 135.801H105.63ZM103.263 121.951C104.91 125.017 106.399 127.968 108.05 130.825C110.186 134.524 111.756 138.437 112.918 142.544C114.419 147.843 115.985 153.126 117.474 158.429C117.84 159.737 118.463 160.226 119.895 160.21C128.153 160.129 136.411 160.179 144.665 160.16C146.135 160.16 148.113 160.587 148.937 159.818C149.86 158.953 149.779 156.961 150.056 155.443C151.045 150.017 150.722 144.535 150.653 139.07C150.618 136.116 150.637 133.161 150.564 130.207C150.522 128.573 149.506 127.641 148.013 127.688C146.574 127.735 145.72 128.647 145.677 130.246C145.646 131.457 145.681 132.669 145.666 133.88C145.643 135.634 144.8 136.675 143.426 136.686C142.048 136.698 141.175 135.65 141.159 133.907C141.14 131.438 141.167 128.965 141.148 126.496C141.136 124.594 140.267 123.604 138.681 123.624C137.119 123.643 136.257 124.66 136.245 126.566C136.23 129.086 136.257 131.605 136.234 134.124C136.218 135.681 135.376 136.651 134.083 136.686C132.747 136.721 131.839 135.716 131.824 134.089C131.801 131.376 131.824 128.662 131.809 125.953C131.801 125.087 131.828 124.194 131.651 123.356C131.378 122.079 130.419 121.539 129.184 121.605C127.937 121.675 127.118 122.339 126.948 123.643C126.879 124.167 126.898 124.707 126.895 125.239C126.887 128.193 126.925 131.151 126.868 134.101C126.837 135.572 125.921 136.438 124.636 136.434C123.358 136.434 122.473 135.529 122.404 134.097C122.304 132.121 122.177 130.141 122.169 128.162C122.142 119.105 122.169 110.045 122.146 100.989C122.142 99.2107 121.161 98.0617 119.799 98.0734C118.332 98.085 117.274 99.2729 117.251 101.004C117.224 102.922 117.243 104.843 117.243 106.765C117.243 114.563 117.236 122.362 117.251 130.161C117.251 131.415 117.063 132.525 115.708 132.94C114.307 133.367 113.461 132.626 112.791 131.457C111.448 129.109 110.044 126.799 108.681 124.466C107.504 122.455 105.799 121.582 103.271 121.962L103.263 121.951ZM138.67 81.9986H108.624V101.392H112.737C113.157 96.6021 115.481 93.8887 119.264 93.617C120.911 93.5005 122.396 93.8965 123.731 94.8786C125.929 96.4973 126.617 98.8497 126.737 101.427H138.674V81.9986H138.67ZM138.939 77.3869C138.454 76.7464 138.177 76.3621 137.881 75.9933C134.675 71.9484 131.447 67.9229 128.284 63.847C127.66 63.0434 127.021 62.7096 126.002 62.7174C117.605 62.7562 109.212 62.7368 100.816 62.7445C100.323 62.7445 99.8345 62.7989 99.2458 62.8338C99.3843 63.156 99.4151 63.2996 99.4959 63.4044C102.994 67.8298 106.476 72.2667 110.028 76.6455C110.375 77.0764 111.148 77.3559 111.729 77.3597C116.862 77.4141 121.996 77.3908 127.129 77.3908C130.958 77.3908 134.787 77.3908 138.939 77.3908V77.3869ZM114.423 175.33H153.373V164.535C152.177 164.748 151.111 165.101 150.041 165.105C139.201 165.148 128.361 165.144 117.52 165.105C116.516 165.105 115.512 164.768 114.423 164.574V175.33ZM87.7784 101.443C87.7784 97.7783 87.7707 94.2109 87.7784 90.6396C87.7822 88.5084 88.498 87.7864 90.6337 87.767C93.1773 87.7476 95.7209 87.7476 98.2606 87.767C100.469 87.7825 101.131 88.4774 101.139 90.7599C101.151 93.8111 101.139 96.8583 101.147 99.9095C101.147 100.418 101.189 100.93 101.212 101.4H103.894V82.0063H85.177V101.439H87.7745L87.7784 101.443ZM104.691 77.3364C101.116 72.8296 97.7219 68.5518 94.2355 64.1536C90.8299 68.5828 87.5321 72.8723 84.0996 77.3364H104.691ZM92.3191 92.3127V101.377H96.6098V92.3127H92.3191Z" fill="#3CB98A"/>
<path d="M158.579 111.419C161.454 111.419 164.328 111.411 167.203 111.419C168.981 111.427 169.947 112.227 169.962 113.655C169.978 115.111 169.042 115.945 167.257 115.949C161.508 115.969 155.755 115.969 150.006 115.949C148.274 115.945 147.224 115.068 147.204 113.706C147.185 112.297 148.274 111.419 150.094 111.415C152.923 111.404 155.747 111.415 158.576 111.415L158.579 111.419Z" fill="#3CB98A"/>
<path d="M158.541 66.0829C155.667 66.0829 152.792 66.0906 149.918 66.0829C148.209 66.0751 147.162 65.1745 147.208 63.7926C147.251 62.4572 148.244 61.6381 149.902 61.6381C155.697 61.6265 161.493 61.6265 167.292 61.6381C169.062 61.6381 170.005 62.4727 169.966 63.9245C169.932 65.3065 169 66.079 167.307 66.0867C164.387 66.0984 161.462 66.0867 158.541 66.0867V66.0829Z" fill="#3CB98A"/>
<path d="M160.727 78.5242C158.622 78.5242 156.513 78.5397 154.408 78.5203C152.665 78.5048 151.699 77.6547 151.726 76.2106C151.749 74.8287 152.684 74.0018 154.358 73.9941C158.668 73.9708 162.978 73.9747 167.288 73.9941C169.043 74.0018 169.997 74.8597 169.97 76.3077C169.943 77.7284 168.977 78.5164 167.196 78.5281C165.041 78.5397 162.886 78.5281 160.731 78.5281L160.727 78.5242Z" fill="#3CB98A"/>
<path d="M160.776 103.291C158.618 103.291 156.455 103.302 154.296 103.287C152.642 103.275 151.706 102.437 151.722 101.027C151.737 99.6688 152.626 98.8497 154.215 98.8419C158.633 98.8225 163.051 98.8225 167.468 98.8419C169.065 98.8497 169.947 99.6571 169.97 101.02C169.989 102.429 169.058 103.271 167.407 103.287C165.198 103.302 162.989 103.291 160.78 103.291H160.776Z" fill="#3CB98A"/>
<path d="M160.988 86.4082C163.143 86.4082 165.294 86.3927 167.449 86.4121C169.004 86.4276 169.927 87.2467 169.97 88.5782C170.012 89.9912 169.108 90.8724 167.453 90.884C163.051 90.9112 158.649 90.9112 154.246 90.884C152.592 90.8724 151.687 89.9951 151.726 88.5821C151.764 87.2545 152.692 86.4276 154.242 86.416C156.49 86.3927 158.741 86.4121 160.988 86.4121V86.4082Z" fill="#3CB98A"/>
<path d="M60.5251 94.9329C57.0618 94.9484 54.3104 92.2156 54.272 88.7219C54.2296 85.2011 57.058 82.3285 60.5405 82.3557C63.9461 82.379 66.7553 85.236 66.7514 88.6676C66.7476 92.1224 63.9692 94.9212 60.5251 94.9368V94.9329ZM60.6444 86.8974C59.5131 86.8741 58.6704 87.6738 58.7242 88.6831C58.782 89.7467 59.3938 90.3601 60.4366 90.4416C61.4333 90.5192 62.2607 89.673 62.2299 88.6404C62.1991 87.5496 61.5872 86.9945 60.6444 86.8974Z" fill="#3CB98A"/>
<path d="M60.4487 77.6275C59.5367 77.6275 58.6247 77.6702 57.7204 77.6198C56.3158 77.5382 55.3769 76.6105 55.3615 75.3799C55.3461 74.1455 56.2889 73.144 57.6704 73.0974C59.5367 73.0353 61.4069 73.0392 63.2732 73.0974C64.6932 73.1401 65.6052 74.0717 65.6206 75.3295C65.636 76.5911 64.7394 77.5266 63.3271 77.6159C62.3728 77.678 61.4108 77.6275 60.4526 77.6275H60.4487Z" fill="#3CB98A"/>
<path d="M60.5297 112.556C59.5715 112.556 58.6133 112.591 57.6552 112.549C56.2891 112.487 55.3347 111.512 55.3578 110.266C55.3809 109.071 56.2621 108.123 57.5897 108.077C59.5523 108.011 61.5187 108.003 63.4774 108.085C64.7973 108.139 65.64 109.129 65.6169 110.348C65.5938 111.559 64.7088 112.471 63.4004 112.545C62.4461 112.595 61.484 112.556 60.5259 112.556H60.5297Z" fill="#3CB98A"/>
<path d="M60.4598 60.6677C59.4554 60.6677 58.4434 60.7298 57.4467 60.6522C56.1614 60.5513 55.4572 59.7438 55.3726 58.4706C55.2956 57.2866 56.2384 56.2502 57.516 56.2075C59.5247 56.1415 61.5411 56.1376 63.5498 56.2152C64.7658 56.2618 65.6009 57.2439 65.6201 58.4007C65.6393 59.5614 64.8505 60.5241 63.6152 60.6405C62.5724 60.7376 61.5103 60.66 60.4598 60.66V60.6677Z" fill="#3CB98A"/>
<path d="M60.4645 104.183C59.5063 104.183 58.5481 104.222 57.5938 104.176C56.2739 104.11 55.385 103.213 55.358 102.006C55.3311 100.798 56.2162 99.7969 57.5091 99.7619C59.5178 99.7037 61.5304 99.7037 63.5391 99.7658C64.759 99.8046 65.5979 100.76 65.6171 101.92C65.6402 103.139 64.7667 104.059 63.4776 104.18C63.3814 104.187 63.2851 104.191 63.1889 104.191C62.2808 104.191 61.3688 104.191 60.4606 104.191C60.4606 104.191 60.4606 104.191 60.4606 104.187L60.4645 104.183Z" fill="#3CB98A"/>
<path d="M60.4215 69.2583C59.5134 69.2583 58.6014 69.2855 57.6932 69.2506C56.3041 69.1962 55.3574 68.2646 55.3574 67.0107C55.3574 65.8112 56.2425 64.8447 57.5547 64.802C59.5172 64.7398 61.4798 64.7398 63.4423 64.802C64.7622 64.8447 65.6242 65.8035 65.6204 67.0146C65.6165 68.2335 64.7391 69.1341 63.4385 69.2467C63.3423 69.2544 63.2461 69.2506 63.1499 69.2506C62.2417 69.2506 61.3297 69.2506 60.4215 69.2506V69.2583Z" fill="#3CB98A"/>
<path d="M60.5137 121.097C59.5093 121.097 58.4973 121.155 57.5006 121.081C56.1845 120.984 55.3226 120.017 55.3533 118.818C55.3841 117.622 56.3 116.679 57.6006 116.644C59.5132 116.597 61.4334 116.597 63.3459 116.644C64.6696 116.675 65.5624 117.564 65.6163 118.775C65.6701 120.045 64.7928 121 63.3844 121.093C62.43 121.155 61.4718 121.104 60.5137 121.104V121.093V121.097Z" fill="#3CB98A"/>
</g>
</g>
</g>
<defs>
<filter id="filter0_d_1410_6904" x="0" y="0" width="240" height="225" filterUnits="userSpaceOnUse" color-interpolation-filters="sRGB">
<feFlood flood-opacity="0" result="BackgroundImageFix"/>
<feColorMatrix in="SourceAlpha" type="matrix" values="0 0 0 0 0 0 0 0 0 0 0 0 0 0 0 0 0 0 127 0" result="hardAlpha"/>
<feOffset dy="4"/>
<feGaussianBlur stdDeviation="2"/>
<feComposite in2="hardAlpha" operator="out"/>
<feColorMatrix type="matrix" values="0 0 0 0 0 0 0 0 0 0 0 0 0 0 0 0 0 0 0.25 0"/>
<feBlend mode="normal" in2="BackgroundImageFix" result="effect1_dropShadow_1410_6904"/>
<feBlend mode="normal" in="SourceGraphic" in2="effect1_dropShadow_1410_6904" result="shape"/>
</filter>
<clipPath id="clip0_1410_6904">
<rect width="143" height="143" fill="white" transform="translate(49 37)"/>
</clipPath>
<clipPath id="clip1_1410_6904">
<rect width="143" height="143" fill="white" transform="translate(48 37)"/>
</clipPath>
</defs>
</svg>
