<svg width="240" height="225" viewBox="0 0 240 225" fill="none" xmlns="http://www.w3.org/2000/svg">
<g filter="url(#filter0_d_1410_6822)">
<rect x="4" width="232" height="217" rx="12" fill="#051204"/>
<g clip-path="url(#clip0_1410_6822)">
<path d="M46.9994 154.004C48.1494 149.994 49.0858 145.91 50.4987 141.999C53.5543 133.512 58.2117 125.92 64.2081 119.182C72.6029 109.741 82.772 102.93 94.7072 98.7558C95.0029 98.6572 95.2739 98.5011 95.6682 98.3203C85.8605 90.4407 80.5953 80.3426 80.5788 67.8371C80.5624 57.4597 84.3738 48.4626 91.709 41.117C106.478 26.3109 130.085 26.3438 145.249 40.9856C159.566 54.8057 162.03 82.3475 141.478 98.3286C144.107 99.4213 146.736 100.448 149.315 101.599C151.935 102.757 153.274 105.255 152.773 107.786C152.067 111.352 148.559 113.192 145.06 111.902C141.273 110.505 137.544 108.854 133.65 107.868C118.717 104.097 104.293 105.764 90.5672 112.765C78.6732 118.829 69.7362 127.924 63.6166 139.773C61.1524 144.538 59.4274 149.6 58.3349 154.858C57.6532 158.153 59.756 161.168 63.0745 161.719C63.7563 161.834 64.4627 161.834 65.1609 161.834C87.3637 161.834 109.567 161.834 131.761 161.859C132.771 161.859 133.848 161.924 134.768 162.269C136.969 163.099 138.16 164.816 138.324 167.166C138.48 169.401 137.191 171.488 135.145 172.466C134.735 172.663 134.308 172.836 133.889 173.025H61.8013C61.596 172.934 61.3988 172.811 61.177 172.77C55.6982 171.792 51.5747 168.859 49.0119 163.946C48.0837 162.171 47.6483 160.133 46.9912 158.219C46.9912 156.822 46.9912 155.425 46.9912 154.028L46.9994 154.004ZM118.487 41.1499C103.726 41.1663 91.6597 53.2692 91.7008 68.0179C91.7336 82.9555 103.817 94.779 119.021 94.7544C133.305 94.7379 145.314 82.5118 145.323 67.9768C145.323 53.22 133.24 41.1335 118.495 41.1499H118.487Z" fill="#3CB98A"/>
<path d="M162.36 173C159.025 171.858 157.752 169.491 157.858 166.024C157.998 161.423 157.891 156.822 157.891 152.048C157.3 152.048 156.807 152.048 156.314 152.048C151.895 152.048 147.468 152.056 143.048 152.048C139.475 152.031 136.986 149.764 136.953 146.526C136.921 143.232 139.434 140.89 143.065 140.882C147.944 140.865 152.823 140.882 157.891 140.882C157.891 140.298 157.891 139.805 157.891 139.312C157.891 134.892 157.883 130.463 157.891 126.043C157.908 122.419 160.249 119.897 163.543 119.938C166.779 119.979 169.046 122.468 169.054 126.043C169.071 130.923 169.054 135.804 169.054 140.882C169.629 140.882 170.122 140.882 170.615 140.882C175.034 140.882 179.462 140.873 183.881 140.882C187.511 140.898 190.033 143.232 189.992 146.526C189.959 149.764 187.462 152.04 183.897 152.048C179.018 152.064 174.131 152.048 169.054 152.048V153.593C169.054 157.734 168.948 161.883 169.087 166.024C169.202 169.483 167.921 171.858 164.586 173H162.352H162.36Z" fill="#3CB98A"/>
</g>
</g>
<defs>
<filter id="filter0_d_1410_6822" x="0" y="0" width="240" height="225" filterUnits="userSpaceOnUse" color-interpolation-filters="sRGB">
<feFlood flood-opacity="0" result="BackgroundImageFix"/>
<feColorMatrix in="SourceAlpha" type="matrix" values="0 0 0 0 0 0 0 0 0 0 0 0 0 0 0 0 0 0 127 0" result="hardAlpha"/>
<feOffset dy="4"/>
<feGaussianBlur stdDeviation="2"/>
<feComposite in2="hardAlpha" operator="out"/>
<feColorMatrix type="matrix" values="0 0 0 0 0 0 0 0 0 0 0 0 0 0 0 0 0 0 0.25 0"/>
<feBlend mode="normal" in2="BackgroundImageFix" result="effect1_dropShadow_1410_6822"/>
<feBlend mode="normal" in="SourceGraphic" in2="effect1_dropShadow_1410_6822" result="shape"/>
</filter>
<clipPath id="clip0_1410_6822">
<rect width="143" height="143" fill="white" transform="translate(47 30)"/>
</clipPath>
</defs>
</svg>
