<svg width="240" height="225" viewBox="0 0 240 225" fill="none" xmlns="http://www.w3.org/2000/svg">
<g filter="url(#filter0_d_1410_6824)">
<rect x="4" width="232" height="217" rx="12" fill="#051204"/>
<g clip-path="url(#clip0_1410_6824)">
<g clip-path="url(#clip1_1410_6824)">
<path d="M48 167.713C48 128.238 48 88.7622 48 49.2904C48.0746 49.1785 48.1865 49.074 48.2164 48.9509C49.9397 41.2946 55.289 37 63.1374 37C100.735 37 138.332 37 175.926 37C184.897 37 190.993 43.0967 190.993 52.0701C190.996 89.6689 190.993 127.264 190.993 164.863C190.993 165.281 190.996 165.702 190.978 166.12C190.791 170.116 189.25 173.482 186.333 176.235C184.17 178.276 181.506 179.269 178.705 180H60.2875C59.9928 179.899 59.7056 179.78 59.4034 179.705C54.1027 178.411 50.5067 175.22 48.6938 170.064C48.4215 169.295 48.2275 168.497 48 167.713ZM52.7598 60.8607C52.7598 61.4465 52.7598 61.9017 52.7598 62.3569C52.7598 96.5641 52.7598 130.775 52.7598 164.982C52.7598 171.209 56.7549 175.235 62.9435 175.239C100.642 175.243 138.34 175.243 176.042 175.239C182.238 175.239 186.236 171.217 186.24 164.993C186.244 130.786 186.24 96.5752 186.24 62.3681C186.24 61.8793 186.199 61.3905 186.177 60.8607H52.7598ZM186.125 55.9617C186.125 53.8946 186.356 51.8761 186.08 49.9284C185.356 44.869 181.432 41.7609 176.053 41.7609C138.358 41.7572 100.664 41.7609 62.9696 41.7609C62.5966 41.7609 62.2235 41.746 61.8542 41.7796C58.0046 42.1042 55.2032 43.9847 53.5805 47.5032C52.3159 50.2381 52.8531 53.126 52.7822 55.9654H186.125V55.9617Z" fill="#3CB98A"/>
<path d="M157.64 113.395C157.64 124.242 157.648 135.084 157.637 145.931C157.633 149.979 155.604 152.755 152.06 153.58C151.388 153.736 150.676 153.763 149.986 153.763C129.645 153.77 109.307 153.774 88.9661 153.763C84.3928 153.763 81.3824 150.867 81.3787 146.297C81.3451 124.283 81.3451 102.265 81.3787 80.2478C81.3862 75.6286 84.4189 72.7482 89.0854 72.7482C109.333 72.7444 129.578 72.7444 149.825 72.7482C154.712 72.7482 157.625 75.6473 157.637 80.5761C157.655 91.5158 157.644 102.452 157.644 113.392L157.64 113.395ZM152.858 113.339C152.858 102.541 152.858 91.7434 152.858 80.9455C152.858 78.177 152.176 77.5128 149.382 77.5128C129.462 77.5128 109.542 77.5128 89.6226 77.5128C86.8212 77.5128 86.146 78.1733 86.146 80.9455C86.146 102.493 86.146 124.044 86.146 145.591C86.146 148.371 86.8062 149.013 89.6189 149.013C109.445 149.013 129.272 149.013 149.098 149.013C152.302 149.013 152.858 148.468 152.858 145.315C152.858 134.659 152.858 123.999 152.858 113.343V113.339Z" fill="#3CB98A"/>
<path d="M74.2312 113.295C74.2312 115.481 74.2499 117.667 74.2312 119.85C74.2088 122.249 73.0711 124.048 71.0717 124.809C68.9193 125.626 67.0579 125.074 65.4763 123.469C63.3239 121.283 61.1604 119.104 59.0416 116.884C56.9787 114.72 56.9862 111.795 59.0639 109.623C61.2163 107.369 63.4134 105.161 65.6106 102.952C67.1773 101.377 69.0424 100.926 71.1053 101.765C73.1718 102.605 74.1715 104.269 74.22 106.463C74.2723 108.739 74.2312 111.019 74.2312 113.298V113.295ZM62.4286 113.399C64.6929 115.548 67.0542 117.787 69.3707 119.984V106.631C67.1176 108.828 64.7862 111.097 62.4286 113.395V113.399Z" fill="#3CB98A"/>
<path d="M164.765 113.171C164.765 110.985 164.75 108.802 164.769 106.616C164.792 104.362 165.758 102.646 167.873 101.769C169.988 100.892 171.875 101.403 173.472 103.026C175.591 105.179 177.728 107.321 179.821 109.5C182.063 111.832 182.04 114.731 179.783 117.07C177.717 119.212 175.621 121.324 173.535 123.447C171.957 125.055 170.107 125.63 167.951 124.809C165.948 124.051 164.806 122.246 164.762 119.869C164.762 119.776 164.762 119.682 164.762 119.589C164.762 117.451 164.762 115.313 164.762 113.171H164.765ZM169.637 119.884C171.864 117.675 174.173 115.384 176.527 113.052C174.315 110.97 171.942 108.739 169.637 106.571V119.88V119.884Z" fill="#3CB98A"/>
<path d="M102.775 160.99C102.745 162.341 101.697 163.326 100.335 163.277C99.0745 163.232 98.0524 162.188 98.045 160.941C98.0375 159.662 99.1715 158.535 100.451 158.55C101.757 158.565 102.801 159.665 102.771 160.99H102.775Z" fill="#3CB98A"/>
<path d="M138.567 158.546C139.847 158.546 140.969 159.688 140.951 160.964C140.928 162.27 139.824 163.307 138.496 163.273C137.198 163.24 136.236 162.266 136.221 160.964C136.206 159.635 137.262 158.542 138.567 158.546Z" fill="#3CB98A"/>
<path d="M109.881 163.277C108.572 163.236 107.516 162.105 107.591 160.811C107.662 159.572 108.743 158.542 109.974 158.546C111.284 158.553 112.328 159.639 112.302 160.975C112.28 162.329 111.239 163.318 109.881 163.277Z" fill="#3CB98A"/>
<path d="M129.084 163.277C127.727 163.303 126.701 162.303 126.693 160.945C126.686 159.613 127.745 158.535 129.055 158.546C130.286 158.557 131.36 159.606 131.412 160.841C131.468 162.135 130.401 163.251 129.088 163.273L129.084 163.277Z" fill="#3CB98A"/>
<path d="M119.442 163.277C118.107 163.251 117.096 162.176 117.144 160.841C117.189 159.587 118.237 158.557 119.483 158.55C120.778 158.538 121.859 159.635 121.852 160.953C121.841 162.292 120.789 163.307 119.442 163.281V163.277Z" fill="#3CB98A"/>
<path d="M71.8998 46.5331C73.1868 46.5741 74.276 47.742 74.2126 49.0143C74.1492 50.3202 73.0189 51.3313 71.6984 51.2642C70.4152 51.197 69.4677 50.1821 69.4826 48.8837C69.4975 47.5703 70.6091 46.4883 71.8998 46.5331Z" fill="#3CB98A"/>
<path d="M64.6857 48.9435C64.6671 50.2419 63.5555 51.2978 62.2387 51.268C60.8921 51.2344 59.9147 50.1859 59.9595 48.8203C60.0042 47.548 61.0375 46.5406 62.2946 46.5369C63.5778 46.5369 64.7007 47.6674 64.682 48.9472L64.6857 48.9435Z" fill="#3CB98A"/>
<path d="M83.74 48.8948C83.7512 50.2082 82.6769 51.2753 81.3527 51.2678C80.0732 51.2603 79.0511 50.2753 79.0026 49.003C78.9541 47.7008 80.0135 46.5666 81.3116 46.533C82.5911 46.4994 83.7288 47.6038 83.74 48.8948Z" fill="#3CB98A"/>
<path d="M128.872 91.3815C130.446 87.6317 131.375 87.031 135.479 87.031C136.501 87.031 137.526 86.9974 138.549 87.0421C141.331 87.1541 143.252 89.0719 143.29 91.8628C143.338 95.3999 143.376 98.9371 143.271 102.47C143.23 103.866 143.622 104.855 144.73 105.672C145.472 106.22 146.162 106.869 146.785 107.556C149.247 110.254 148.016 114.571 144.476 115.425C143.439 115.675 143.282 116.104 143.286 117.018C143.316 124.231 143.305 131.443 143.301 138.655C143.301 142.513 141.536 144.259 137.661 144.259C125.515 144.259 113.373 144.259 101.227 144.259C97.4633 144.259 95.684 142.48 95.6802 138.704C95.6728 131.491 95.6616 124.279 95.6952 117.067C95.6989 116.089 95.5161 115.63 94.4157 115.399C92.655 115.026 91.4911 113.761 91.0659 112.007C90.5996 110.093 91.1554 108.429 92.6438 107.093C96.1764 103.926 99.7052 100.75 103.234 97.5789C107.423 93.8179 111.609 90.0532 115.801 86.2959C118.237 84.1132 120.699 84.102 123.154 86.2735C125.056 87.9563 126.94 89.6651 128.861 91.3889L128.872 91.3815ZM138.455 139.446V115.75H100.537V139.401H112.422C112.422 136.707 112.246 134.092 112.463 131.514C112.772 127.846 115.813 125.242 119.438 125.223C123.146 125.201 126.179 127.797 126.548 131.532C126.757 133.655 126.638 135.808 126.671 137.946C126.679 138.435 126.72 138.924 126.746 139.454H138.459L138.455 139.446ZM96.0458 110.459L96.2025 110.769H143.073C135.12 103.552 127.391 96.5379 119.606 89.4749C111.702 96.5155 103.876 103.489 96.0458 110.463V110.459ZM121.8 139.424C121.8 136.86 121.889 134.361 121.762 131.872C121.699 130.67 120.763 130.014 119.539 129.995C118.316 129.976 117.331 130.603 117.26 131.801C117.114 134.331 117.215 136.872 117.215 139.427H121.8V139.424ZM138.463 99.9818V91.9001H133.778C133.778 92.8851 133.729 93.7657 133.796 94.6388C133.837 95.1574 133.901 95.8178 134.229 96.1424C135.508 97.4147 136.9 98.5826 138.463 99.9818Z" fill="#3CB98A"/>
</g>
</g>
</g>
<defs>
<filter id="filter0_d_1410_6824" x="0" y="0" width="240" height="225" filterUnits="userSpaceOnUse" color-interpolation-filters="sRGB">
<feFlood flood-opacity="0" result="BackgroundImageFix"/>
<feColorMatrix in="SourceAlpha" type="matrix" values="0 0 0 0 0 0 0 0 0 0 0 0 0 0 0 0 0 0 127 0" result="hardAlpha"/>
<feOffset dy="4"/>
<feGaussianBlur stdDeviation="2"/>
<feComposite in2="hardAlpha" operator="out"/>
<feColorMatrix type="matrix" values="0 0 0 0 0 0 0 0 0 0 0 0 0 0 0 0 0 0 0.25 0"/>
<feBlend mode="normal" in2="BackgroundImageFix" result="effect1_dropShadow_1410_6824"/>
<feBlend mode="normal" in="SourceGraphic" in2="effect1_dropShadow_1410_6824" result="shape"/>
</filter>
<clipPath id="clip0_1410_6824">
<rect width="143" height="143" fill="white" transform="translate(49 37)"/>
</clipPath>
<clipPath id="clip1_1410_6824">
<rect width="143" height="143" fill="white" transform="translate(48 37)"/>
</clipPath>
</defs>
</svg>
