<svg width="240" height="225" viewBox="0 0 240 225" fill="none" xmlns="http://www.w3.org/2000/svg">
<g filter="url(#filter0_d_1410_6884)">
<rect x="4" width="232" height="217" rx="12" fill="#051204"/>
<g clip-path="url(#clip0_1410_6884)">
<path d="M89.4283 112.157C93.8009 112.336 97.9582 112.542 102.115 112.634C102.61 112.643 103.275 112.157 103.596 111.707C106.442 107.706 110.311 106.247 115.156 106.325C123.355 106.458 131.445 107.371 139.531 108.628C143.615 109.266 147.758 109.5 152.255 109.959C151.824 109.174 151.636 108.839 151.462 108.5C150.641 106.889 150.916 105.632 152.484 104.678C158.387 101.085 164.314 97.52 170.254 93.9869C172.069 92.9086 173.197 93.2757 174.54 95.2625C179.893 103.168 185.233 111.083 190.577 118.998C193.745 123.688 196.916 128.381 200.07 133.08C201.569 135.314 201.289 136.585 198.961 137.994C193.534 141.275 188.093 144.533 182.653 147.795C179.838 149.483 179.068 149.309 177.171 146.611C177.042 146.428 176.896 146.253 176.644 145.923C172.367 148.139 168.086 150.355 163.658 152.649C164.428 153.214 165.075 153.668 165.703 154.15C169.182 156.829 170.552 161.101 169.246 165.162C167.939 169.232 164.355 171.875 159.969 172.086C159.46 172.109 158.704 172.398 158.507 172.788C156.137 177.422 154.675 178.546 149.518 179.459C149.413 179.817 149.284 180.193 149.188 180.579C148.061 185.066 144.288 188.063 139.705 187.975C138.779 187.957 138.316 188.145 137.858 188.999C135.222 193.936 129.607 195.45 124.827 192.477C121.623 190.49 118.52 188.342 114.807 185.892C114.143 186.75 113.423 187.7 112.685 188.636C108.546 193.871 101.002 193.454 98.059 186.599C91.7154 186.759 88.8507 184.846 87.2878 179.423C80.5546 178.56 78.4232 176.683 77.3461 170.622C76.5027 170.379 75.6044 170.205 74.7702 169.87C71.2363 168.438 69.1737 164.685 69.6412 160.849C69.7191 160.234 69.4762 159.399 69.0728 158.931C67.629 157.261 66.0523 155.701 64.3656 153.934C63.8064 154.921 63.3847 155.71 62.9126 156.472C61.9088 158.096 60.4375 158.472 58.8103 157.476C52.7647 153.783 46.7236 150.08 40.6963 146.359C38.8399 145.216 38.5191 143.927 39.6375 142.036C48.5341 127.042 57.4399 112.051 66.3594 97.0703C67.4732 95.2028 68.807 94.877 70.6817 96.0058C76.7457 99.6673 82.8005 103.343 88.8416 107.045C90.6612 108.16 90.7804 109.202 89.4145 112.148L89.4283 112.157ZM118.657 182.024C121.719 184.043 124.708 186.044 127.737 187.989C129.177 188.911 130.671 188.875 132.064 187.852C133.668 186.672 133.673 185.759 132.138 184.566C128.979 182.107 125.803 179.67 122.673 177.184C121.261 176.064 121.073 174.504 122.068 173.27C122.984 172.132 124.524 172.003 125.904 172.962C126.371 173.288 126.811 173.655 127.265 174.004C130.611 176.587 133.907 179.248 137.326 181.735C139.769 183.511 142.822 182.575 143.821 179.927C144.284 178.707 144.201 177.734 142.959 176.83C138.385 173.499 133.898 170.049 129.378 166.639C129.103 166.433 128.814 166.245 128.553 166.025C127.247 164.905 126.986 163.45 127.866 162.239C128.801 160.954 130.332 160.73 131.794 161.812C136.474 165.286 141.117 168.814 145.787 172.311C146.424 172.788 147.084 173.26 147.799 173.6C149.637 174.467 151.815 173.806 152.919 172.109C153.694 170.92 153.845 170.007 152.401 168.989C145.668 164.258 139.022 159.399 132.348 154.581C131.84 154.214 131.299 153.856 130.905 153.379C130.02 152.319 130.025 151.144 130.868 150.08C131.652 149.084 132.724 148.754 133.925 149.286C134.438 149.516 134.911 149.86 135.373 150.19C141.589 154.668 147.795 159.151 154.01 163.629C155.216 164.497 156.407 165.391 157.681 166.148C159.18 167.039 160.766 166.942 162.233 166.029C163.773 165.075 164.456 163.634 164.36 161.817C164.263 159.968 163.154 158.83 161.715 157.857C148.881 149.194 136.056 140.513 123.227 131.836C120.358 129.896 117.493 127.959 114.587 125.995C111.718 129.028 109.119 132.103 106.167 134.787C104.086 136.677 101.685 138.384 99.1407 139.55C94.8139 141.532 90.4412 141.073 86.4215 138.393C84.0747 136.829 83.8914 135.337 85.7202 133.149C89.4924 128.625 93.283 124.114 97.0552 119.595C97.4632 119.108 97.8299 118.59 98.2149 118.085L97.9811 117.434C94.5572 117.434 91.1287 117.493 87.7049 117.401C86.5315 117.369 85.8715 117.695 85.2664 118.737C81.8792 124.568 78.4049 130.35 74.9581 136.145C72.3913 140.467 69.82 144.785 67.1615 149.259C69.2241 151.108 71.25 152.925 73.5693 155.003C74.6831 153.792 75.9894 152.191 77.479 150.796C81.5217 147.001 87.5399 147.836 90.4779 152.516C90.7071 152.883 90.9592 153.232 91.1838 153.562C98.5678 150.809 102.982 153.686 104.444 162.111C108.606 163.157 111.232 165.648 111.81 170.067C111.855 170.402 112.254 170.842 112.584 170.957C118.19 172.903 120.028 176.147 118.648 182.033L118.657 182.024ZM91.2983 134.814C91.7338 134.989 91.9813 135.131 92.2471 135.186C92.6367 135.264 93.0401 135.305 93.4343 135.314C97.1515 135.397 99.9887 133.53 102.445 131.029C105.608 127.808 108.652 124.463 111.759 121.187C113.327 119.535 114.326 119.434 116.256 120.682C116.59 120.898 116.92 121.123 117.255 121.347C130.501 130.309 143.757 139.256 156.98 148.254C158.094 149.011 158.928 149.181 160.189 148.488C164.185 146.285 168.274 144.248 172.326 142.137C172.752 141.913 173.151 141.628 173.614 141.339C167.834 132.777 162.16 124.339 156.407 115.956C156.059 115.451 155.101 115.204 154.4 115.135C148.097 114.529 141.795 113.96 135.488 113.432C128.269 112.827 121.05 112.235 113.826 111.712C111.567 111.547 109.825 112.552 108.367 114.35C104.586 119.012 100.685 123.573 96.8352 128.18C95.011 130.359 93.2005 132.548 91.3075 134.819L91.2983 134.814ZM59.5483 151.617C67.762 137.797 75.884 124.133 84.0426 110.4C79.2162 107.458 74.5593 104.618 69.8108 101.723C61.588 115.557 53.4843 129.184 45.3164 142.927C50.0925 145.845 54.7081 148.662 59.5437 151.617H59.5483ZM157.466 107.903C165.331 119.544 173.11 131.056 180.929 142.628C185.549 139.848 189.986 137.173 194.551 134.424C186.7 122.802 178.912 111.276 171.088 99.6948C166.459 102.48 162.022 105.155 157.466 107.899V107.903ZM82.8463 170.127C82.9059 172.159 83.6301 173.205 84.9639 173.733C86.4581 174.32 87.7278 173.843 88.837 172.719C91.72 169.792 94.6214 166.883 97.5365 163.983C99.2278 162.299 99.3974 160.312 97.9399 158.853C96.574 157.49 94.4931 157.568 92.9209 159.133C89.882 162.152 86.8569 165.18 83.896 168.268C83.3093 168.879 83.0388 169.787 82.8509 170.131L82.8463 170.127ZM106.905 170.544C106.076 169.567 105.457 168.429 104.499 167.823C103.335 167.08 101.95 167.296 100.887 168.346C98.5311 170.673 96.1935 173.013 93.8651 175.367C92.238 177.014 92.1371 178.913 93.558 180.345C94.956 181.754 96.9865 181.721 98.577 180.152C100.892 177.872 103.183 175.555 105.406 173.182C105.993 172.558 106.286 171.659 106.905 170.549V170.544ZM86.7607 156.628C85.9769 155.705 85.4131 154.668 84.5422 154.122C83.3918 153.397 82.09 153.714 81.0908 154.687C79.372 156.357 77.6578 158.041 76.0031 159.775C74.6556 161.179 74.6189 162.992 75.8015 164.226C77.0711 165.552 78.8266 165.511 80.3346 164.052C81.9755 162.464 83.6118 160.863 85.161 159.188C85.7477 158.555 86.1006 157.701 86.7561 156.632L86.7607 156.628ZM114.184 178.611C113.487 177.835 112.965 176.771 112.181 176.509C111.393 176.247 110.086 176.495 109.449 177.037C107.547 178.652 105.846 180.506 104.105 182.304C102.913 183.534 102.899 185.007 103.981 186.08C105.044 187.136 106.571 187.154 107.79 185.979C109.591 184.245 111.333 182.446 113.047 180.62C113.483 180.157 113.703 179.487 114.188 178.615L114.184 178.611Z" fill="#3CB98A"/>
<path d="M125.949 66.108H114.146C114.114 66.7733 114.059 67.379 114.055 67.9847C114.05 74.5094 114.055 81.0295 114.05 87.5541C114.05 90.5366 113.243 91.3396 110.305 91.3396C104.819 91.3396 99.3325 91.3487 93.846 91.3396C91.3297 91.3396 90.4634 90.4678 90.4588 87.9304C90.4496 77.345 90.4588 66.7596 90.4588 56.1742C90.4588 55.5593 90.4588 54.9399 90.4588 53.9304C89.0379 55.0959 87.8829 56.0594 86.7049 56.9955C85.0732 58.2894 83.5423 58.2435 82.4972 56.8899C81.5118 55.6144 81.7868 54.1736 83.3314 52.8797C94.8177 43.2716 106.313 33.6681 117.809 24.0692C119.505 22.6514 120.527 22.6422 122.209 24.0463C133.709 33.6406 145.204 43.2395 156.695 52.8476C158.277 54.169 158.533 55.7474 157.447 57.0093C156.347 58.2894 154.894 58.2619 153.221 56.9129C152.112 56.0182 151.025 55.1005 149.554 53.8846C149.554 54.8068 149.554 55.3804 149.554 55.9539C149.554 66.4797 149.554 77.01 149.554 87.5358C149.554 90.6146 148.812 91.3396 145.695 91.3396C140.323 91.3396 134.951 91.3396 129.575 91.3396C126.829 91.3396 125.963 90.4999 125.958 87.7698C125.944 81.1901 125.954 74.6103 125.954 68.0306C125.954 67.4203 125.954 66.81 125.954 66.108H125.949ZM120.055 29.2403C119.715 29.4835 119.477 29.6303 119.262 29.8093C111.754 36.077 104.232 42.3264 96.7749 48.6538C96.1928 49.1493 95.7848 50.1817 95.7803 50.9663C95.7161 62.0152 95.739 73.0594 95.739 84.1083V85.884H108.683C108.683 85.159 108.683 84.5396 108.683 83.9247C108.683 77.3404 108.678 70.7606 108.683 64.1763C108.683 61.6252 109.549 60.7396 112.043 60.735C117.304 60.7213 122.562 60.7258 127.824 60.735C130.436 60.735 131.303 61.6068 131.307 64.236C131.316 70.8203 131.307 77.4 131.307 83.9844C131.307 84.5992 131.307 85.2095 131.307 85.8656H144.118C144.178 85.5261 144.251 85.3104 144.251 85.0902C144.26 73.5274 144.269 61.9647 144.233 50.402C144.233 49.8651 143.898 49.1631 143.481 48.8144C135.735 42.2989 127.957 35.8293 120.055 29.2403Z" fill="#3CB98A"/>
</g>
</g>
<defs>
<filter id="filter0_d_1410_6884" x="0" y="0" width="240" height="225" filterUnits="userSpaceOnUse" color-interpolation-filters="sRGB">
<feFlood flood-opacity="0" result="BackgroundImageFix"/>
<feColorMatrix in="SourceAlpha" type="matrix" values="0 0 0 0 0 0 0 0 0 0 0 0 0 0 0 0 0 0 127 0" result="hardAlpha"/>
<feOffset dy="4"/>
<feGaussianBlur stdDeviation="2"/>
<feComposite in2="hardAlpha" operator="out"/>
<feColorMatrix type="matrix" values="0 0 0 0 0 0 0 0 0 0 0 0 0 0 0 0 0 0 0.25 0"/>
<feBlend mode="normal" in2="BackgroundImageFix" result="effect1_dropShadow_1410_6884"/>
<feBlend mode="normal" in="SourceGraphic" in2="effect1_dropShadow_1410_6884" result="shape"/>
</filter>
<clipPath id="clip0_1410_6884">
<rect width="162" height="171" fill="white" transform="translate(39 23)"/>
</clipPath>
</defs>
</svg>
