<svg width="240" height="225" viewBox="0 0 240 225" fill="none" xmlns="http://www.w3.org/2000/svg">
<g filter="url(#filter0_d_1410_6846)">
<rect x="4" width="232" height="217" rx="12" fill="#051204"/>
<g clip-path="url(#clip0_1410_6846)">
<g clip-path="url(#clip1_1410_6846)">
<g clip-path="url(#clip2_1410_6846)">
<path d="M48 151.112C48 117.037 48 82.9614 48 48.8861C48.1294 48.4908 48.2798 48.1025 48.3847 47.7003C49.6122 43.0582 52.4904 39.8749 57.1032 38.6016C59.163 38.0314 61.4187 38.0244 63.587 38.0244C101.699 37.993 139.812 37.9999 177.924 38.0069C182.46 38.0069 186.125 39.7805 188.765 43.527C190.559 46.0736 191.007 48.9596 191.003 52.003C190.986 83.9724 190.993 115.945 190.989 147.915C190.989 148.705 191.042 149.513 190.902 150.283C190.661 151.598 190.468 152.973 189.937 154.18C187.646 159.354 183.523 161.897 177.938 161.925C166.212 161.988 154.486 161.946 142.76 161.946H141.074V166.71C144.05 166.71 146.932 166.598 149.8 166.752C151.436 166.84 153.192 167.063 154.643 167.753C158.368 169.516 159.98 172.716 160.018 176.795C160.032 178.464 160.085 180.08 158.326 181.003H80.6777C79.3838 180.248 78.8347 179.132 78.9886 177.635C79.0585 176.942 78.9816 176.236 79.048 175.546C79.4152 171.873 81.2023 169.075 84.5981 167.641C86.1648 166.979 88.0113 166.84 89.7459 166.749C92.4667 166.609 95.198 166.71 97.9189 166.71V161.946C97.2474 161.946 96.6913 161.946 96.1353 161.946C84.4162 161.946 72.7006 161.97 60.9816 161.932C56.5191 161.918 52.7842 160.207 50.3186 156.415C49.2835 154.82 48.7589 152.892 48.0035 151.115L48 151.112ZM186.23 138.018C186.23 137.553 186.23 137.235 186.23 136.917C186.23 108.242 186.237 79.5717 186.216 50.8975C186.216 46.0946 182.806 42.7609 178.008 42.7609C139.004 42.7609 99.9997 42.7609 60.9955 42.7609C60.485 42.7609 59.9674 42.7714 59.4708 42.8623C55.2392 43.6319 52.7772 46.7243 52.7737 51.3103C52.7667 79.7501 52.7702 108.19 52.7702 136.633C52.7702 137.081 52.7702 137.525 52.7702 138.018H186.233H186.23ZM52.7667 142.937C52.7667 144.808 52.7632 146.575 52.7667 148.338C52.7842 154.019 55.9176 157.171 61.5621 157.171C100.196 157.171 138.825 157.171 177.459 157.171C177.784 157.171 178.109 157.178 178.435 157.171C182.243 157.062 185.436 154.582 185.975 150.804C186.335 148.264 186.044 145.63 186.044 142.94H52.7667V142.937ZM155.171 176.18C154.944 173.073 153.08 171.475 149.793 171.471C129.593 171.468 109.393 171.471 89.1934 171.471C88.7737 171.471 88.354 171.478 87.9379 171.51C85.9165 171.663 83.5594 173.797 83.9161 176.18H155.171ZM136.115 166.626V162.047H102.881V166.626H136.115Z" fill="#3CB98A"/>
<path d="M162.4 80.9221C162.4 78.414 162.396 76.0982 162.4 73.7825C162.407 70.2738 163.69 68.9935 167.187 68.9935C169.002 68.9935 170.817 68.976 172.632 69.0005C175.119 69.0355 176.637 70.4977 176.689 72.9989C176.745 75.556 176.7 78.1166 176.7 80.7647C176.993 80.8802 177.287 80.9676 177.56 81.1005C178.585 81.6008 179.127 82.4088 178.987 83.5702C178.854 84.6651 178.214 85.3403 177.13 85.5502C176.633 85.6446 176.115 85.6901 175.608 85.6901C158.014 85.6971 140.42 85.7006 122.825 85.6901C117.583 85.6901 114.74 82.8111 114.736 77.5464C114.733 68.7032 114.736 59.8564 114.736 51.0131C114.736 50.5479 114.715 50.0756 114.785 49.6209C114.964 48.449 115.964 47.571 117.079 47.5535C118.188 47.536 119.22 48.3895 119.423 49.5649C119.51 50.0651 119.489 50.5864 119.489 51.0971C119.489 59.755 119.489 68.4128 119.489 77.0707C119.489 80.4464 120.622 81.3594 124.245 80.7472V79.278C124.245 71.3652 124.245 63.4525 124.245 55.5362C124.245 51.7582 126.025 49.9672 129.785 49.9497C131.04 49.9427 132.299 49.9287 133.555 49.9567C136.622 50.0232 138.503 51.8807 138.514 54.959C138.542 62.9662 138.524 70.9735 138.524 78.9772C138.524 79.5334 138.524 80.0896 138.524 80.7822H143.221C143.242 80.2995 143.284 79.8062 143.284 79.313C143.287 75.1222 143.277 70.935 143.291 66.7442C143.301 63.428 144.872 61.8468 148.155 61.8189C149.736 61.8049 151.32 61.7979 152.905 61.8189C155.972 61.8643 157.57 63.4105 157.598 66.4644C157.64 70.7916 157.647 75.1222 157.584 79.4529C157.566 80.6038 157.895 81.0446 159.07 80.9396C160.081 80.8487 161.109 80.9221 162.386 80.9221H162.4ZM129.099 54.7771V80.8102H133.688V54.7771H129.099ZM148.075 66.6778C148.075 71.2638 148.061 75.7064 148.107 80.1525C148.107 80.4079 148.558 80.8662 148.82 80.8802C150.103 80.9571 151.39 80.9151 152.758 80.9151V66.6778H148.075ZM171.838 80.8347V73.8629H167.254V80.8347H171.838Z" fill="#3CB98A"/>
<path d="M119.836 115.431C121.067 114.165 122.277 112.874 123.536 111.636C126.914 108.312 131.16 108.33 134.556 111.65C135.154 112.234 135.738 112.839 136.336 113.423C138.011 115.067 139.154 115.06 140.847 113.374C143.718 110.516 146.575 107.648 149.44 104.786C153.175 101.057 157.308 101.061 161.05 104.793C161.645 105.384 162.218 105.997 162.83 106.567C164.201 107.837 165.39 107.847 166.737 106.525C169.262 104.045 171.741 101.526 174.249 99.0319C174.609 98.6716 174.976 98.2903 175.41 98.0384C176.445 97.4367 177.487 97.4962 178.333 98.3847C179.169 99.2662 179.243 100.291 178.571 101.323C178.372 101.631 178.103 101.9 177.84 102.163C175.277 104.734 172.727 107.315 170.136 109.862C166.842 113.101 162.687 113.08 159.365 109.845C158.665 109.162 157.994 108.452 157.287 107.777C155.829 106.385 154.612 106.371 153.171 107.798C150.192 110.744 147.243 113.721 144.278 116.676C140.557 120.388 136.556 120.374 132.814 116.648C132.188 116.026 131.583 115.375 130.933 114.78C129.628 113.595 128.376 113.574 127.114 114.808C124.715 117.149 122.326 119.503 120.035 121.945C119.616 122.392 119.528 123.281 119.521 123.97C119.476 128.273 119.759 128.535 124.085 128.535C141.214 128.535 158.34 128.535 175.469 128.546C176.158 128.546 176.889 128.574 177.529 128.794C178.613 129.172 179.12 130.043 178.994 131.204C178.875 132.299 178.239 132.992 177.169 133.216C176.676 133.317 176.151 133.3 175.641 133.3C158.046 133.303 140.455 133.307 122.861 133.3C117.556 133.3 114.751 130.501 114.748 125.229C114.744 116.386 114.748 107.543 114.748 98.6996C114.748 98.1888 114.713 97.6606 114.821 97.1709C115.083 95.999 115.835 95.2854 117.066 95.2574C118.301 95.2259 119.081 95.908 119.395 97.0659C119.525 97.5487 119.5 98.0804 119.5 98.5911C119.507 103.712 119.504 108.83 119.504 113.951C119.504 114.403 119.504 114.85 119.504 115.302C119.616 115.347 119.728 115.389 119.839 115.435L119.836 115.431Z" fill="#3CB98A"/>
<path d="M81.3942 133.293C72.1406 133.303 64.7196 125.887 64.7266 116.631C64.7336 107.389 72.1791 99.9659 81.4221 99.9869C90.5813 100.008 98.0023 107.427 98.0268 116.592C98.0513 125.845 90.6477 133.282 81.3942 133.293ZM91.3192 123.2C93.7183 119.069 93.9596 115.078 91.8543 111.048C90.1581 107.802 87.4513 105.839 83.7548 105.003C83.7548 108.452 83.7443 111.702 83.7688 114.955C83.7688 115.295 83.8702 115.732 84.094 115.959C86.4301 118.342 88.8012 120.689 91.3192 123.2ZM78.9951 105.126C72.1931 106.053 67.5068 114.315 70.3221 120.482C73.0779 118.835 75.8266 117.208 78.551 115.533C78.7958 115.382 78.9741 114.931 78.9776 114.616C79.0091 111.457 78.9951 108.295 78.9951 105.126ZM72.7281 124.614C76.6485 128.976 83.475 129.801 87.801 126.436C85.6677 124.306 83.5554 122.175 81.4047 120.087C81.2228 119.909 80.6877 119.863 80.4569 120C77.9005 121.49 75.3685 123.026 72.7281 124.614Z" fill="#3CB98A"/>
<path d="M93.2715 90.353C93.2715 85.1373 93.2645 80.0231 93.2785 74.9088C93.2785 74.3106 93.296 73.688 93.4534 73.1178C93.7786 71.9319 94.6389 71.3652 95.8594 71.4527C97.0974 71.5401 97.7864 72.2817 97.9857 73.4781C98.0452 73.8419 98.0312 74.2197 98.0312 74.5905C98.0312 80.0825 98.0382 85.5711 98.0312 91.0632C98.0277 93.9736 96.7932 95.2119 93.866 95.2154C85.5357 95.2259 77.2089 95.2259 68.8786 95.2154C65.948 95.2119 64.724 93.9841 64.7205 91.0632C64.7135 85.3857 64.7065 79.7082 64.731 74.0308C64.7379 72.4181 65.6402 71.4562 67.0286 71.4247C68.403 71.3967 69.3402 72.3447 69.4696 73.9223C69.5011 74.2931 69.4801 74.6674 69.4801 75.0382C69.4801 79.5998 69.4801 84.1579 69.4801 88.7194C69.4801 89.2267 69.4801 89.7339 69.4801 90.3461H93.2715V90.353Z" fill="#3CB98A"/>
<path d="M81.3737 52.741C76.1734 57.397 71.0465 61.9831 65.9196 66.5726C65.2971 67.1323 64.6921 67.713 64.0381 68.2342C62.7721 69.2417 61.4852 69.1822 60.5654 68.1188C59.6771 67.0939 59.7995 65.7471 60.9396 64.6452C61.8419 63.7741 62.7616 62.9101 63.7513 62.1405C64.5347 61.5318 64.8005 60.8287 64.7376 59.8632C64.6606 58.7053 64.7061 57.5405 64.7236 56.3756C64.748 54.616 65.5349 53.6331 66.9478 53.5596C68.3676 53.4861 69.2244 54.3467 69.4797 56.1097C69.5042 56.2846 69.5287 56.463 69.5882 56.8688C70.8751 55.7284 72.0467 54.6965 73.2112 53.6575C75.0158 52.0484 76.8063 50.4218 78.6214 48.8266C80.5274 47.1545 82.2165 47.123 84.077 48.7777C89.9488 54.0039 95.8031 59.2441 101.654 64.4913C102.955 65.6561 103.161 67.0869 102.245 68.1573C101.29 69.2697 99.8878 69.2802 98.5589 68.1013C94.3517 64.3653 90.1691 60.6013 85.976 56.8513C84.4862 55.5186 82.9964 54.1893 81.3772 52.7445L81.3737 52.741Z" fill="#3CB98A"/>
</g>
</g>
</g>
</g>
<defs>
<filter id="filter0_d_1410_6846" x="0" y="0" width="240" height="225" filterUnits="userSpaceOnUse" color-interpolation-filters="sRGB">
<feFlood flood-opacity="0" result="BackgroundImageFix"/>
<feColorMatrix in="SourceAlpha" type="matrix" values="0 0 0 0 0 0 0 0 0 0 0 0 0 0 0 0 0 0 127 0" result="hardAlpha"/>
<feOffset dy="4"/>
<feGaussianBlur stdDeviation="2"/>
<feComposite in2="hardAlpha" operator="out"/>
<feColorMatrix type="matrix" values="0 0 0 0 0 0 0 0 0 0 0 0 0 0 0 0 0 0 0.25 0"/>
<feBlend mode="normal" in2="BackgroundImageFix" result="effect1_dropShadow_1410_6846"/>
<feBlend mode="normal" in="SourceGraphic" in2="effect1_dropShadow_1410_6846" result="shape"/>
</filter>
<clipPath id="clip0_1410_6846">
<rect width="143" height="143" fill="white" transform="translate(49 37)"/>
</clipPath>
<clipPath id="clip1_1410_6846">
<rect width="143" height="143" fill="white" transform="translate(48 37)"/>
</clipPath>
<clipPath id="clip2_1410_6846">
<rect width="143" height="143" fill="white" transform="translate(48 38)"/>
</clipPath>
</defs>
</svg>
