<svg width="22" height="22" viewBox="0 0 22 22" fill="none" xmlns="http://www.w3.org/2000/svg">
<path d="M9.62516 18.5743H2.70433C2.65571 18.5743 2.60907 18.555 2.57469 18.5206C2.54031 18.4863 2.521 18.4396 2.521 18.391V17.0618C2.521 16.3001 3.06458 15.6291 3.90241 15.0589C5.39841 14.0378 7.81933 13.3943 10.5418 13.3943C10.991 13.3943 11.4319 13.4126 11.8627 13.4465C11.9538 13.4557 12.0458 13.4466 12.1333 13.4197C12.2208 13.3929 12.3021 13.3488 12.3723 13.2901C12.4426 13.2315 12.5004 13.1593 12.5424 13.078C12.5845 12.9967 12.6098 12.9078 12.617 12.8166C12.6242 12.7253 12.6131 12.6335 12.5844 12.5466C12.5556 12.4597 12.5098 12.3794 12.4497 12.3105C12.3895 12.2415 12.3161 12.1852 12.2339 12.145C12.1517 12.1047 12.0623 12.0813 11.9709 12.0761C11.4955 12.038 11.0188 12.019 10.5418 12.0193C7.49666 12.0193 4.80075 12.781 3.12691 13.9223C1.85 14.7931 1.146 15.8995 1.146 17.0609V18.391C1.14624 18.8041 1.31053 19.2003 1.60275 19.4923C1.89496 19.7844 2.29119 19.9484 2.70433 19.9484L9.62516 19.9493C9.8075 19.9493 9.98237 19.8769 10.1113 19.748C10.2402 19.619 10.3127 19.4442 10.3127 19.2618C10.3127 19.0795 10.2402 18.9046 10.1113 18.7757C9.98237 18.6468 9.8075 18.5743 9.62516 18.5743ZM10.5418 1.14575C7.75883 1.14575 5.50016 3.40442 5.50016 6.18742C5.50016 8.97042 7.75883 11.2291 10.5418 11.2291C13.3248 11.2291 15.5835 8.97042 15.5835 6.18742C15.5835 3.40442 13.3248 1.14575 10.5418 1.14575ZM10.5418 2.52075C12.5658 2.52075 14.2085 4.16342 14.2085 6.18742C14.2085 8.21142 12.5658 9.85409 10.5418 9.85409C8.51783 9.85409 6.87516 8.21142 6.87516 6.18742C6.87516 4.16342 8.51783 2.52075 10.5418 2.52075Z" fill="#1C1C1E"/>
<path d="M16.6392 18.524C17.259 18.6179 17.8926 18.5515 18.4795 18.331C19.0664 18.1105 19.587 17.7434 19.9917 17.2645C20.3963 16.7857 20.6716 16.2112 20.7911 15.5958C20.9107 14.9803 20.8706 14.3445 20.6746 13.749C20.4787 13.1535 20.1334 12.6181 19.6717 12.194C19.2101 11.7698 18.6475 11.471 18.0375 11.326C17.4276 11.181 16.7907 11.1948 16.1875 11.3659C15.5844 11.537 15.0352 11.8598 14.5923 12.3035C14.1858 12.7094 13.8806 13.2053 13.7011 13.751C13.5217 14.2967 13.4731 14.8769 13.5592 15.4449L11.4307 17.5725C11.3667 17.6363 11.316 17.7122 11.2814 17.7957C11.2468 17.8793 11.229 17.9688 11.229 18.0592V20.1666C11.229 20.5461 11.537 20.8541 11.9165 20.8541H14.0239C14.1143 20.8542 14.2039 20.8364 14.2874 20.8018C14.3709 20.7672 14.4468 20.7164 14.5107 20.6525L16.6392 18.524ZM16.5915 17.1123C16.4751 17.0813 16.3527 17.0814 16.2364 17.1126C16.12 17.1438 16.014 17.205 15.9288 17.2901L13.7398 19.4791H12.604V18.3434L14.793 16.1544C14.8781 16.0692 14.9393 15.9631 14.9705 15.8468C15.0017 15.7305 15.0018 15.608 14.9708 15.4916C14.8414 15.0042 14.8761 14.4877 15.0695 14.022C15.263 13.5562 15.6045 13.1672 16.0412 12.9149C16.4779 12.6626 16.9855 12.5612 17.4856 12.6263C17.9857 12.6915 18.4504 12.9195 18.808 13.2751C19.1637 13.6327 19.3917 14.0974 19.4568 14.5975C19.5219 15.0976 19.4205 15.6053 19.1682 16.042C18.916 16.4787 18.5269 16.8201 18.0612 17.0136C17.5954 17.207 17.0789 17.2417 16.5915 17.1123Z" fill="#3CB98A"/>
<path d="M16.4833 15.5999C16.3874 15.5083 16.3109 15.3985 16.2581 15.2769C16.2053 15.1553 16.1773 15.0244 16.1758 14.8918C16.1744 14.7593 16.1994 14.6277 16.2495 14.505C16.2996 14.3822 16.3737 14.2708 16.4675 14.1771C16.5614 14.0834 16.6729 14.0094 16.7957 13.9595C16.9186 13.9095 17.0501 13.8847 17.1827 13.8863C17.3152 13.8879 17.4461 13.9161 17.5677 13.969C17.6892 14.022 17.7989 14.0987 17.8904 14.1947C18.0696 14.3827 18.1681 14.6334 18.1649 14.8931C18.1617 15.1528 18.057 15.401 17.8732 15.5845C17.6894 15.7681 17.4411 15.8725 17.1814 15.8753C16.9216 15.8782 16.6711 15.7794 16.4833 15.5999Z" fill="#FFA920"/>
</svg>
