<svg width="50" height="50" viewBox="0 0 50 50" fill="none" xmlns="http://www.w3.org/2000/svg">
<g id="Icon" clip-path="url(#clip0_569_3410)">
<path id="Vector" d="M36.6559 17.8341L36.6559 17.8341L36.6609 17.8392C36.8315 18.0113 37.0549 18.0969 37.2788 18.0969C37.5021 18.0969 37.7258 18.0116 37.8976 17.8411C38.2409 17.5005 38.241 16.9425 37.8996 16.5985C37.5586 16.2548 37.0037 16.2526 36.66 16.5934L36.6559 17.8341ZM36.6559 17.8341L36.6551 17.8332M36.6559 17.8341L36.6551 17.8332M36.6551 17.8332C36.3141 17.4895 36.3163 16.9345 36.66 16.5935L36.6551 17.8332Z" fill="#8E8E93" stroke="white" stroke-width="0.2"/>
<path id="Vector_2" d="M46.4639 27.8825H46.7054L46.5346 27.7118L39.3343 20.5115C38.992 20.1691 38.992 19.6141 39.3343 19.2718C39.6767 18.9296 40.2317 18.9296 40.574 19.2718L49.6441 28.3419C49.8085 28.5063 49.9009 28.7294 49.901 28.9618C49.901 29.1943 49.8086 29.4172 49.6442 29.5816L34.0757 45.1502C33.9114 45.3145 33.6884 45.4069 33.4559 45.4069C33.2235 45.4069 33.0005 45.3145 32.8361 45.1502L9.34306 21.6572C9.34306 21.6572 9.34305 21.6572 9.34305 21.6572C9.00075 21.3148 9.00076 20.7598 9.34305 20.4175L24.9114 4.84884C25.2537 4.50664 25.8087 4.50664 26.151 4.84884C26.151 4.84884 26.151 4.84884 26.1511 4.84884L34.9723 13.67C35.3146 14.0124 35.3146 14.5675 34.9723 14.9098C34.6299 15.252 34.0749 15.2519 33.7326 14.9098L26.7811 7.95839L26.6104 7.78768V8.0291V25.1994C26.6104 26.679 27.8139 27.8825 29.2935 27.8825H46.4639ZM24.8575 7.62373V7.38231L24.6868 7.55302L12.2497 19.9901L12.079 20.1608H12.3204H24.7575H24.8575V20.0608V7.62373ZM32.4087 42.2434L32.5794 42.4141V42.1727V29.7356V29.6356H32.4794H29.2937C26.8477 29.6356 24.8575 27.6455 24.8575 25.1994V22.0139V21.9139H24.7575H12.3204H12.079L12.2497 22.0846L32.4087 42.2434ZM34.3324 42.1728V42.4142L34.5031 42.2435L46.9401 29.8064L47.1108 29.6356H46.8694H34.4324H34.3324V29.7356V42.1728Z" fill="#8E8E93" stroke="white" stroke-width="0.2"/>
<path id="Vector_3" d="M0.976562 24.9047H6.70225C7.18637 24.9047 7.57881 25.2972 7.57881 25.7812C7.57881 26.2654 7.18637 26.6578 6.70225 26.6578H0.976562C0.492442 26.6578 0.1 26.2653 0.1 25.7812C0.1 25.2972 0.492442 24.9047 0.976562 24.9047Z" fill="#8E8E93" stroke="white" stroke-width="0.2"/>
<path id="Vector_4" d="M9.59961 24.9047H9.61426C10.0984 24.9047 10.4908 25.2972 10.4908 25.7812C10.4908 26.2653 10.0984 26.6578 9.61426 26.6578H9.59961C9.11549 26.6578 8.72305 26.2653 8.72305 25.7812C8.72305 25.2972 9.11549 24.9047 9.59961 24.9047Z" fill="#8E8E93" stroke="white" stroke-width="0.2"/>
<path id="Vector_5" d="M0.978516 14.6508H4.10381C4.58793 14.6508 4.98037 15.0433 4.98037 15.5273C4.98037 16.0114 4.58793 16.4039 4.10381 16.4039H0.978516C0.494395 16.4039 0.101953 16.0114 0.101953 15.5273C0.101953 15.0433 0.494395 14.6508 0.978516 14.6508Z" fill="#8E8E93" stroke="white" stroke-width="0.2"/>
<path id="Vector_6" d="M7.29297 14.6508H10.9871C11.4712 14.6508 11.8637 15.0433 11.8637 15.5273C11.8637 16.0114 11.4712 16.4039 10.9871 16.4039H7.29297C6.80885 16.4039 6.41641 16.0114 6.41641 15.5273C6.41641 15.0433 6.80885 14.6508 7.29297 14.6508Z" fill="#8E8E93" stroke="white" stroke-width="0.2"/>
<path id="Vector_7" d="M7.64453 30.2758H13.1132C13.5972 30.2758 13.9897 30.6683 13.9897 31.1523C13.9897 31.6364 13.5973 32.0289 13.1132 32.0289H7.64453C7.16041 32.0289 6.76797 31.6364 6.76797 31.1523C6.76797 30.6683 7.16041 30.2758 7.64453 30.2758Z" fill="#8E8E93" stroke="white" stroke-width="0.2"/>
<path id="Vector_8" d="M3.61328 36.5258H17.3827C17.8668 36.5258 18.2593 36.9183 18.2593 37.4023C18.2593 37.8864 17.8668 38.2789 17.3827 38.2789H3.61328C3.12916 38.2789 2.73672 37.8864 2.73672 37.4023C2.73672 36.9183 3.12916 36.5258 3.61328 36.5258Z" fill="#8E8E93" stroke="white" stroke-width="0.2"/>
</g>
<defs>
<clipPath id="clip0_569_3410">
<rect width="50" height="50" fill="white"/>
</clipPath>
</defs>
</svg>
