<svg width="50" height="51" viewBox="0 0 50 51" fill="none" xmlns="http://www.w3.org/2000/svg">
<g id="Icon">
<path id="path1260" d="M26.4648 13.7812C26.4648 14.5902 27.1207 15.2461 27.9297 15.2461C28.7387 15.2461 29.3945 14.5902 29.3945 13.7812C29.3945 12.9723 28.7387 12.3164 27.9297 12.3164C27.1207 12.3164 26.4648 12.9723 26.4648 13.7812Z" fill="#8E8E93"/>
<path id="path1264" d="M32.3242 13.7812C32.3242 14.5902 32.9801 15.2461 33.7891 15.2461C34.598 15.2461 35.2539 14.5902 35.2539 13.7812C35.2539 12.9723 34.598 12.3164 33.7891 12.3164C32.9801 12.3164 32.3242 12.9723 32.3242 13.7812Z" fill="#8E8E93"/>
<path id="path1268" d="M38.1836 13.7812C38.1836 14.5902 38.8395 15.2461 39.6484 15.2461C40.4574 15.2461 41.1133 14.5902 41.1133 13.7812C41.1133 12.9723 40.4574 12.3164 39.6484 12.3164C38.8395 12.3164 38.1836 12.9723 38.1836 13.7812Z" fill="#8E8E93"/>
<path id="path1272" d="M22.6771 37.2188L27.0716 34.2891L35.8398 37.2188V43.0781C35.8398 44.6961 34.549 46.0078 32.931 46.0078C16.7508 46.0078 1.46484 30.8195 1.46484 14.6394C1.46484 13.0214 2.77656 11.7305 4.39453 11.7305H10.2539L13.1836 20.4987L10.2539 24.8933C12.1247 29.5703 18 35.3479 22.6771 37.2188Z" stroke="#8E8E93" stroke-width="1.7" stroke-miterlimit="10" stroke-linecap="round" stroke-linejoin="round"/>
<path id="path1276" d="M19.1406 13.7812C19.1406 18.6354 23.0756 22.5703 27.9297 22.5703V28.4297L33.7891 22.5703H39.6484C44.5025 22.5703 48.5352 18.6354 48.5352 13.7812C48.5352 8.92715 44.5025 4.99219 39.6484 4.99219H27.9297C23.0756 4.99219 19.1406 8.92715 19.1406 13.7812Z" stroke="#8E8E93" stroke-width="1.7" stroke-miterlimit="10" stroke-linecap="round" stroke-linejoin="round"/>
</g>
</svg>
