<svg width="18" height="18" viewBox="0 0 18 18" fill="none" xmlns="http://www.w3.org/2000/svg">
<path d="M1.6875 5.0625C1.6875 11.2755 6.7245 16.3125 12.9375 16.3125H14.625C15.0726 16.3125 15.5018 16.1347 15.8182 15.8182C16.1347 15.5018 16.3125 15.0726 16.3125 14.625V13.596C16.3125 13.209 16.0493 12.8715 15.6735 12.7778L12.3563 11.9482C12.0262 11.8657 11.6798 11.9895 11.4765 12.261L10.749 13.2308C10.5375 13.5128 10.1722 13.6372 9.8415 13.5157C8.61366 13.0643 7.49861 12.3514 6.57359 11.4264C5.64856 10.5014 4.93566 9.38634 4.48425 8.1585C4.36275 7.82775 4.48725 7.4625 4.76925 7.251L5.739 6.5235C6.01125 6.32025 6.13425 5.973 6.05175 5.64375L5.22225 2.3265C5.1766 2.14402 5.07129 1.98203 4.92304 1.86625C4.77479 1.75048 4.5921 1.68756 4.404 1.6875H3.375C2.92745 1.6875 2.49822 1.86529 2.18176 2.18176C1.86529 2.49822 1.6875 2.92745 1.6875 3.375V5.0625Z" fill="#3CB98A" stroke="#3CB98A" stroke-width="1.5" stroke-linecap="round" stroke-linejoin="round"/>
</svg>
