<svg width="18" height="16" viewBox="0 0 18 16" fill="none" xmlns="http://www.w3.org/2000/svg">
<path d="M6.1875 14.75V11.0938C6.1875 10.628 6.5655 10.25 7.03125 10.25H8.71875C9.1845 10.25 9.5625 10.628 9.5625 11.0938V14.75M9.5625 14.75H12.9375V1.65875M9.5625 14.75H15.1875V7.0625M1.6875 14.75H2.8125H1.6875ZM16.3125 14.75H2.8125H16.3125ZM1.6875 5.75L5.0625 4.523L1.6875 5.75ZM14.0625 1.25L12.9375 1.65875L14.0625 1.25ZM12.9375 6.3125L15.1875 7.0625L12.9375 6.3125ZM16.3125 7.4375L15.1875 7.0625L16.3125 7.4375ZM5.0625 4.523V1.25H2.8125V14.75M5.0625 4.523L12.9375 1.65875L5.0625 4.523Z" fill="#3CB98A"/>
<path d="M6.1875 14.75V11.0938C6.1875 10.628 6.5655 10.25 7.03125 10.25H8.71875C9.1845 10.25 9.5625 10.628 9.5625 11.0938V14.75M9.5625 14.75H12.9375V1.65875M9.5625 14.75H15.1875V7.0625M12.9375 1.65875L14.0625 1.25M12.9375 1.65875L5.0625 4.523M15.1875 7.0625L12.9375 6.3125M15.1875 7.0625L16.3125 7.4375M1.6875 14.75H2.8125M2.8125 14.75H16.3125M2.8125 14.75V1.25H5.0625V4.523M1.6875 5.75L5.0625 4.523" stroke="#3CB98A" stroke-width="1.5" stroke-linecap="round" stroke-linejoin="round"/>
</svg>
