<svg width="25" height="24" viewBox="0 0 25 24" fill="none" xmlns="http://www.w3.org/2000/svg">
<path d="M13.25 15.75V15H11.375C10.7548 15 10.25 14.4952 10.25 13.875V12.375C10.25 11.7548 10.7548 11.25 11.375 11.25H11.75V10.5H13.25V11.25H14C14.1989 11.25 14.3897 11.329 14.5303 11.4697C14.671 11.6103 14.75 11.8011 14.75 12C14.75 12.1989 14.671 12.3897 14.5303 12.5303C14.3897 12.671 14.1989 12.75 14 12.75H11.75V13.5H13.625C14.2452 13.5 14.75 14.0048 14.75 14.625V16.125C14.75 16.7453 14.2452 17.25 13.625 17.25H13.25V18H11.75V17.25H11C10.8011 17.25 10.6103 17.171 10.4697 17.0303C10.329 16.8897 10.25 16.6989 10.25 16.5C10.25 16.3011 10.329 16.1103 10.4697 15.9697C10.6103 15.829 10.8011 15.75 11 15.75H13.25Z" fill="white"/>
<path d="M22.4692 10.6447L14.3152 2.96925C13.8235 2.50736 13.1743 2.25024 12.4998 2.25024C11.8252 2.25024 11.176 2.50736 10.6844 2.96925L8.75016 4.791V3C8.75016 2.80109 8.67115 2.61032 8.53049 2.46967C8.38984 2.32902 8.19908 2.25 8.00016 2.25H5.00016C4.80125 2.25 4.61049 2.32902 4.46983 2.46967C4.32918 2.61032 4.25016 2.80109 4.25016 3V9.027L2.55291 10.6252C2.03766 11.0722 1.86366 11.784 2.10816 12.4387C2.34891 13.0837 2.93841 13.5 3.60966 13.5H4.25016V21C4.25016 21.1989 4.32918 21.3897 4.46983 21.5303C4.61049 21.671 4.80125 21.75 5.00016 21.75H20.0002C20.1991 21.75 20.3898 21.671 20.5305 21.5303C20.6711 21.3897 20.7502 21.1989 20.7502 21V13.5H21.3892C22.0612 13.5 22.6514 13.083 22.8922 12.438C23.1359 11.7832 22.9612 11.0715 22.4692 10.6447ZM5.75016 3.75H7.25016V6.2025L5.75016 7.61475V3.75ZM21.4867 11.9137C21.4544 12 21.4049 12 21.3892 12H20.0002C19.8013 12 19.6105 12.079 19.4698 12.2197C19.3292 12.3603 19.2502 12.5511 19.2502 12.75V20.25H5.75016V12.75C5.75016 12.5511 5.67115 12.3603 5.53049 12.2197C5.38984 12.079 5.19908 12 5.00016 12H3.60966C3.59391 12 3.54516 12 3.51291 11.9137C3.50041 11.8834 3.4981 11.8498 3.50636 11.818C3.51461 11.7862 3.53297 11.7579 3.55866 11.7375L11.7127 4.062C11.9258 3.86178 12.2073 3.75032 12.4998 3.75032C12.7923 3.75032 13.0737 3.86178 13.2869 4.062L21.4627 11.7577C21.5189 11.8057 21.4979 11.883 21.4867 11.9137Z" fill="white"/>
</svg>
