<svg width="50" height="50" viewBox="0 0 50 50" fill="none" xmlns="http://www.w3.org/2000/svg">
<path d="M47.3958 43.75H2.60417C1.16593 43.75 0 44.9159 0 46.3542V47.3958C0 48.8341 1.16593 50 2.60417 50H47.3958C48.8341 50 50 48.8341 50 47.3958V46.3542C50 44.9159 48.8341 43.75 47.3958 43.75Z" fill="#3CB98A"/>
<path d="M47.8321 21.6355L48.7988 20.1865C49.1749 19.6268 49.3183 18.9427 49.1987 18.2791C49.0792 17.6155 48.7059 17.0245 48.1582 16.6313L26.5259 0.981286C26.0818 0.660168 25.5478 0.487305 24.9998 0.487305C24.4518 0.487305 23.9178 0.660168 23.4738 0.981286L1.84149 16.6313C1.29369 17.0245 0.920481 17.6155 0.800902 18.2791C0.681324 18.9427 0.824772 19.6268 1.20086 20.1865L2.16753 21.6355C2.3633 21.9252 2.61513 22.1729 2.90816 22.3638C3.20118 22.5546 3.52948 22.6849 3.87367 22.7468C4.21785 22.8088 4.57096 22.8012 4.91216 22.7244C5.25335 22.6477 5.57572 22.5034 5.86024 22.3L24.6946 8.67608C24.7834 8.61186 24.8902 8.57728 24.9998 8.57728C25.1094 8.57728 25.2162 8.61186 25.305 8.67608L44.1394 22.3C44.4238 22.5037 44.7462 22.6482 45.0874 22.7251C45.4287 22.802 45.7819 22.8097 46.1261 22.7477C46.4704 22.6858 46.7988 22.5554 47.0918 22.3644C47.3848 22.1733 47.6365 21.9255 47.8321 21.6355Z" fill="#3CB98A"/>
<path d="M43.5309 23.1456L25.3018 9.95806C25.2129 9.89696 25.1076 9.86426 24.9997 9.86426C24.8918 9.86426 24.7865 9.89696 24.6976 9.95806L6.46844 23.1456C6.18804 23.3468 5.87905 23.5048 5.55177 23.6143C5.4502 23.6525 5.36277 23.7209 5.3013 23.8103C5.23983 23.8997 5.20727 24.0058 5.20802 24.1143V42.1872C5.20802 42.3254 5.26289 42.4578 5.36057 42.5555C5.45824 42.6532 5.59072 42.7081 5.72885 42.7081H44.2705C44.4087 42.7081 44.5411 42.6532 44.6388 42.5555C44.7365 42.4578 44.7914 42.3254 44.7914 42.1872V24.1143C44.7921 24.0058 44.7595 23.8997 44.6981 23.8103C44.6366 23.7209 44.5492 23.6525 44.4476 23.6143C44.1195 23.5068 43.8102 23.3487 43.5309 23.1456ZM41.1455 36.9789C41.1455 38.084 40.7065 39.1438 39.9251 39.9252C39.1437 40.7066 38.0839 41.1456 36.9789 41.1456H13.0205C11.9155 41.1456 10.8556 40.7066 10.0742 39.9252C9.29284 39.1438 8.85385 38.084 8.85385 36.9789V29.6872C8.85385 28.5822 9.29284 27.5223 10.0742 26.7409C10.8556 25.9595 11.9155 25.5206 13.0205 25.5206H17.958L22.8226 20.6976C22.5648 20.3049 22.4181 19.8498 22.3979 19.3804C22.3778 18.9111 22.4849 18.445 22.7081 18.0317C22.9312 17.6183 23.262 17.2729 23.6655 17.0322C24.0689 16.7916 24.5299 16.6645 24.9997 16.6645C25.4695 16.6645 25.9305 16.7916 26.3339 17.0322C26.7373 17.2729 27.0682 17.6183 27.2913 18.0317C27.5144 18.445 27.6216 18.9111 27.6015 19.3804C27.5813 19.8498 27.4345 20.3049 27.1768 20.6976L32.0414 25.5206H36.9789C38.0839 25.5206 39.1437 25.9595 39.9251 26.7409C40.7065 27.5223 41.1455 28.5822 41.1455 29.6872V36.9789Z" fill="#3CB98A"/>
<path d="M26.4476 21.4375C26.0186 21.7228 25.5149 21.875 24.9997 21.875C24.4845 21.875 23.9807 21.7228 23.5518 21.4375L19.4372 25.5208H30.5622L26.4476 21.4375ZM21.6143 30.2083C21.0278 30.1764 20.4525 30.3774 20.0136 30.7676C19.5746 31.1578 19.3075 31.7055 19.2705 32.2917V35.9375C19.2705 36.0756 19.3254 36.2081 19.4231 36.3058C19.5207 36.4035 19.6532 36.4583 19.7913 36.4583C19.9295 36.4583 20.062 36.4035 20.1596 36.3058C20.2573 36.2081 20.3122 36.0756 20.3122 35.9375V34.375H22.9163V35.9375C22.9163 36.0756 22.9712 36.2081 23.0689 36.3058C23.1666 36.4035 23.299 36.4583 23.4372 36.4583C23.5753 36.4583 23.7078 36.4035 23.8055 36.3058C23.9031 36.2081 23.958 36.0756 23.958 35.9375V32.2917C23.921 31.7055 23.6539 31.1578 23.215 30.7676C22.776 30.3774 22.2007 30.1764 21.6143 30.2083ZM22.9163 33.3333H20.3122V32.2917C20.3506 31.9826 20.5082 31.7007 20.7515 31.5061C20.9947 31.3116 21.3043 31.2197 21.6143 31.25C21.9243 31.2197 22.2338 31.3116 22.4771 31.5061C22.7203 31.7007 22.8779 31.9826 22.9163 32.2917V33.3333ZM30.208 35.4167H27.6038C27.4657 35.4167 27.3332 35.3618 27.2356 35.2641C27.1379 35.1664 27.083 35.034 27.083 34.8958V30.7292C27.083 30.591 27.0281 30.4586 26.9305 30.3609C26.8328 30.2632 26.7003 30.2083 26.5622 30.2083C26.424 30.2083 26.2916 30.2632 26.1939 30.3609C26.0962 30.4586 26.0413 30.591 26.0413 30.7292V34.8958C26.0413 35.3102 26.206 35.7077 26.499 36.0007C26.792 36.2937 27.1894 36.4583 27.6038 36.4583H30.208C30.3461 36.4583 30.4786 36.4035 30.5763 36.3058C30.674 36.2081 30.7288 36.0756 30.7288 35.9375C30.7288 35.7994 30.674 35.6669 30.5763 35.5692C30.4786 35.4715 30.3461 35.4167 30.208 35.4167ZM15.0611 31.25H15.9726C16.3486 31.25 16.6663 31.4885 16.6663 31.7708C16.6663 31.909 16.7212 32.0414 16.8189 32.1391C16.9166 32.2368 17.049 32.2917 17.1872 32.2917C17.3253 32.2917 17.4578 32.2368 17.5555 32.1391C17.6531 32.0414 17.708 31.909 17.708 31.7708C17.6832 31.3342 17.487 30.925 17.1619 30.6323C16.8369 30.3397 16.4094 30.1873 15.9726 30.2083H15.0611C14.8046 30.1795 14.5448 30.2052 14.2989 30.2837C14.0529 30.3621 13.8263 30.4916 13.6338 30.6637C13.4414 30.8358 13.2874 31.0465 13.182 31.2822C13.0765 31.5178 13.022 31.7731 13.022 32.0313C13.022 32.2894 13.0765 32.5447 13.182 32.7803C13.2874 33.016 13.4414 33.2267 13.6338 33.3988C13.8263 33.5709 14.0529 33.7004 14.2989 33.7788C14.5448 33.8573 14.8046 33.883 15.0611 33.8542H15.6684C15.7871 33.8245 15.911 33.8224 16.0307 33.8478C16.1503 33.8732 16.2626 33.9255 16.3591 34.0009C16.4555 34.0762 16.5334 34.1724 16.5871 34.2824C16.6407 34.3924 16.6686 34.5131 16.6686 34.6354C16.6686 34.7578 16.6407 34.8785 16.5871 34.9884C16.5334 35.0984 16.4555 35.1947 16.3591 35.27C16.2626 35.3453 16.1503 35.3976 16.0307 35.4231C15.911 35.4485 15.7871 35.4463 15.6684 35.4167H14.757C14.3799 35.4167 14.0622 35.1781 14.0622 34.8958C14.0622 34.7577 14.0073 34.6252 13.9096 34.5275C13.812 34.4299 13.6795 34.375 13.5413 34.375C13.4032 34.375 13.2707 34.4299 13.1731 34.5275C13.0754 34.6252 13.0205 34.7577 13.0205 34.8958C13.0453 35.3327 13.2417 35.742 13.5669 36.0347C13.8922 36.3274 14.3199 36.4796 14.757 36.4583H15.6684C15.925 36.4871 16.1847 36.4615 16.4307 36.383C16.6766 36.3045 16.9032 36.175 17.0957 36.003C17.2882 35.8309 17.4422 35.6202 17.5476 35.3845C17.653 35.1488 17.7075 34.8936 17.7075 34.6354C17.7075 34.3773 17.653 34.122 17.5476 33.8863C17.4422 33.6507 17.2882 33.4399 17.0957 33.2679C16.9032 33.0958 16.6766 32.9663 16.4307 32.8878C16.1847 32.8094 15.925 32.7837 15.6684 32.8125H15.0611C14.9424 32.8421 14.8186 32.8443 14.6989 32.8189C14.5792 32.7935 14.4669 32.7411 14.3705 32.6658C14.2741 32.5905 14.1961 32.4942 14.1425 32.3843C14.0888 32.2743 14.061 32.1536 14.061 32.0313C14.061 31.9089 14.0888 31.7882 14.1425 31.6782C14.1961 31.5683 14.2741 31.472 14.3705 31.3967C14.4669 31.3214 14.5792 31.269 14.6989 31.2436C14.8186 31.2182 14.9424 31.2204 15.0611 31.25ZM33.984 31.25H36.7184C36.8566 31.25 36.989 31.1951 37.0867 31.0975C37.1844 30.9998 37.2393 30.8673 37.2393 30.7292C37.2393 30.591 37.1844 30.4586 37.0867 30.3609C36.989 30.2632 36.8566 30.2083 36.7184 30.2083H33.984C33.5873 30.2267 33.214 30.4014 32.9456 30.6941C32.6772 30.9869 32.5356 31.374 32.5518 31.7708V34.8958C32.5356 35.2927 32.6772 35.6798 32.9456 35.9725C33.214 36.2653 33.5873 36.4399 33.984 36.4583H36.7184C36.8566 36.4583 36.989 36.4035 37.0867 36.3058C37.1844 36.2081 37.2393 36.0756 37.2393 35.9375C37.2393 35.7994 37.1844 35.6669 37.0867 35.5692C36.989 35.4715 36.8566 35.4167 36.7184 35.4167H33.984C33.7757 35.4167 33.5934 35.1781 33.5934 34.8958V33.8542H36.7184C36.8566 33.8542 36.989 33.7993 37.0867 33.7016C37.1844 33.6039 37.2393 33.4715 37.2393 33.3333C37.2393 33.1952 37.1844 33.0627 37.0867 32.965C36.989 32.8674 36.8566 32.8125 36.7184 32.8125H33.5934V31.7708C33.5934 31.4885 33.7726 31.25 33.984 31.25Z" fill="#3CB98A"/>
</svg>
