<svg width="19" height="22" viewBox="0 0 19 22" fill="none" xmlns="http://www.w3.org/2000/svg">
<path d="M15.2302 14C14.6629 14.0015 14.104 14.1517 13.5991 14.4385C13.0941 14.7253 12.6575 15.1404 12.3249 15.65L7.80292 12.307C8.08789 11.4643 8.08789 10.5357 7.80292 9.69302L12.3249 6.35002C12.8325 7.11315 13.5688 7.65054 14.4015 7.86564C15.2343 8.08075 16.1089 7.95946 16.8683 7.52357C17.6277 7.08769 18.222 6.36577 18.5445 5.48754C18.867 4.6093 18.8965 3.6323 18.6278 2.73208C18.3591 1.83186 17.8097 1.06742 17.0784 0.576107C16.347 0.0847928 15.4817 -0.101192 14.6378 0.0515675C13.7939 0.204327 13.0268 0.685818 12.4743 1.40953C11.9218 2.13325 11.6201 3.05175 11.6234 4.00002C11.6292 4.14573 11.6425 4.29096 11.6631 4.43502L6.80204 8.02902C6.284 7.51111 5.64168 7.17088 4.95285 7.04954C4.26403 6.9282 3.55826 7.03095 2.92102 7.34536C2.28377 7.65976 1.74239 8.17232 1.36244 8.82097C0.982493 9.46961 0.780273 10.2265 0.780273 11C0.780273 11.7735 0.982493 12.5304 1.36244 13.1791C1.74239 13.8277 2.28377 14.3403 2.92102 14.6547C3.55826 14.9691 4.26403 15.0718 4.95285 14.9505C5.64168 14.8292 6.284 14.4889 6.80204 13.971L11.6631 17.565C11.6425 17.7091 11.6292 17.8543 11.6234 18C11.6234 18.7911 11.8349 19.5645 12.2313 20.2223C12.6276 20.8801 13.1909 21.3928 13.8499 21.6955C14.509 21.9983 15.2342 22.0775 15.9338 21.9232C16.6335 21.7688 17.2761 21.3879 17.7806 20.8284C18.285 20.269 18.6285 19.5563 18.7677 18.7804C18.9068 18.0045 18.8354 17.2002 18.5624 16.4693C18.2894 15.7384 17.8271 15.1137 17.234 14.6741C16.6409 14.2346 15.9435 14 15.2302 14Z" fill="white"/>
</svg>
